<svg width="20" height="22" viewBox="0 0 20 22" fill="none" xmlns="http://www.w3.org/2000/svg">
<path d="M13.2706 17.1538V17.9231C13.2706 18.7391 12.9261 19.5218 12.3128 20.0988C11.6996 20.6758 10.8679 21 10.0006 21C9.13336 21 8.30164 20.6758 7.6884 20.0988C7.07517 19.5218 6.73066 18.7391 6.73066 17.9231V17.1538M18.7723 15.588C17.4602 14.0769 16.5339 13.3077 16.5339 9.14183C16.5339 5.32692 14.4636 3.96779 12.7596 3.30769C12.5333 3.22019 12.3202 3.01923 12.2513 2.80048C11.9524 1.84327 11.1144 1 10.0006 1C8.88678 1 8.04835 1.84375 7.75252 2.80144C7.68354 3.0226 7.47048 3.22019 7.24414 3.30769C5.53814 3.96875 3.4699 5.32308 3.4699 9.14183C3.46734 13.3077 2.54103 14.0769 1.22896 15.588C0.685328 16.2139 1.16151 17.1538 2.11236 17.1538H17.894C18.8397 17.1538 19.3128 16.2111 18.7723 15.588Z" stroke="#333333" stroke-linecap="round" stroke-linejoin="round"/>
</svg>
