<svg width="96" height="76" viewBox="0 0 96 76" fill="none" xmlns="http://www.w3.org/2000/svg">
<path d="M67.5716 15.0694L61.978 6.23154C60.7992 4.85732 59.1833 4 57.3721 4H38.0404C36.2292 4 34.6133 4.85732 33.4345 6.23154L27.8409 15.0694C26.6621 16.4458 25.1429 17.4481 23.3316 17.4481H10.724C8.94071 17.4481 7.23043 18.1565 5.96942 19.4175C4.70842 20.6785 4 22.3888 4 24.1721V64.5163C4 66.2997 4.70842 68.01 5.96942 69.271C7.23043 70.532 8.94071 71.2404 10.724 71.2404H84.6885C86.4718 71.2404 88.1821 70.532 89.4431 69.271C90.7041 68.01 91.4125 66.2997 91.4125 64.5163V24.1721C91.4125 22.3888 90.7041 20.6785 89.4431 19.4175C88.1821 18.1565 86.4718 17.4481 84.6885 17.4481H72.291C70.4734 17.4481 68.7504 16.4458 67.5716 15.0694Z" stroke="#333333" stroke-width="8" stroke-linecap="round" stroke-linejoin="round"/>
<path d="M47.7066 57.7921C56.9905 57.7921 64.5167 50.2659 64.5167 40.982C64.5167 31.698 56.9905 24.1719 47.7066 24.1719C38.4226 24.1719 30.8965 31.698 30.8965 40.982C30.8965 50.2659 38.4226 57.7921 47.7066 57.7921Z" stroke="#333333" stroke-width="8" stroke-miterlimit="10"/>
</svg>
