<svg width="1052" height="232" viewBox="0 0 1052 232" fill="none" xmlns="http://www.w3.org/2000/svg">
<g clip-path="url(#clip0)">
<path d="M189.083 161.369C189.083 237.192 152.091 235.84 106.459 235.84C60.8275 235.84 23.8357 237.192 23.8357 161.369C23.8357 85.5464 70.4611 0 106.459 0C142.457 0 189.083 85.5464 189.083 161.369Z" fill="#A3E440"/>
<path d="M278.807 235.842H104.417C90.3177 235.842 81.6389 221.14 88.953 209.645L176.143 72.5898C183.185 61.52 200.029 61.52 207.071 72.5898L294.271 209.644C301.586 221.14 292.907 235.842 278.807 235.842Z" fill="#52B551"/>
<path d="M264.681 164.41H118.922C107.139 164.41 99.8837 154.114 105.996 146.064L178.874 50.0836C184.76 42.3311 198.838 42.3311 204.725 50.0836L277.603 146.064C283.715 154.114 276.463 164.41 264.681 164.41Z" fill="#52B551"/>
<path d="M249.085 88.5385H134.513C125.25 88.5385 119.549 80.951 124.353 75.0176L181.64 4.28446C186.267 -1.42815 197.333 -1.42815 201.96 4.28446L259.246 75.0176C264.051 80.951 258.349 88.5385 249.085 88.5385Z" fill="#52B551"/>
<path d="M149.582 154.81C129.474 154.81 110.19 146.913 95.9722 132.857C81.754 118.8 73.7664 99.7358 73.7664 79.8571C73.7664 38.4619 191.453 154.81 149.582 154.81Z" fill="#E7D1C4"/>
<path d="M90.8372 231.789C89.6717 231.789 88.5176 231.563 87.4408 231.122C86.364 230.681 85.3857 230.034 84.5616 229.219C83.7375 228.405 83.0838 227.437 82.6379 226.373C82.192 225.308 81.9625 224.167 81.9626 223.015V183.171H106.551L99.5908 224.458C99.2454 226.507 98.1762 228.368 96.5733 229.71C94.9705 231.053 92.9379 231.789 90.8372 231.789Z" fill="#6B4F5B"/>
<path d="M90.8392 235.841C87.3993 235.838 84.1014 234.485 81.669 232.081C79.2365 229.676 77.8683 226.416 77.8645 223.015V183.171C77.8645 182.097 78.2963 181.066 79.0648 180.307C79.8334 179.547 80.8757 179.12 81.9626 179.12H106.551C107.147 179.12 107.735 179.248 108.275 179.495C108.815 179.743 109.294 180.104 109.679 180.553C110.064 181.002 110.345 181.528 110.503 182.096C110.661 182.663 110.692 183.258 110.594 183.838L103.635 225.125C103.137 228.123 101.577 230.848 99.2321 232.811C96.8874 234.775 93.9121 235.849 90.8392 235.841V235.841ZM86.0608 187.223V223.016C86.0618 224.268 86.5651 225.468 87.4602 226.353C88.3553 227.238 89.569 227.736 90.8351 227.738V227.738C91.9675 227.741 93.0641 227.346 93.9279 226.622C94.7917 225.898 95.3661 224.893 95.5479 223.788L101.712 187.223H86.0608Z" fill="#4C241D"/>
<path d="M201.367 231.789H198.651C197.386 231.789 196.136 231.522 194.985 231.006C193.833 230.49 192.807 229.736 191.974 228.795C191.141 227.855 190.521 226.749 190.155 225.552C189.79 224.356 189.687 223.095 189.854 221.856L195.071 183.171H221.299L209.942 225.277C209.438 227.145 208.324 228.796 206.774 229.973C205.223 231.151 203.322 231.79 201.367 231.789V231.789Z" fill="#6B4F5B"/>
<path d="M201.369 235.841H198.657C196.808 235.841 194.981 235.451 193.297 234.696C191.613 233.941 190.112 232.839 188.895 231.464C187.677 230.089 186.771 228.472 186.237 226.722C185.703 224.972 185.553 223.13 185.798 221.318L191.013 182.636C191.144 181.663 191.628 180.771 192.374 180.124C193.12 179.478 194.079 179.121 195.071 179.12H221.299C221.927 179.12 222.547 179.263 223.11 179.538C223.673 179.813 224.165 180.212 224.548 180.704C224.93 181.197 225.193 181.769 225.316 182.378C225.439 182.987 225.419 183.616 225.257 184.216L213.899 226.32C213.161 229.049 211.533 231.461 209.268 233.182C207.002 234.903 204.226 235.838 201.369 235.841V235.841ZM198.657 187.223L193.914 222.393C193.824 223.06 193.879 223.739 194.075 224.383C194.272 225.028 194.606 225.623 195.054 226.129C195.503 226.636 196.056 227.041 196.676 227.319C197.297 227.596 197.97 227.739 198.651 227.738H201.368C202.419 227.735 203.44 227.39 204.273 226.756C205.106 226.123 205.705 225.236 205.978 224.232L215.963 187.223H198.657Z" fill="#4C241D"/>
<path d="M98.3551 179.12H53.2756C44.5805 179.12 36.2415 175.705 30.0931 169.627C23.9447 163.548 20.4906 155.304 20.4906 146.708H98.3551V179.12Z" fill="#6B4F5B"/>
<path d="M98.3552 183.171H53.2758C43.4971 183.161 34.122 179.316 27.2074 172.48C20.2928 165.644 16.4034 156.375 16.3926 146.708C16.3926 145.633 16.8243 144.603 17.5929 143.843C18.3614 143.083 19.4038 142.656 20.4907 142.656H98.3552C99.4421 142.656 100.484 143.083 101.253 143.843C102.022 144.603 102.453 145.633 102.453 146.708V179.12C102.453 180.194 102.022 181.225 101.253 181.985C100.484 182.745 99.4421 183.171 98.3552 183.171ZM24.8808 150.759C25.8748 157.506 29.2903 163.674 34.5034 168.137C39.7166 172.6 46.3796 175.06 53.2758 175.068H94.2571V150.759H24.8808Z" fill="#4C241D"/>
<path d="M204.906 158.862L221.299 187.223Z" fill="white"/>
<path d="M221.299 191.274C220.576 191.275 219.865 191.087 219.24 190.728C218.614 190.369 218.095 189.853 217.737 189.233L201.344 160.872C200.824 159.94 200.695 158.844 200.986 157.819C201.277 156.795 201.964 155.924 202.899 155.396C203.833 154.868 204.94 154.725 205.981 154.997C207.021 155.27 207.912 155.936 208.46 156.852L224.852 185.212C225.208 185.828 225.394 186.526 225.392 187.235C225.39 187.944 225.2 188.641 224.84 189.254C224.48 189.868 223.964 190.378 223.343 190.732C222.721 191.087 222.017 191.274 221.299 191.274Z" fill="#4C241D"/>
<path d="M65.5701 158.862V163.701C65.5701 169.939 68.0768 175.922 72.5388 180.334C77.0008 184.745 83.0526 187.223 89.3628 187.223H110.65V222.628C110.607 224.637 111.243 226.604 112.457 228.216C113.67 229.828 115.393 230.995 117.352 231.531C118.542 231.826 119.781 231.874 120.991 231.673C122.2 231.471 123.355 231.024 124.381 230.36C125.408 229.695 126.284 228.828 126.954 227.812C127.625 226.796 128.075 225.655 128.278 224.458L134.555 187.223H221.299L229.495 199.377L224.056 220.888C223.729 222.182 223.704 223.533 223.984 224.837C224.264 226.142 224.842 227.366 225.672 228.417C226.503 229.469 227.565 230.319 228.778 230.903C229.991 231.487 231.322 231.79 232.671 231.789H239.126C241.069 231.79 242.958 231.159 244.503 229.996C246.048 228.832 247.165 227.199 247.681 225.348L254.084 202.39V128.403C254.084 116.065 249.126 104.233 240.301 95.5091C231.477 86.785 219.508 81.8839 207.028 81.8839H94.4824C85.5888 81.8838 76.8328 84.0545 68.9915 88.2033C61.1502 92.352 54.4663 98.3505 49.5331 105.666L40.9813 118.347H12.3395C11.2573 118.347 10.1856 118.558 9.18574 118.967C8.18586 119.377 7.27733 119.977 6.51204 120.733C5.74675 121.49 5.13968 122.388 4.7255 123.376C4.31132 124.365 4.09814 125.424 4.09814 126.494V143.713C4.09842 147.731 5.71313 151.584 8.58708 154.425C11.461 157.266 15.3589 158.862 19.4231 158.862H49.1776" fill="#B5A19C"/>
<path d="M119.547 235.841C117.807 235.847 116.083 235.507 114.48 234.841C112.876 234.174 111.424 233.195 110.211 231.962C108.998 230.729 108.049 229.266 107.42 227.663C106.792 226.059 106.496 224.346 106.551 222.627V191.274H89.3638C81.9689 191.266 74.8793 188.359 69.6503 183.189C64.4213 178.02 61.4801 171.011 61.472 163.7V158.862C61.472 157.788 61.9037 156.757 62.6723 155.998C63.4408 155.238 64.4832 154.811 65.5701 154.811C66.657 154.811 67.6994 155.238 68.4679 155.998C69.2365 156.757 69.6682 157.788 69.6682 158.862V163.701C69.6745 168.863 71.7514 173.812 75.4435 177.462C79.1356 181.112 84.1414 183.165 89.3628 183.171H110.65C111.736 183.171 112.779 183.598 113.547 184.358C114.316 185.118 114.748 186.148 114.748 187.223V222.628C114.704 223.728 115.03 224.812 115.675 225.71C116.32 226.608 117.248 227.269 118.313 227.591C118.963 227.753 119.64 227.78 120.301 227.671C120.962 227.562 121.594 227.318 122.155 226.956C122.703 226.597 123.17 226.131 123.528 225.586C123.886 225.041 124.127 224.43 124.236 223.789L130.511 186.556C130.671 185.61 131.165 184.751 131.905 184.131C132.645 183.512 133.583 183.172 134.553 183.171H221.299C221.974 183.171 222.638 183.336 223.233 183.651C223.827 183.966 224.334 184.421 224.709 184.975L232.905 197.13C233.221 197.6 233.435 198.13 233.532 198.686C233.63 199.242 233.608 199.812 233.469 200.36L228.03 221.863C227.853 222.56 227.839 223.288 227.989 223.991C228.139 224.694 228.449 225.354 228.896 225.92C229.343 226.487 229.915 226.945 230.568 227.26C231.221 227.575 231.938 227.738 232.665 227.738H239.126C240.172 227.737 241.188 227.397 242.021 226.772C242.853 226.146 243.456 225.268 243.736 224.272L249.986 201.845V128.411C249.975 117.15 245.445 106.354 237.392 98.3906C229.338 90.4274 218.418 85.948 207.027 85.9354H94.4814C86.2608 85.926 78.1657 87.9282 70.9179 91.7632C63.6702 95.5983 57.4953 101.147 52.9438 107.915L44.391 120.596C44.0166 121.151 43.5095 121.606 42.9147 121.92C42.3199 122.235 41.6558 122.399 40.9813 122.399H12.3384C11.2401 122.4 10.1872 122.832 9.41062 123.6C8.63407 124.368 8.19735 125.409 8.19626 126.495V143.714C8.19979 146.656 9.38367 149.477 11.4882 151.557C13.5927 153.638 16.446 154.808 19.4221 154.811H49.1776C50.2645 154.811 51.3068 155.238 52.0754 155.998C52.8439 156.757 53.2757 157.788 53.2757 158.862C53.2757 159.937 52.8439 160.968 52.0754 161.727C51.3068 162.487 50.2645 162.914 49.1776 162.914H19.4221C14.2726 162.908 9.33566 160.883 5.69452 157.284C2.05338 153.684 0.00542364 148.803 0 143.712V126.493C0.00433774 123.259 1.3057 120.159 3.6187 117.873C5.9317 115.586 9.06751 114.3 12.3384 114.296H38.7878L46.1234 103.42C51.4227 95.5415 58.6116 89.0822 67.049 84.6176C75.4865 80.1531 84.9104 77.8221 94.4804 77.8324H207.027C220.59 77.8477 233.592 83.1807 243.182 92.6614C252.772 102.142 258.167 114.996 258.182 128.404V202.39C258.183 202.753 258.133 203.115 258.034 203.465L251.634 226.421C250.876 229.126 249.242 231.511 246.984 233.212C244.725 234.913 241.965 235.836 239.126 235.841H232.662C230.691 235.841 228.745 235.397 226.973 234.543C225.201 233.688 223.65 232.445 222.437 230.909C221.224 229.372 220.381 227.583 219.972 225.676C219.564 223.769 219.601 221.795 220.08 219.904L225.079 200.133L219.106 191.274H138.027L132.32 225.125C132.024 226.863 131.37 228.522 130.399 230C129.427 231.478 128.159 232.742 126.673 233.716C124.562 235.105 122.082 235.845 119.547 235.843V235.841Z" fill="#4C241D"/>
<path d="M65.5701 98.0899V94.0384C65.5701 86.5168 68.5924 79.3032 73.9723 73.9845C79.3521 68.6659 86.6487 65.6779 94.257 65.6779V98.0899" fill="#B5A19C"/>
<path d="M94.257 102.141C93.1701 102.141 92.1277 101.715 91.3592 100.955C90.5906 100.195 90.1588 99.1644 90.1588 98.0899V70.0667C84.4323 71.0316 79.235 73.9667 75.4855 78.3532C71.736 82.7397 69.6755 88.2954 69.6682 94.0384V98.0899C69.6682 99.1644 69.2364 100.195 68.4679 100.955C67.6993 101.715 66.6569 102.141 65.5701 102.141C64.4832 102.141 63.4408 101.715 62.6722 100.955C61.9037 100.195 61.4719 99.1644 61.4719 98.0899V94.0384C61.4817 85.4452 64.939 77.2067 71.0852 71.1303C77.2315 65.054 85.5648 61.6361 94.257 61.6264C95.3439 61.6264 96.3862 62.0533 97.1548 62.8131C97.9233 63.5729 98.3551 64.6034 98.3551 65.6779V98.0899C98.3551 99.1644 97.9233 100.195 97.1548 100.955C96.3862 101.715 95.3439 102.141 94.257 102.141Z" fill="#4C241D"/>
<path d="M61.4719 122.398C63.7352 122.398 65.57 120.584 65.57 118.346C65.57 116.109 63.7352 114.295 61.4719 114.295C59.2086 114.295 57.3738 116.109 57.3738 118.346C57.3738 120.584 59.2086 122.398 61.4719 122.398Z" fill="#4C241D"/>
<path d="M223.348 116.322C222.81 116.322 222.277 116.218 221.78 116.014C221.282 115.81 220.831 115.511 220.451 115.135L214.303 109.057C213.557 108.293 213.144 107.27 213.153 106.208C213.163 105.145 213.594 104.129 214.353 103.378C215.113 102.627 216.141 102.201 217.216 102.191C218.29 102.182 219.325 102.591 220.098 103.329L226.245 109.406C226.818 109.972 227.209 110.694 227.367 111.48C227.525 112.266 227.444 113.08 227.133 113.821C226.823 114.561 226.298 115.193 225.624 115.639C224.951 116.084 224.158 116.322 223.348 116.322Z" fill="#4C241D"/>
<path d="M221.299 130.502C220.761 130.503 220.228 130.398 219.731 130.194C219.233 129.99 218.782 129.692 218.402 129.315L210.205 121.212C209.459 120.448 209.046 119.424 209.055 118.362C209.065 117.3 209.496 116.284 210.255 115.532C211.015 114.781 212.043 114.355 213.118 114.346C214.192 114.337 215.227 114.745 216 115.483L224.196 123.586C224.769 124.153 225.16 124.874 225.318 125.66C225.476 126.446 225.395 127.261 225.084 128.001C224.774 128.741 224.249 129.374 223.575 129.819C222.902 130.264 222.109 130.502 221.299 130.502Z" fill="#4C241D"/>
<path d="M196.71 114.296C196.172 114.296 195.639 114.192 195.142 113.988C194.645 113.784 194.193 113.486 193.813 113.109L189.715 109.057C188.968 108.293 188.555 107.27 188.564 106.208C188.574 105.145 189.005 104.129 189.765 103.378C190.524 102.627 191.552 102.201 192.627 102.191C193.701 102.182 194.737 102.591 195.509 103.329L199.608 107.38C200.181 107.947 200.571 108.668 200.729 109.454C200.887 110.24 200.806 111.055 200.496 111.795C200.185 112.535 199.66 113.168 198.987 113.613C198.313 114.058 197.521 114.296 196.71 114.296Z" fill="#4C241D"/>
<path d="M178.269 120.373C177.73 120.374 177.197 120.269 176.7 120.065C176.203 119.862 175.751 119.563 175.371 119.186L169.224 113.109C168.478 112.345 168.065 111.321 168.074 110.259C168.083 109.197 168.514 108.181 169.274 107.429C170.034 106.678 171.062 106.252 172.136 106.243C173.211 106.234 174.246 106.642 175.019 107.38L181.166 113.457C181.739 114.024 182.129 114.746 182.287 115.531C182.445 116.317 182.364 117.132 182.054 117.872C181.744 118.612 181.219 119.245 180.545 119.69C179.871 120.135 179.079 120.373 178.269 120.373Z" fill="#4C241D"/>
<path d="M200.808 130.502C200.27 130.503 199.737 130.398 199.24 130.194C198.743 129.99 198.291 129.692 197.911 129.315L193.813 125.263C193.066 124.499 192.653 123.476 192.663 122.414C192.672 121.351 193.103 120.335 193.863 119.584C194.623 118.833 195.65 118.407 196.725 118.397C197.8 118.388 198.835 118.797 199.608 119.535L203.706 123.586C204.279 124.153 204.669 124.874 204.827 125.66C204.985 126.446 204.904 127.261 204.594 128.001C204.284 128.741 203.758 129.374 203.085 129.819C202.411 130.264 201.619 130.502 200.808 130.502Z" fill="#4C241D"/>
<path d="M147.533 110.244C146.994 110.245 146.461 110.14 145.964 109.937C145.467 109.733 145.015 109.434 144.635 109.057L136.439 100.954C135.693 100.19 135.28 99.1668 135.289 98.1045C135.298 97.0422 135.729 96.026 136.489 95.2749C137.249 94.5237 138.277 94.0976 139.351 94.0883C140.426 94.0791 141.461 94.4875 142.234 95.2255L150.43 103.329C151.003 103.895 151.393 104.617 151.551 105.403C151.709 106.189 151.628 107.003 151.318 107.743C151.008 108.483 150.483 109.116 149.809 109.561C149.135 110.007 148.343 110.244 147.533 110.244Z" fill="#4C241D"/>
<path d="M129.091 112.27C128.553 112.271 128.02 112.166 127.523 111.962C127.025 111.759 126.574 111.46 126.194 111.083L120.047 105.006C119.3 104.242 118.887 103.218 118.896 102.156C118.906 101.094 119.337 100.078 120.096 99.3264C120.856 98.5752 121.884 98.1491 122.959 98.1399C124.033 98.1306 125.068 98.539 125.841 99.277L131.988 105.354C132.561 105.921 132.952 106.643 133.11 107.429C133.268 108.214 133.187 109.029 132.876 109.769C132.566 110.509 132.041 111.142 131.367 111.587C130.694 112.032 129.901 112.27 129.091 112.27Z" fill="#4C241D"/>
<path d="M143.435 134.553C142.896 134.554 142.363 134.449 141.866 134.246C141.369 134.042 140.917 133.743 140.537 133.366L132.341 125.263C131.594 124.499 131.181 123.476 131.191 122.414C131.2 121.351 131.631 120.335 132.391 119.584C133.151 118.833 134.179 118.407 135.253 118.397C136.328 118.388 137.363 118.797 138.136 119.535L146.332 127.638C146.905 128.204 147.295 128.926 147.453 129.712C147.611 130.498 147.53 131.312 147.22 132.052C146.91 132.792 146.385 133.425 145.711 133.87C145.037 134.316 144.245 134.553 143.435 134.553Z" fill="#4C241D"/>
<path d="M155.729 130.502C155.191 130.503 154.658 130.398 154.16 130.194C153.663 129.99 153.212 129.692 152.832 129.315L148.733 125.263C147.987 124.499 147.574 123.476 147.583 122.414C147.592 121.351 148.023 120.335 148.783 119.584C149.543 118.833 150.571 118.407 151.646 118.397C152.72 118.388 153.755 118.797 154.528 119.535L158.626 123.586C159.199 124.153 159.589 124.874 159.747 125.66C159.906 126.446 159.824 127.261 159.514 128.001C159.204 128.741 158.679 129.374 158.005 129.819C157.331 130.264 156.539 130.502 155.729 130.502Z" fill="#4C241D"/>
<path d="M180.318 102.141C179.78 102.142 179.247 102.037 178.749 101.834C178.252 101.63 177.8 101.331 177.42 100.954L173.322 96.9028C172.576 96.1387 172.163 95.1153 172.172 94.053C172.181 92.9907 172.612 91.9745 173.372 91.2233C174.132 90.4722 175.16 90.0461 176.234 90.0368C177.309 90.0276 178.344 90.436 179.117 91.174L183.215 95.2255C183.788 95.7921 184.178 96.5139 184.336 97.2997C184.494 98.0855 184.413 98.9 184.103 99.6402C183.793 100.38 183.268 101.013 182.594 101.458C181.92 101.904 181.128 102.141 180.318 102.141Z" fill="#4C241D"/>
<path d="M180.318 146.708C179.78 146.709 179.247 146.604 178.749 146.4C178.252 146.196 177.8 145.898 177.42 145.521L169.224 137.418C168.478 136.654 168.065 135.63 168.074 134.568C168.083 133.506 168.514 132.49 169.274 131.738C170.034 130.987 171.062 130.561 172.136 130.552C173.211 130.543 174.246 130.951 175.019 131.689L183.215 139.792C183.788 140.359 184.178 141.081 184.336 141.866C184.494 142.652 184.413 143.467 184.103 144.207C183.793 144.947 183.268 145.58 182.594 146.025C181.92 146.47 181.128 146.708 180.318 146.708Z" fill="#4C241D"/>
<path d="M163.925 158.862C163.115 158.862 162.323 158.625 161.649 158.179C160.975 157.734 160.45 157.102 160.14 156.361C159.83 155.621 159.749 154.807 159.907 154.021C160.065 153.235 160.455 152.513 161.028 151.947L165.126 147.895C165.899 147.157 166.934 146.749 168.009 146.758C169.083 146.767 170.111 147.193 170.871 147.944C171.631 148.696 172.062 149.712 172.071 150.774C172.08 151.836 171.667 152.86 170.921 153.624L166.823 157.675C166.443 158.052 165.991 158.351 165.494 158.555C164.997 158.758 164.463 158.863 163.925 158.862V158.862Z" fill="#4C241D"/>
<path d="M155.729 146.708C154.919 146.708 154.126 146.47 153.453 146.025C152.779 145.58 152.254 144.947 151.944 144.207C151.634 143.467 151.552 142.652 151.71 141.866C151.868 141.08 152.259 140.359 152.832 139.792L156.93 135.741C157.703 135.003 158.738 134.594 159.812 134.603C160.887 134.613 161.915 135.039 162.675 135.79C163.434 136.541 163.865 137.557 163.875 138.62C163.884 139.682 163.471 140.705 162.724 141.469L158.626 145.521C158.246 145.898 157.795 146.196 157.297 146.4C156.8 146.604 156.267 146.708 155.729 146.708Z" fill="#4C241D"/>
<path d="M225.397 150.759C224.587 150.759 223.795 150.522 223.121 150.076C222.447 149.631 221.922 148.998 221.612 148.258C221.302 147.518 221.221 146.704 221.379 145.918C221.537 145.132 221.927 144.41 222.5 143.844L230.696 135.741C231.469 135.003 232.504 134.594 233.579 134.603C234.653 134.613 235.681 135.039 236.441 135.79C237.201 136.541 237.632 137.557 237.641 138.62C237.65 139.682 237.237 140.705 236.491 141.469L228.295 149.572C227.915 149.949 227.463 150.248 226.966 150.452C226.468 150.655 225.935 150.76 225.397 150.759Z" fill="#4C241D"/>
<path d="M204.907 150.759C204.096 150.759 203.304 150.522 202.63 150.076C201.956 149.631 201.431 148.998 201.121 148.258C200.811 147.518 200.73 146.704 200.888 145.918C201.046 145.132 201.436 144.41 202.009 143.844L210.205 135.741C210.978 135.003 212.014 134.594 213.088 134.603C214.163 134.613 215.19 135.039 215.95 135.79C216.71 136.541 217.141 137.557 217.15 138.62C217.16 139.682 216.747 140.705 216 141.469L207.804 149.572C207.424 149.949 206.972 150.248 206.475 150.452C205.978 150.655 205.445 150.76 204.907 150.759V150.759Z" fill="#4C241D"/>
<path d="M236.811 93.0103H233.593C232.507 93.0103 231.464 92.5835 230.696 91.8237C229.927 91.0639 229.495 90.0334 229.495 88.9588C229.495 87.8843 229.927 86.8538 230.696 86.094C231.464 85.3342 232.507 84.9073 233.593 84.9073H236.811C239.218 84.9049 241.525 83.9588 243.227 82.2765C244.928 80.5943 245.885 78.3133 245.888 75.9343V70.5984C245.885 68.2196 244.928 65.9389 243.226 64.2568C241.525 62.5748 239.218 61.6288 236.811 61.6264H233.593V63.6521C233.591 66.3376 232.51 68.9124 230.59 70.8113C228.669 72.7102 226.064 73.7782 223.348 73.7809H219.25C216.533 73.7809 213.927 72.7138 212.005 70.8143C210.084 68.9147 209.005 66.3385 209.005 63.6521C209.005 60.9658 210.084 58.3895 212.005 56.49C213.927 54.5905 216.533 53.5234 219.25 53.5234H225.397V41.3689C225.397 40.2944 225.829 39.2638 226.597 38.504C227.366 37.7442 228.408 37.3174 229.495 37.3174C230.582 37.3174 231.625 37.7442 232.393 38.504C233.162 39.2638 233.593 40.2944 233.593 41.3689V53.5234H236.811C241.391 53.5282 245.781 55.3287 249.019 58.5298C252.257 61.7309 254.079 66.0712 254.084 70.5984V75.9343C254.079 80.4616 252.258 84.8022 249.02 88.0035C245.781 91.2049 241.391 93.0055 236.811 93.0103V93.0103ZM219.25 61.6264C218.707 61.6264 218.185 61.8398 217.801 62.2197C217.417 62.5996 217.201 63.1149 217.201 63.6521C217.201 64.1894 217.417 64.7047 217.801 65.0846C218.185 65.4645 218.707 65.6779 219.25 65.6779H223.348C223.892 65.6779 224.413 65.4645 224.797 65.0846C225.181 64.7047 225.397 64.1894 225.397 63.6521V61.6264H219.25Z" fill="#4C241D"/>
<mask id="path-35-outside-1" maskUnits="userSpaceOnUse" x="287" y="83" width="768" height="153" fill="black">
<rect fill="white" x="287" y="83" width="768" height="153"/>
<path d="M296 93.4435C302.258 92.5747 308.242 91.9774 313.952 91.6516C319.661 91.2172 324.547 91 328.609 91C338.271 91 347.165 92.3032 355.29 94.9096C363.414 97.516 370.551 102.186 376.7 108.919C382.299 115.218 386.471 122.874 389.216 131.888C391.961 140.794 393.334 150.405 393.334 160.722C393.334 170.822 392.016 179.998 389.381 188.252C386.746 196.506 382.684 203.565 377.194 209.429C371.814 215.294 365.006 219.855 356.772 223.113C348.537 226.371 338.82 228 327.621 228C325.096 228 320.978 227.891 315.269 227.674C309.67 227.457 303.466 226.968 296.659 226.208C296.769 221.212 296.823 216.38 296.823 211.71C296.933 206.931 296.988 202.262 296.988 197.7C297.098 193.031 297.153 188.361 297.153 183.691C297.153 179.021 297.153 174.188 297.153 169.193C297.153 154.966 297.043 141.337 296.823 128.304C296.714 115.272 296.439 103.652 296 93.4435ZM327.95 118.042C326.853 118.042 325.809 118.096 324.821 118.205C323.943 118.313 323.065 118.422 322.186 118.53C322.076 123.635 322.022 128.739 322.022 133.843C322.022 138.839 322.022 143.889 322.022 148.993C322.022 151.491 322.022 154.151 322.022 156.975C322.131 159.799 322.186 162.731 322.186 165.772C322.296 168.704 322.406 171.69 322.516 174.731C322.625 177.663 322.68 180.433 322.68 183.039C323.668 183.256 324.657 183.419 325.645 183.528C326.633 183.528 327.511 183.528 328.28 183.528C332.342 183.528 336.075 182.659 339.479 180.922C342.992 179.184 346.012 176.849 348.537 173.917C351.172 170.876 353.203 167.346 354.631 163.328C356.058 159.31 356.772 155.02 356.772 150.459C356.772 147.092 356.278 143.509 355.29 139.707C354.411 135.798 352.819 132.268 350.513 129.119C348.318 125.969 345.353 123.363 341.62 121.3C337.997 119.128 333.44 118.042 327.95 118.042Z"/>
<path d="M394.062 226.208C393.184 221.538 392.744 216.488 392.744 211.058C392.744 207.692 392.909 204.542 393.238 201.61C393.568 198.678 394.007 195.746 394.556 192.813L440.505 122.114H397.685C397.356 120.268 397.081 118.259 396.862 116.087C396.752 113.915 396.697 111.688 396.697 109.408C396.697 106.476 396.807 103.598 397.026 100.774C397.246 97.8419 397.575 95.2354 398.015 92.9548H471.468C471.687 94.9096 471.852 96.9188 471.962 98.9822C472.181 101.046 472.291 103.272 472.291 105.661C472.291 107.507 472.236 109.625 472.127 112.014C472.017 114.295 471.797 117.336 471.468 121.137L425.518 191.51H472.456C472.895 194.008 473.17 196.777 473.279 199.818C473.499 202.75 473.609 205.791 473.609 208.941C473.609 212.199 473.499 215.348 473.279 218.389C473.17 221.321 472.895 223.927 472.456 226.208H394.062Z"/>
<path d="M491.702 180.107V153.717C491.702 146.767 491.647 140.848 491.537 135.961C491.537 131.074 491.537 126.567 491.537 122.44H479.35C479.24 119.942 479.13 117.499 479.021 115.109C478.911 112.72 478.856 110.277 478.856 107.779C478.856 105.281 478.911 102.783 479.021 100.285C479.13 97.7876 479.24 95.344 479.35 92.9548H530.075C530.185 95.4526 530.24 97.9505 530.24 100.448C530.24 102.837 530.24 105.281 530.24 107.779C530.24 110.277 530.24 112.72 530.24 115.109C530.24 117.499 530.185 119.942 530.075 122.44H518.053C517.833 129.716 517.669 136.884 517.559 143.943C517.559 151.002 517.559 158.876 517.559 167.564V180.107H530.075C530.185 184.017 530.24 187.872 530.24 191.673C530.24 195.474 530.24 199.329 530.24 203.239C530.24 207.04 530.24 210.895 530.24 214.805C530.24 218.606 530.185 222.407 530.075 226.208H479.35C479.24 222.407 479.13 218.606 479.021 214.805C478.911 210.895 478.856 207.04 478.856 203.239C478.856 199.329 478.911 195.474 479.021 191.673C479.13 187.872 479.24 184.017 479.35 180.107H491.702Z"/>
<path d="M568.361 92.9548C568.032 99.4709 567.758 105.227 567.538 110.222C567.428 115.218 567.318 119.996 567.209 124.558C567.099 129.119 566.989 133.843 566.879 138.73C566.879 143.509 566.879 148.993 566.879 155.183H567.538L596.853 92.7919H627.486L595.206 157.79L629.463 226.208H598.665L567.538 161.699H566.879C566.879 165.717 566.879 170.279 566.879 175.383C566.879 180.487 566.879 185.863 566.879 191.51C566.989 197.049 567.044 202.805 567.044 208.778C567.154 214.642 567.209 220.452 567.209 226.208H538.223C538.332 221.43 538.442 216.488 538.552 211.384C538.662 206.171 538.772 200.578 538.881 194.605C538.991 188.524 539.046 182.008 539.046 175.057C539.046 167.998 539.046 160.233 539.046 151.762C539.046 144.377 539.046 138.133 539.046 133.029C539.046 127.816 538.991 123.092 538.881 118.856C538.881 114.621 538.881 110.548 538.881 106.639C538.881 102.62 538.881 98.0591 538.881 92.9548H568.361Z"/>
<path d="M641.92 180.107V153.717C641.92 146.767 641.865 140.848 641.755 135.961C641.755 131.074 641.755 126.567 641.755 122.44H629.568C629.458 119.942 629.349 117.499 629.239 115.109C629.129 112.72 629.074 110.277 629.074 107.779C629.074 105.281 629.129 102.783 629.239 100.285C629.349 97.7876 629.458 95.344 629.568 92.9548H680.294C680.404 95.4526 680.458 97.9505 680.458 100.448C680.458 102.837 680.458 105.281 680.458 107.779C680.458 110.277 680.458 112.72 680.458 115.109C680.458 117.499 680.404 119.942 680.294 122.44H668.271C668.052 129.716 667.887 136.884 667.777 143.943C667.777 151.002 667.777 158.876 667.777 167.564V180.107H680.294C680.404 184.017 680.458 187.872 680.458 191.673C680.458 195.474 680.458 199.329 680.458 203.239C680.458 207.04 680.458 210.895 680.458 214.805C680.458 218.606 680.404 222.407 680.294 226.208H629.568C629.458 222.407 629.349 218.606 629.239 214.805C629.129 210.895 629.074 207.04 629.074 203.239C629.074 199.329 629.129 195.474 629.239 191.673C629.349 187.872 629.458 184.017 629.568 180.107H641.92Z"/>
<path d="M708.537 93.4435C714.796 92.5747 720.78 91.9774 726.489 91.6516C732.198 91.2172 737.084 91 741.147 91C750.809 91 759.702 92.3032 767.827 94.9096C775.952 97.516 783.088 102.186 789.237 108.919C794.837 115.218 799.009 122.874 801.754 131.888C804.499 140.794 805.871 150.405 805.871 160.722C805.871 170.822 804.553 179.998 801.918 188.252C799.283 196.506 795.221 203.565 789.731 209.429C784.351 215.294 777.544 219.855 769.309 223.113C761.074 226.371 751.358 228 740.158 228C737.633 228 733.516 227.891 727.806 227.674C722.207 227.457 716.003 226.968 709.196 226.208C709.306 221.212 709.361 216.38 709.361 211.71C709.471 206.931 709.525 202.262 709.525 197.7C709.635 193.031 709.69 188.361 709.69 183.691C709.69 179.021 709.69 174.188 709.69 169.193C709.69 154.966 709.58 141.337 709.361 128.304C709.251 115.272 708.976 103.652 708.537 93.4435ZM740.488 118.042C739.39 118.042 738.347 118.096 737.359 118.205C736.48 118.313 735.602 118.422 734.724 118.53C734.614 123.635 734.559 128.739 734.559 133.843C734.559 138.839 734.559 143.889 734.559 148.993C734.559 151.491 734.559 154.151 734.559 156.975C734.669 159.799 734.724 162.731 734.724 165.772C734.833 168.704 734.943 171.69 735.053 174.731C735.163 177.663 735.218 180.433 735.218 183.039C736.206 183.256 737.194 183.419 738.182 183.528C739.17 183.528 740.049 183.528 740.817 183.528C744.88 183.528 748.613 182.659 752.016 180.922C755.53 179.184 758.549 176.849 761.074 173.917C763.71 170.876 765.741 167.346 767.168 163.328C768.595 159.31 769.309 155.02 769.309 150.459C769.309 147.092 768.815 143.509 767.827 139.707C766.949 135.798 765.356 132.268 763.051 129.119C760.855 125.969 757.89 123.363 754.157 121.3C750.534 119.128 745.978 118.042 740.488 118.042Z"/>
<path d="M806.599 226.208C805.721 221.538 805.282 216.488 805.282 211.058C805.282 207.692 805.446 204.542 805.776 201.61C806.105 198.678 806.544 195.746 807.093 192.813L853.043 122.114H810.223C809.893 120.268 809.619 118.259 809.399 116.087C809.289 113.915 809.234 111.688 809.234 109.408C809.234 106.476 809.344 103.598 809.564 100.774C809.783 97.8419 810.113 95.2354 810.552 92.9548H884.005C884.225 94.9096 884.389 96.9188 884.499 98.9822C884.719 101.046 884.829 103.272 884.829 105.661C884.829 107.507 884.774 109.625 884.664 112.014C884.554 114.295 884.335 117.336 884.005 121.137L838.056 191.51H884.993C885.432 194.008 885.707 196.777 885.817 199.818C886.036 202.75 886.146 205.791 886.146 208.941C886.146 212.199 886.036 215.348 885.817 218.389C885.707 221.321 885.432 223.927 884.993 226.208H806.599Z"/>
<path d="M904.239 180.107V153.717C904.239 146.767 904.184 140.848 904.075 135.961C904.075 131.074 904.075 126.567 904.075 122.44H891.887C891.777 119.942 891.668 117.499 891.558 115.109C891.448 112.72 891.393 110.277 891.393 107.779C891.393 105.281 891.448 102.783 891.558 100.285C891.668 97.7876 891.777 95.344 891.887 92.9548H942.613C942.723 95.4526 942.777 97.9505 942.777 100.448C942.777 102.837 942.777 105.281 942.777 107.779C942.777 110.277 942.777 112.72 942.777 115.109C942.777 117.499 942.723 119.942 942.613 122.44H930.59C930.371 129.716 930.206 136.884 930.096 143.943C930.096 151.002 930.096 158.876 930.096 167.564V180.107H942.613C942.723 184.017 942.777 187.872 942.777 191.673C942.777 195.474 942.777 199.329 942.777 203.239C942.777 207.04 942.777 210.895 942.777 214.805C942.777 218.606 942.723 222.407 942.613 226.208H891.887C891.777 222.407 891.668 218.606 891.558 214.805C891.448 210.895 891.393 207.04 891.393 203.239C891.393 199.329 891.448 195.474 891.558 191.673C891.668 187.872 891.777 184.017 891.887 180.107H904.239Z"/>
<path d="M980.899 92.9548C980.569 99.4709 980.295 105.227 980.075 110.222C979.966 115.218 979.856 119.996 979.746 124.558C979.636 129.119 979.526 133.843 979.417 138.73C979.417 143.509 979.417 148.993 979.417 155.183H980.075L1009.39 92.7919H1040.02L1007.74 157.79L1042 226.208H1011.2L980.075 161.699H979.417C979.417 165.717 979.417 170.279 979.417 175.383C979.417 180.487 979.417 185.863 979.417 191.51C979.526 197.049 979.581 202.805 979.581 208.778C979.691 214.642 979.746 220.452 979.746 226.208H950.76C950.87 221.43 950.98 216.488 951.089 211.384C951.199 206.171 951.309 200.578 951.419 194.605C951.529 188.524 951.583 182.008 951.583 175.057C951.583 167.998 951.583 160.233 951.583 151.762C951.583 144.377 951.583 138.133 951.583 133.029C951.583 127.816 951.529 123.092 951.419 118.856C951.419 114.621 951.419 110.548 951.419 106.639C951.419 102.62 951.419 98.0591 951.419 92.9548H980.899Z"/>
</mask>
<path d="M296 93.4435C302.258 92.5747 308.242 91.9774 313.952 91.6516C319.661 91.2172 324.547 91 328.609 91C338.271 91 347.165 92.3032 355.29 94.9096C363.414 97.516 370.551 102.186 376.7 108.919C382.299 115.218 386.471 122.874 389.216 131.888C391.961 140.794 393.334 150.405 393.334 160.722C393.334 170.822 392.016 179.998 389.381 188.252C386.746 196.506 382.684 203.565 377.194 209.429C371.814 215.294 365.006 219.855 356.772 223.113C348.537 226.371 338.82 228 327.621 228C325.096 228 320.978 227.891 315.269 227.674C309.67 227.457 303.466 226.968 296.659 226.208C296.769 221.212 296.823 216.38 296.823 211.71C296.933 206.931 296.988 202.262 296.988 197.7C297.098 193.031 297.153 188.361 297.153 183.691C297.153 179.021 297.153 174.188 297.153 169.193C297.153 154.966 297.043 141.337 296.823 128.304C296.714 115.272 296.439 103.652 296 93.4435ZM327.95 118.042C326.853 118.042 325.809 118.096 324.821 118.205C323.943 118.313 323.065 118.422 322.186 118.53C322.076 123.635 322.022 128.739 322.022 133.843C322.022 138.839 322.022 143.889 322.022 148.993C322.022 151.491 322.022 154.151 322.022 156.975C322.131 159.799 322.186 162.731 322.186 165.772C322.296 168.704 322.406 171.69 322.516 174.731C322.625 177.663 322.68 180.433 322.68 183.039C323.668 183.256 324.657 183.419 325.645 183.528C326.633 183.528 327.511 183.528 328.28 183.528C332.342 183.528 336.075 182.659 339.479 180.922C342.992 179.184 346.012 176.849 348.537 173.917C351.172 170.876 353.203 167.346 354.631 163.328C356.058 159.31 356.772 155.02 356.772 150.459C356.772 147.092 356.278 143.509 355.29 139.707C354.411 135.798 352.819 132.268 350.513 129.119C348.318 125.969 345.353 123.363 341.62 121.3C337.997 119.128 333.44 118.042 327.95 118.042Z" fill="#B5A19C"/>
<path d="M394.062 226.208C393.184 221.538 392.744 216.488 392.744 211.058C392.744 207.692 392.909 204.542 393.238 201.61C393.568 198.678 394.007 195.746 394.556 192.813L440.505 122.114H397.685C397.356 120.268 397.081 118.259 396.862 116.087C396.752 113.915 396.697 111.688 396.697 109.408C396.697 106.476 396.807 103.598 397.026 100.774C397.246 97.8419 397.575 95.2354 398.015 92.9548H471.468C471.687 94.9096 471.852 96.9188 471.962 98.9822C472.181 101.046 472.291 103.272 472.291 105.661C472.291 107.507 472.236 109.625 472.127 112.014C472.017 114.295 471.797 117.336 471.468 121.137L425.518 191.51H472.456C472.895 194.008 473.17 196.777 473.279 199.818C473.499 202.75 473.609 205.791 473.609 208.941C473.609 212.199 473.499 215.348 473.279 218.389C473.17 221.321 472.895 223.927 472.456 226.208H394.062Z" fill="#B5A19C"/>
<path d="M491.702 180.107V153.717C491.702 146.767 491.647 140.848 491.537 135.961C491.537 131.074 491.537 126.567 491.537 122.44H479.35C479.24 119.942 479.13 117.499 479.021 115.109C478.911 112.72 478.856 110.277 478.856 107.779C478.856 105.281 478.911 102.783 479.021 100.285C479.13 97.7876 479.24 95.344 479.35 92.9548H530.075C530.185 95.4526 530.24 97.9505 530.24 100.448C530.24 102.837 530.24 105.281 530.24 107.779C530.24 110.277 530.24 112.72 530.24 115.109C530.24 117.499 530.185 119.942 530.075 122.44H518.053C517.833 129.716 517.669 136.884 517.559 143.943C517.559 151.002 517.559 158.876 517.559 167.564V180.107H530.075C530.185 184.017 530.24 187.872 530.24 191.673C530.24 195.474 530.24 199.329 530.24 203.239C530.24 207.04 530.24 210.895 530.24 214.805C530.24 218.606 530.185 222.407 530.075 226.208H479.35C479.24 222.407 479.13 218.606 479.021 214.805C478.911 210.895 478.856 207.04 478.856 203.239C478.856 199.329 478.911 195.474 479.021 191.673C479.13 187.872 479.24 184.017 479.35 180.107H491.702Z" fill="#B5A19C"/>
<path d="M568.361 92.9548C568.032 99.4709 567.758 105.227 567.538 110.222C567.428 115.218 567.318 119.996 567.209 124.558C567.099 129.119 566.989 133.843 566.879 138.73C566.879 143.509 566.879 148.993 566.879 155.183H567.538L596.853 92.7919H627.486L595.206 157.79L629.463 226.208H598.665L567.538 161.699H566.879C566.879 165.717 566.879 170.279 566.879 175.383C566.879 180.487 566.879 185.863 566.879 191.51C566.989 197.049 567.044 202.805 567.044 208.778C567.154 214.642 567.209 220.452 567.209 226.208H538.223C538.332 221.43 538.442 216.488 538.552 211.384C538.662 206.171 538.772 200.578 538.881 194.605C538.991 188.524 539.046 182.008 539.046 175.057C539.046 167.998 539.046 160.233 539.046 151.762C539.046 144.377 539.046 138.133 539.046 133.029C539.046 127.816 538.991 123.092 538.881 118.856C538.881 114.621 538.881 110.548 538.881 106.639C538.881 102.62 538.881 98.0591 538.881 92.9548H568.361Z" fill="#B5A19C"/>
<path d="M641.92 180.107V153.717C641.92 146.767 641.865 140.848 641.755 135.961C641.755 131.074 641.755 126.567 641.755 122.44H629.568C629.458 119.942 629.349 117.499 629.239 115.109C629.129 112.72 629.074 110.277 629.074 107.779C629.074 105.281 629.129 102.783 629.239 100.285C629.349 97.7876 629.458 95.344 629.568 92.9548H680.294C680.404 95.4526 680.458 97.9505 680.458 100.448C680.458 102.837 680.458 105.281 680.458 107.779C680.458 110.277 680.458 112.72 680.458 115.109C680.458 117.499 680.404 119.942 680.294 122.44H668.271C668.052 129.716 667.887 136.884 667.777 143.943C667.777 151.002 667.777 158.876 667.777 167.564V180.107H680.294C680.404 184.017 680.458 187.872 680.458 191.673C680.458 195.474 680.458 199.329 680.458 203.239C680.458 207.04 680.458 210.895 680.458 214.805C680.458 218.606 680.404 222.407 680.294 226.208H629.568C629.458 222.407 629.349 218.606 629.239 214.805C629.129 210.895 629.074 207.04 629.074 203.239C629.074 199.329 629.129 195.474 629.239 191.673C629.349 187.872 629.458 184.017 629.568 180.107H641.92Z" fill="#B5A19C"/>
<path d="M708.537 93.4435C714.796 92.5747 720.78 91.9774 726.489 91.6516C732.198 91.2172 737.084 91 741.147 91C750.809 91 759.702 92.3032 767.827 94.9096C775.952 97.516 783.088 102.186 789.237 108.919C794.837 115.218 799.009 122.874 801.754 131.888C804.499 140.794 805.871 150.405 805.871 160.722C805.871 170.822 804.553 179.998 801.918 188.252C799.283 196.506 795.221 203.565 789.731 209.429C784.351 215.294 777.544 219.855 769.309 223.113C761.074 226.371 751.358 228 740.158 228C737.633 228 733.516 227.891 727.806 227.674C722.207 227.457 716.003 226.968 709.196 226.208C709.306 221.212 709.361 216.38 709.361 211.71C709.471 206.931 709.525 202.262 709.525 197.7C709.635 193.031 709.69 188.361 709.69 183.691C709.69 179.021 709.69 174.188 709.69 169.193C709.69 154.966 709.58 141.337 709.361 128.304C709.251 115.272 708.976 103.652 708.537 93.4435ZM740.488 118.042C739.39 118.042 738.347 118.096 737.359 118.205C736.48 118.313 735.602 118.422 734.724 118.53C734.614 123.635 734.559 128.739 734.559 133.843C734.559 138.839 734.559 143.889 734.559 148.993C734.559 151.491 734.559 154.151 734.559 156.975C734.669 159.799 734.724 162.731 734.724 165.772C734.833 168.704 734.943 171.69 735.053 174.731C735.163 177.663 735.218 180.433 735.218 183.039C736.206 183.256 737.194 183.419 738.182 183.528C739.17 183.528 740.049 183.528 740.817 183.528C744.88 183.528 748.613 182.659 752.016 180.922C755.53 179.184 758.549 176.849 761.074 173.917C763.71 170.876 765.741 167.346 767.168 163.328C768.595 159.31 769.309 155.02 769.309 150.459C769.309 147.092 768.815 143.509 767.827 139.707C766.949 135.798 765.356 132.268 763.051 129.119C760.855 125.969 757.89 123.363 754.157 121.3C750.534 119.128 745.978 118.042 740.488 118.042Z" fill="#B5A19C"/>
<path d="M806.599 226.208C805.721 221.538 805.282 216.488 805.282 211.058C805.282 207.692 805.446 204.542 805.776 201.61C806.105 198.678 806.544 195.746 807.093 192.813L853.043 122.114H810.223C809.893 120.268 809.619 118.259 809.399 116.087C809.289 113.915 809.234 111.688 809.234 109.408C809.234 106.476 809.344 103.598 809.564 100.774C809.783 97.8419 810.113 95.2354 810.552 92.9548H884.005C884.225 94.9096 884.389 96.9188 884.499 98.9822C884.719 101.046 884.829 103.272 884.829 105.661C884.829 107.507 884.774 109.625 884.664 112.014C884.554 114.295 884.335 117.336 884.005 121.137L838.056 191.51H884.993C885.432 194.008 885.707 196.777 885.817 199.818C886.036 202.75 886.146 205.791 886.146 208.941C886.146 212.199 886.036 215.348 885.817 218.389C885.707 221.321 885.432 223.927 884.993 226.208H806.599Z" fill="#B5A19C"/>
<path d="M904.239 180.107V153.717C904.239 146.767 904.184 140.848 904.075 135.961C904.075 131.074 904.075 126.567 904.075 122.44H891.887C891.777 119.942 891.668 117.499 891.558 115.109C891.448 112.72 891.393 110.277 891.393 107.779C891.393 105.281 891.448 102.783 891.558 100.285C891.668 97.7876 891.777 95.344 891.887 92.9548H942.613C942.723 95.4526 942.777 97.9505 942.777 100.448C942.777 102.837 942.777 105.281 942.777 107.779C942.777 110.277 942.777 112.72 942.777 115.109C942.777 117.499 942.723 119.942 942.613 122.44H930.59C930.371 129.716 930.206 136.884 930.096 143.943C930.096 151.002 930.096 158.876 930.096 167.564V180.107H942.613C942.723 184.017 942.777 187.872 942.777 191.673C942.777 195.474 942.777 199.329 942.777 203.239C942.777 207.04 942.777 210.895 942.777 214.805C942.777 218.606 942.723 222.407 942.613 226.208H891.887C891.777 222.407 891.668 218.606 891.558 214.805C891.448 210.895 891.393 207.04 891.393 203.239C891.393 199.329 891.448 195.474 891.558 191.673C891.668 187.872 891.777 184.017 891.887 180.107H904.239Z" fill="#B5A19C"/>
<path d="M980.899 92.9548C980.569 99.4709 980.295 105.227 980.075 110.222C979.966 115.218 979.856 119.996 979.746 124.558C979.636 129.119 979.526 133.843 979.417 138.73C979.417 143.509 979.417 148.993 979.417 155.183H980.075L1009.39 92.7919H1040.02L1007.74 157.79L1042 226.208H1011.2L980.075 161.699H979.417C979.417 165.717 979.417 170.279 979.417 175.383C979.417 180.487 979.417 185.863 979.417 191.51C979.526 197.049 979.581 202.805 979.581 208.778C979.691 214.642 979.746 220.452 979.746 226.208H950.76C950.87 221.43 950.98 216.488 951.089 211.384C951.199 206.171 951.309 200.578 951.419 194.605C951.529 188.524 951.583 182.008 951.583 175.057C951.583 167.998 951.583 160.233 951.583 151.762C951.583 144.377 951.583 138.133 951.583 133.029C951.583 127.816 951.529 123.092 951.419 118.856C951.419 114.621 951.419 110.548 951.419 106.639C951.419 102.62 951.419 98.0591 951.419 92.9548H980.899Z" fill="#B5A19C"/>
<path d="M296 93.4435C302.258 92.5747 308.242 91.9774 313.952 91.6516C319.661 91.2172 324.547 91 328.609 91C338.271 91 347.165 92.3032 355.29 94.9096C363.414 97.516 370.551 102.186 376.7 108.919C382.299 115.218 386.471 122.874 389.216 131.888C391.961 140.794 393.334 150.405 393.334 160.722C393.334 170.822 392.016 179.998 389.381 188.252C386.746 196.506 382.684 203.565 377.194 209.429C371.814 215.294 365.006 219.855 356.772 223.113C348.537 226.371 338.82 228 327.621 228C325.096 228 320.978 227.891 315.269 227.674C309.67 227.457 303.466 226.968 296.659 226.208C296.769 221.212 296.823 216.38 296.823 211.71C296.933 206.931 296.988 202.262 296.988 197.7C297.098 193.031 297.153 188.361 297.153 183.691C297.153 179.021 297.153 174.188 297.153 169.193C297.153 154.966 297.043 141.337 296.823 128.304C296.714 115.272 296.439 103.652 296 93.4435ZM327.95 118.042C326.853 118.042 325.809 118.096 324.821 118.205C323.943 118.313 323.065 118.422 322.186 118.53C322.076 123.635 322.022 128.739 322.022 133.843C322.022 138.839 322.022 143.889 322.022 148.993C322.022 151.491 322.022 154.151 322.022 156.975C322.131 159.799 322.186 162.731 322.186 165.772C322.296 168.704 322.406 171.69 322.516 174.731C322.625 177.663 322.68 180.433 322.68 183.039C323.668 183.256 324.657 183.419 325.645 183.528C326.633 183.528 327.511 183.528 328.28 183.528C332.342 183.528 336.075 182.659 339.479 180.922C342.992 179.184 346.012 176.849 348.537 173.917C351.172 170.876 353.203 167.346 354.631 163.328C356.058 159.31 356.772 155.02 356.772 150.459C356.772 147.092 356.278 143.509 355.29 139.707C354.411 135.798 352.819 132.268 350.513 129.119C348.318 125.969 345.353 123.363 341.62 121.3C337.997 119.128 333.44 118.042 327.95 118.042Z" stroke="#553130" stroke-width="16" mask="url(#path-35-outside-1)"/>
<path d="M394.062 226.208C393.184 221.538 392.744 216.488 392.744 211.058C392.744 207.692 392.909 204.542 393.238 201.61C393.568 198.678 394.007 195.746 394.556 192.813L440.505 122.114H397.685C397.356 120.268 397.081 118.259 396.862 116.087C396.752 113.915 396.697 111.688 396.697 109.408C396.697 106.476 396.807 103.598 397.026 100.774C397.246 97.8419 397.575 95.2354 398.015 92.9548H471.468C471.687 94.9096 471.852 96.9188 471.962 98.9822C472.181 101.046 472.291 103.272 472.291 105.661C472.291 107.507 472.236 109.625 472.127 112.014C472.017 114.295 471.797 117.336 471.468 121.137L425.518 191.51H472.456C472.895 194.008 473.17 196.777 473.279 199.818C473.499 202.75 473.609 205.791 473.609 208.941C473.609 212.199 473.499 215.348 473.279 218.389C473.17 221.321 472.895 223.927 472.456 226.208H394.062Z" stroke="#553130" stroke-width="16" mask="url(#path-35-outside-1)"/>
<path d="M491.702 180.107V153.717C491.702 146.767 491.647 140.848 491.537 135.961C491.537 131.074 491.537 126.567 491.537 122.44H479.35C479.24 119.942 479.13 117.499 479.021 115.109C478.911 112.72 478.856 110.277 478.856 107.779C478.856 105.281 478.911 102.783 479.021 100.285C479.13 97.7876 479.24 95.344 479.35 92.9548H530.075C530.185 95.4526 530.24 97.9505 530.24 100.448C530.24 102.837 530.24 105.281 530.24 107.779C530.24 110.277 530.24 112.72 530.24 115.109C530.24 117.499 530.185 119.942 530.075 122.44H518.053C517.833 129.716 517.669 136.884 517.559 143.943C517.559 151.002 517.559 158.876 517.559 167.564V180.107H530.075C530.185 184.017 530.24 187.872 530.24 191.673C530.24 195.474 530.24 199.329 530.24 203.239C530.24 207.04 530.24 210.895 530.24 214.805C530.24 218.606 530.185 222.407 530.075 226.208H479.35C479.24 222.407 479.13 218.606 479.021 214.805C478.911 210.895 478.856 207.04 478.856 203.239C478.856 199.329 478.911 195.474 479.021 191.673C479.13 187.872 479.24 184.017 479.35 180.107H491.702Z" stroke="#553130" stroke-width="16" mask="url(#path-35-outside-1)"/>
<path d="M568.361 92.9548C568.032 99.4709 567.758 105.227 567.538 110.222C567.428 115.218 567.318 119.996 567.209 124.558C567.099 129.119 566.989 133.843 566.879 138.73C566.879 143.509 566.879 148.993 566.879 155.183H567.538L596.853 92.7919H627.486L595.206 157.79L629.463 226.208H598.665L567.538 161.699H566.879C566.879 165.717 566.879 170.279 566.879 175.383C566.879 180.487 566.879 185.863 566.879 191.51C566.989 197.049 567.044 202.805 567.044 208.778C567.154 214.642 567.209 220.452 567.209 226.208H538.223C538.332 221.43 538.442 216.488 538.552 211.384C538.662 206.171 538.772 200.578 538.881 194.605C538.991 188.524 539.046 182.008 539.046 175.057C539.046 167.998 539.046 160.233 539.046 151.762C539.046 144.377 539.046 138.133 539.046 133.029C539.046 127.816 538.991 123.092 538.881 118.856C538.881 114.621 538.881 110.548 538.881 106.639C538.881 102.62 538.881 98.0591 538.881 92.9548H568.361Z" stroke="#553130" stroke-width="16" mask="url(#path-35-outside-1)"/>
<path d="M641.92 180.107V153.717C641.92 146.767 641.865 140.848 641.755 135.961C641.755 131.074 641.755 126.567 641.755 122.44H629.568C629.458 119.942 629.349 117.499 629.239 115.109C629.129 112.72 629.074 110.277 629.074 107.779C629.074 105.281 629.129 102.783 629.239 100.285C629.349 97.7876 629.458 95.344 629.568 92.9548H680.294C680.404 95.4526 680.458 97.9505 680.458 100.448C680.458 102.837 680.458 105.281 680.458 107.779C680.458 110.277 680.458 112.72 680.458 115.109C680.458 117.499 680.404 119.942 680.294 122.44H668.271C668.052 129.716 667.887 136.884 667.777 143.943C667.777 151.002 667.777 158.876 667.777 167.564V180.107H680.294C680.404 184.017 680.458 187.872 680.458 191.673C680.458 195.474 680.458 199.329 680.458 203.239C680.458 207.04 680.458 210.895 680.458 214.805C680.458 218.606 680.404 222.407 680.294 226.208H629.568C629.458 222.407 629.349 218.606 629.239 214.805C629.129 210.895 629.074 207.04 629.074 203.239C629.074 199.329 629.129 195.474 629.239 191.673C629.349 187.872 629.458 184.017 629.568 180.107H641.92Z" stroke="#553130" stroke-width="16" mask="url(#path-35-outside-1)"/>
<path d="M708.537 93.4435C714.796 92.5747 720.78 91.9774 726.489 91.6516C732.198 91.2172 737.084 91 741.147 91C750.809 91 759.702 92.3032 767.827 94.9096C775.952 97.516 783.088 102.186 789.237 108.919C794.837 115.218 799.009 122.874 801.754 131.888C804.499 140.794 805.871 150.405 805.871 160.722C805.871 170.822 804.553 179.998 801.918 188.252C799.283 196.506 795.221 203.565 789.731 209.429C784.351 215.294 777.544 219.855 769.309 223.113C761.074 226.371 751.358 228 740.158 228C737.633 228 733.516 227.891 727.806 227.674C722.207 227.457 716.003 226.968 709.196 226.208C709.306 221.212 709.361 216.38 709.361 211.71C709.471 206.931 709.525 202.262 709.525 197.7C709.635 193.031 709.69 188.361 709.69 183.691C709.69 179.021 709.69 174.188 709.69 169.193C709.69 154.966 709.58 141.337 709.361 128.304C709.251 115.272 708.976 103.652 708.537 93.4435ZM740.488 118.042C739.39 118.042 738.347 118.096 737.359 118.205C736.48 118.313 735.602 118.422 734.724 118.53C734.614 123.635 734.559 128.739 734.559 133.843C734.559 138.839 734.559 143.889 734.559 148.993C734.559 151.491 734.559 154.151 734.559 156.975C734.669 159.799 734.724 162.731 734.724 165.772C734.833 168.704 734.943 171.69 735.053 174.731C735.163 177.663 735.218 180.433 735.218 183.039C736.206 183.256 737.194 183.419 738.182 183.528C739.17 183.528 740.049 183.528 740.817 183.528C744.88 183.528 748.613 182.659 752.016 180.922C755.53 179.184 758.549 176.849 761.074 173.917C763.71 170.876 765.741 167.346 767.168 163.328C768.595 159.31 769.309 155.02 769.309 150.459C769.309 147.092 768.815 143.509 767.827 139.707C766.949 135.798 765.356 132.268 763.051 129.119C760.855 125.969 757.89 123.363 754.157 121.3C750.534 119.128 745.978 118.042 740.488 118.042Z" stroke="#553130" stroke-width="16" mask="url(#path-35-outside-1)"/>
<path d="M806.599 226.208C805.721 221.538 805.282 216.488 805.282 211.058C805.282 207.692 805.446 204.542 805.776 201.61C806.105 198.678 806.544 195.746 807.093 192.813L853.043 122.114H810.223C809.893 120.268 809.619 118.259 809.399 116.087C809.289 113.915 809.234 111.688 809.234 109.408C809.234 106.476 809.344 103.598 809.564 100.774C809.783 97.8419 810.113 95.2354 810.552 92.9548H884.005C884.225 94.9096 884.389 96.9188 884.499 98.9822C884.719 101.046 884.829 103.272 884.829 105.661C884.829 107.507 884.774 109.625 884.664 112.014C884.554 114.295 884.335 117.336 884.005 121.137L838.056 191.51H884.993C885.432 194.008 885.707 196.777 885.817 199.818C886.036 202.75 886.146 205.791 886.146 208.941C886.146 212.199 886.036 215.348 885.817 218.389C885.707 221.321 885.432 223.927 884.993 226.208H806.599Z" stroke="#553130" stroke-width="16" mask="url(#path-35-outside-1)"/>
<path d="M904.239 180.107V153.717C904.239 146.767 904.184 140.848 904.075 135.961C904.075 131.074 904.075 126.567 904.075 122.44H891.887C891.777 119.942 891.668 117.499 891.558 115.109C891.448 112.72 891.393 110.277 891.393 107.779C891.393 105.281 891.448 102.783 891.558 100.285C891.668 97.7876 891.777 95.344 891.887 92.9548H942.613C942.723 95.4526 942.777 97.9505 942.777 100.448C942.777 102.837 942.777 105.281 942.777 107.779C942.777 110.277 942.777 112.72 942.777 115.109C942.777 117.499 942.723 119.942 942.613 122.44H930.59C930.371 129.716 930.206 136.884 930.096 143.943C930.096 151.002 930.096 158.876 930.096 167.564V180.107H942.613C942.723 184.017 942.777 187.872 942.777 191.673C942.777 195.474 942.777 199.329 942.777 203.239C942.777 207.04 942.777 210.895 942.777 214.805C942.777 218.606 942.723 222.407 942.613 226.208H891.887C891.777 222.407 891.668 218.606 891.558 214.805C891.448 210.895 891.393 207.04 891.393 203.239C891.393 199.329 891.448 195.474 891.558 191.673C891.668 187.872 891.777 184.017 891.887 180.107H904.239Z" stroke="#553130" stroke-width="16" mask="url(#path-35-outside-1)"/>
<path d="M980.899 92.9548C980.569 99.4709 980.295 105.227 980.075 110.222C979.966 115.218 979.856 119.996 979.746 124.558C979.636 129.119 979.526 133.843 979.417 138.73C979.417 143.509 979.417 148.993 979.417 155.183H980.075L1009.39 92.7919H1040.02L1007.74 157.79L1042 226.208H1011.2L980.075 161.699H979.417C979.417 165.717 979.417 170.279 979.417 175.383C979.417 180.487 979.417 185.863 979.417 191.51C979.526 197.049 979.581 202.805 979.581 208.778C979.691 214.642 979.746 220.452 979.746 226.208H950.76C950.87 221.43 950.98 216.488 951.089 211.384C951.199 206.171 951.309 200.578 951.419 194.605C951.529 188.524 951.583 182.008 951.583 175.057C951.583 167.998 951.583 160.233 951.583 151.762C951.583 144.377 951.583 138.133 951.583 133.029C951.583 127.816 951.529 123.092 951.419 118.856C951.419 114.621 951.419 110.548 951.419 106.639C951.419 102.62 951.419 98.0591 951.419 92.9548H980.899Z" stroke="#553130" stroke-width="16" mask="url(#path-35-outside-1)"/>
</g>
<defs>
<clipPath id="clip0">
<rect width="1052" height="232" fill="white"/>
</clipPath>
</defs>
</svg>
