<svg width="82" height="103" viewBox="0 0 82 103" fill="none" xmlns="http://www.w3.org/2000/svg">
<path d="M59.5 36.2095H68.75C71.2033 36.2095 73.556 37.1186 75.2907 38.7369C77.0255 40.3552 78 42.5501 78 44.8388V89.7111C78 91.9997 77.0255 94.1946 75.2907 95.8129C73.556 97.4312 71.2033 98.3404 68.75 98.3404H13.25C10.7967 98.3404 8.44397 97.4312 6.70926 95.8129C4.97455 94.1946 4 91.9997 4 89.7111V44.8388C4 42.5501 4.97455 40.3552 6.70926 38.7369C8.44397 37.1186 10.7967 36.2095 13.25 36.2095H22.5" stroke="#333333" stroke-width="8" stroke-linecap="round" stroke-linejoin="round"/>
<path d="M41 70.2423L41 8.11138L41 70.2423Z" fill="white"/>
<path d="M59.5 21.9182L41 4.65966L22.5 21.9182M41 70.2423L41 8.11138" stroke="#333333" stroke-width="8" stroke-linecap="round" stroke-linejoin="round"/>
</svg>
