<svg width="17" height="19" viewBox="0 0 17 19" fill="none" xmlns="http://www.w3.org/2000/svg">
<path d="M2.5625 12.25H1.3125C1.13991 12.25 1 12.3899 1 12.5625V18.1875C1 18.3601 1.13991 18.5 1.3125 18.5H2.5625C2.73509 18.5 2.875 18.3601 2.875 18.1875V12.5625C2.875 12.3899 2.73509 12.25 2.5625 12.25Z" stroke="#EEB114" stroke-linecap="round" stroke-linejoin="round"/>
<path d="M11.3125 8.5H10.0625C9.88991 8.5 9.75 8.63991 9.75 8.8125V18.1875C9.75 18.3601 9.88991 18.5 10.0625 18.5H11.3125C11.4851 18.5 11.625 18.3601 11.625 18.1875V8.8125C11.625 8.63991 11.4851 8.5 11.3125 8.5Z" stroke="#EEB114" stroke-linecap="round" stroke-linejoin="round"/>
<path d="M15.6875 4.125H14.4375C14.2649 4.125 14.125 4.26491 14.125 4.4375V18.1875C14.125 18.3601 14.2649 18.5 14.4375 18.5H15.6875C15.8601 18.5 16 18.3601 16 18.1875V4.4375C16 4.26491 15.8601 4.125 15.6875 4.125Z" stroke="#EEB114" stroke-linecap="round" stroke-linejoin="round"/>
<path d="M6.9375 1H5.6875C5.51491 1 5.375 1.13991 5.375 1.3125V18.1875C5.375 18.3601 5.51491 18.5 5.6875 18.5H6.9375C7.11009 18.5 7.25 18.3601 7.25 18.1875V1.3125C7.25 1.13991 7.11009 1 6.9375 1Z" stroke="#EEB114" stroke-linecap="round" stroke-linejoin="round"/>
</svg>
