<svg width="87" height="143" viewBox="0 0 87 143" fill="none" xmlns="http://www.w3.org/2000/svg">
<path d="M36.2601 114.691C42.9588 114.678 49.3778 112.004 54.1051 107.258C58.8324 102.512 61.4807 96.0825 61.4674 89.3838C61.4397 75.4345 22.3108 114.719 36.2601 114.691Z" fill="#E7D1C4"/>
<path d="M55.8812 140.594C56.2695 140.594 56.6538 140.516 57.0123 140.367C57.3707 140.218 57.6962 139.999 57.9702 139.724C58.2442 139.449 58.4613 139.123 58.6091 138.764C58.757 138.405 58.8327 138.02 58.8318 137.632L58.8052 124.205L50.6136 124.221L52.9601 138.13C53.0765 138.82 53.434 139.446 53.9689 139.897C54.5037 140.349 55.1814 140.596 55.8812 140.594Z" fill="#6B4F5B"/>
<path d="M55.8835 141.959C57.0294 141.956 58.1272 141.498 58.936 140.686C59.7447 139.874 60.1984 138.775 60.1973 137.629L60.1707 124.202C60.17 123.84 60.0254 123.493 59.7689 123.238C59.5123 122.982 59.1648 122.839 58.8027 122.84L50.6111 122.856C50.4128 122.856 50.2169 122.9 50.0372 122.984C49.8574 123.067 49.698 123.189 49.5702 123.341C49.4423 123.492 49.349 123.67 49.2967 123.861C49.2444 124.053 49.2344 124.253 49.2674 124.449L51.6136 138.357C51.7812 139.367 52.303 140.284 53.0854 140.944C53.8678 141.604 54.8598 141.964 55.8835 141.959ZM57.4429 125.573L57.4668 137.634C57.4673 138.056 57.3004 138.461 57.0028 138.76C56.7052 139.059 56.3012 139.227 55.8794 139.229C55.5022 139.231 55.1366 139.098 54.8483 138.855C54.5601 138.611 54.368 138.273 54.3067 137.901L52.2289 125.583L57.4429 125.573Z" fill="#4C241D"/>
<path d="M19.0579 140.667L19.9628 140.665C20.384 140.665 20.8002 140.574 21.1835 140.399C21.5668 140.224 21.9083 139.97 22.1852 139.652C22.4621 139.335 22.6679 138.962 22.7889 138.558C22.9098 138.155 22.9432 137.73 22.8867 137.312L21.1228 124.28L12.3851 124.297L16.1968 138.478C16.3659 139.107 16.738 139.663 17.2554 140.059C17.7728 140.455 18.4065 140.669 19.0579 140.667Z" fill="#6B4F5B"/>
<path d="M19.0601 142.033L19.9635 142.031C20.5794 142.03 21.188 141.897 21.7484 141.641C22.3088 141.386 22.8081 141.014 23.2129 140.549C23.6176 140.085 23.9184 139.54 24.0952 138.95C24.2719 138.36 24.3205 137.739 24.2377 137.128L22.4745 124.097C22.4301 123.769 22.2684 123.469 22.0193 123.251C21.7702 123.034 21.4508 122.914 21.1202 122.915L12.3825 122.932C12.1732 122.933 11.9669 122.981 11.7794 123.074C11.592 123.167 11.4284 123.302 11.3013 123.468C11.1742 123.634 11.087 123.827 11.0464 124.033C11.0059 124.238 11.013 124.45 11.0674 124.652L14.8794 138.832C15.1271 139.752 15.671 140.563 16.4268 141.142C17.1827 141.72 18.1082 142.033 19.0601 142.033ZM19.931 125.648L21.5345 137.496C21.5651 137.721 21.5473 137.949 21.4822 138.167C21.4172 138.384 21.3063 138.585 21.1572 138.756C21.0081 138.927 20.8241 139.064 20.6176 139.158C20.4112 139.252 20.187 139.3 19.9601 139.3L19.055 139.302C18.7048 139.302 18.3645 139.186 18.0865 138.973C17.8085 138.76 17.6083 138.462 17.5167 138.124L14.1655 125.659L19.931 125.648Z" fill="#4C241D"/>
<path d="M53.3423 122.849L68.3603 122.82C71.257 122.814 74.0328 121.658 76.0771 119.605C78.1213 117.553 79.2665 114.772 79.2607 111.876L53.3207 111.927L53.3423 122.849Z" fill="#6B4F5B"/>
<path d="M53.3448 124.215L68.3628 124.185C71.6205 124.175 74.7411 122.873 77.0401 120.565C79.3391 118.257 80.6286 115.131 80.6258 111.873C80.625 111.511 80.4805 111.164 80.224 110.908C79.9674 110.653 79.6199 110.51 79.2578 110.511L53.3177 110.562C52.9556 110.563 52.6086 110.707 52.3531 110.964C52.0976 111.22 51.9544 111.568 51.9551 111.93L51.9768 122.852C51.9775 123.214 52.1221 123.561 52.3786 123.817C52.6352 124.072 52.9827 124.215 53.3448 124.215ZM77.8007 113.244C77.474 115.518 76.3403 117.599 74.6066 119.106C72.8728 120.614 70.6547 121.447 68.3573 121.454L54.7047 121.481L54.6884 113.29L77.8007 113.244Z" fill="#4C241D"/>
<path d="M17.8301 116.095L12.388 125.662L17.8301 116.095Z" fill="white"/>
<path d="M12.3906 127.027C12.6315 127.027 12.8681 126.963 13.0763 126.842C13.2845 126.721 13.4569 126.546 13.576 126.337L19.0181 116.769C19.1908 116.455 19.2329 116.085 19.1353 115.74C19.0377 115.395 18.8083 115.102 18.4966 114.925C18.1849 114.748 17.816 114.7 17.4695 114.793C17.123 114.885 16.8268 115.11 16.6449 115.419L11.2029 124.987C11.0847 125.195 11.0231 125.43 11.0242 125.669C11.0254 125.908 11.0893 126.142 11.2096 126.349C11.3298 126.556 11.5022 126.727 11.7094 126.846C11.9167 126.965 12.1516 127.028 12.3906 127.027Z" fill="#4C241D"/>
<path d="M64.2502 116.002L64.2535 117.633C64.2577 119.735 63.4265 121.753 61.943 123.242C60.4594 124.732 58.4449 125.571 56.3426 125.575L49.2509 125.589L49.2746 137.52C49.2902 138.197 49.0796 138.86 48.6764 139.404C48.2731 139.948 47.7 140.343 47.0476 140.525C46.6514 140.625 46.2387 140.642 45.8355 140.575C45.4323 140.508 45.0474 140.358 44.7051 140.135C44.3627 139.911 44.0702 139.62 43.8462 139.278C43.6221 138.936 43.4712 138.551 43.403 138.148L41.2868 125.605L12.3878 125.662L9.66538 129.764L11.4919 137.009C11.6018 137.445 11.6108 137.9 11.5184 138.34C11.426 138.779 11.2345 139.192 10.9584 139.547C10.6824 139.902 10.3292 140.189 9.9255 140.387C9.52185 140.584 9.07843 140.687 8.62896 140.688L6.47862 140.692C5.83143 140.694 5.2017 140.483 4.68608 140.091C4.17045 139.7 3.79742 139.151 3.62424 138.527L1.4756 130.795L1.42608 105.863C1.41792 101.705 3.06168 97.7142 5.99579 94.7685C8.92989 91.8228 12.914 90.1633 17.0717 90.155L54.5665 90.0806C57.5295 90.0746 60.448 90.8003 63.0631 92.1932C65.6782 93.5861 67.909 95.6031 69.5574 98.0651L72.4149 102.333L81.957 102.314C82.3176 102.313 82.6747 102.383 83.0081 102.521C83.3415 102.658 83.6446 102.86 83.9 103.114C84.1555 103.368 84.3583 103.671 84.497 104.003C84.6356 104.336 84.7074 104.693 84.7081 105.054L84.7196 110.856C84.7222 112.21 84.1868 113.51 83.2313 114.469C82.2757 115.428 80.9782 115.969 79.6242 115.972L69.7114 115.991" fill="#B5A19C"/>
<path d="M46.3196 141.978C46.8992 141.979 47.4731 141.864 48.007 141.638C48.5409 141.412 49.0239 141.081 49.4272 140.665C49.8304 140.249 50.1456 139.755 50.354 139.214C50.5624 138.673 50.6597 138.096 50.6401 137.517L50.6192 126.951L56.3452 126.94C58.8088 126.933 61.1688 125.948 62.9074 124.202C64.646 122.457 65.6212 120.093 65.619 117.629L65.6158 115.999C65.615 115.637 65.4705 115.29 65.214 115.035C64.9574 114.779 64.6098 114.636 64.2477 114.637C63.8856 114.637 63.5387 114.782 63.2831 115.038C63.0276 115.295 62.8844 115.643 62.8852 116.005L62.8884 117.635C62.8898 119.375 62.2011 121.044 60.9736 122.276C59.746 123.509 58.0797 124.204 56.3401 124.21L49.2484 124.224C48.8863 124.224 48.5393 124.369 48.2838 124.625C48.0283 124.882 47.8851 125.23 47.8858 125.592L47.9095 137.523C47.9248 137.893 47.8168 138.259 47.6025 138.562C47.3883 138.865 47.0797 139.088 46.7251 139.197C46.5086 139.252 46.2831 139.262 46.0627 139.226C45.8424 139.189 45.6319 139.108 45.4447 138.986C45.2619 138.865 45.1058 138.709 44.9862 138.525C44.8666 138.342 44.786 138.136 44.7493 137.92L42.6338 125.377C42.5799 125.059 42.4148 124.769 42.1679 124.561C41.9209 124.353 41.6081 124.239 41.285 124.239L12.3854 124.297C12.1606 124.297 11.9394 124.353 11.7415 124.46C11.5436 124.566 11.3749 124.72 11.2506 124.907L8.52817 129.008C8.42304 129.167 8.35219 129.346 8.32018 129.533C8.28817 129.721 8.29569 129.913 8.34226 130.097L10.1687 137.34C10.2283 137.575 10.2335 137.82 10.184 138.057C10.1345 138.294 10.0316 138.516 9.88305 138.708C9.73451 138.899 9.54431 139.054 9.3269 139.16C9.10951 139.267 8.87065 139.322 8.62852 139.323L6.47613 139.327C6.12773 139.327 5.78879 139.213 5.51105 139.003C5.23331 138.793 5.03201 138.497 4.93785 138.162L2.84076 130.608L2.79162 105.862C2.78778 102.068 4.28952 98.4263 6.9673 95.7375C9.64509 93.0487 13.2802 91.532 17.0749 91.5202L54.5698 91.4457C57.3085 91.4371 60.0067 92.1064 62.4239 93.394C64.8411 94.6816 66.902 96.5474 68.4228 98.825L71.2807 103.093C71.4058 103.279 71.575 103.432 71.7734 103.538C71.9718 103.643 72.1931 103.698 72.4178 103.698L81.9603 103.679C82.3262 103.679 82.6773 103.824 82.9365 104.082C83.1957 104.34 83.3419 104.691 83.343 105.057L83.3545 110.859C83.3553 111.851 82.9628 112.802 82.263 113.504C81.5633 114.207 80.6135 114.603 79.622 114.606L69.7089 114.626C69.3468 114.627 68.9999 114.771 68.7443 115.028C68.4888 115.284 68.3456 115.632 68.3464 115.994C68.3471 116.356 68.4916 116.703 68.7482 116.958C69.0047 117.214 69.3523 117.357 69.7144 117.356L79.6275 117.337C81.343 117.331 82.9864 116.646 84.197 115.43C85.4077 114.215 86.0867 112.569 86.0851 110.853L86.0736 105.051C86.07 103.961 85.6343 102.917 84.8622 102.148C84.0901 101.379 83.0446 100.948 81.9548 100.948L73.1432 100.966L70.692 97.3057C68.9213 94.6543 66.522 92.4824 63.7081 90.9835C60.8941 89.4846 57.753 88.7053 54.5647 88.7151L17.0695 88.7896C12.5512 88.8037 8.22307 90.6094 5.03449 93.8106C1.8459 97.0119 0.0572799 101.347 0.0610116 105.865L0.110525 130.797C0.110448 130.92 0.127338 131.042 0.160729 131.16L2.30801 138.891C2.56262 139.802 3.10841 140.605 3.86202 141.177C4.61563 141.748 5.53564 142.058 6.48155 142.057L8.63497 142.053C9.29179 142.052 9.9397 141.901 10.5294 141.612C11.1192 141.323 11.6352 140.903 12.0383 140.384C12.4414 139.866 12.721 139.262 12.8558 138.619C12.9906 137.976 12.977 137.311 12.8161 136.674L11.1376 130.015L13.1216 127.026L40.133 126.972L42.0568 138.376C42.1567 138.961 42.3757 139.52 42.7003 140.017C43.0249 140.514 43.4482 140.94 43.9439 141.267C44.6482 141.734 45.4748 141.981 46.3196 141.979L46.3196 141.978Z" fill="#4C241D"/>
<path d="M64.2102 95.5224L64.2075 94.1571C64.2024 91.6225 63.1907 89.1936 61.3949 87.4049C59.5991 85.6162 57.1662 84.6142 54.6316 84.6192L54.6533 95.5413" fill="#B5A19C"/>
<path d="M54.6558 96.9067C55.0178 96.9059 55.3648 96.7614 55.6203 96.5049C55.8759 96.2483 56.019 95.9008 56.0183 95.5387L55.9996 86.0955C57.908 86.4168 59.6414 87.4025 60.8934 88.8781C62.1455 90.3538 62.8357 92.2246 62.8419 94.1599L62.8446 95.5251C62.8454 95.8872 62.9899 96.2342 63.2464 96.4897C63.503 96.7453 63.8505 96.8884 64.2126 96.8877C64.5747 96.887 64.9217 96.7424 65.1772 96.4859C65.4328 96.2294 65.5759 95.8818 65.5752 95.5197L65.5725 94.1544C65.5635 91.2587 64.4062 88.4848 62.3545 86.4413C60.3029 84.3977 57.5244 83.2515 54.6286 83.254C54.2665 83.2547 53.9196 83.3992 53.664 83.6558C53.4085 83.9123 53.2654 84.2599 53.2661 84.622L53.2878 95.5441C53.2885 95.9062 53.433 96.2532 53.6896 96.5087C53.9461 96.7642 54.2937 96.9074 54.6558 96.9067Z" fill="#4C241D"/>
<path d="M65.5918 103.711C64.8378 103.712 64.2253 103.102 64.2238 102.348C64.2223 101.594 64.8324 100.982 65.5864 100.98C66.3404 100.979 66.9529 101.589 66.9544 102.343C66.9559 103.097 66.3458 103.709 65.5918 103.711Z" fill="#4C241D"/>
<path d="M11.658 101.771C11.8373 101.771 12.0148 101.735 12.1803 101.666C12.3458 101.597 12.4961 101.496 12.6224 101.369L14.6663 99.3172C14.9145 99.0592 15.0514 98.7141 15.0476 98.3561C15.0437 97.9981 14.8995 97.656 14.6458 97.4034C14.3922 97.1507 14.0495 97.0078 13.6915 97.0054C13.3335 97.003 12.9889 97.1413 12.7319 97.3905L10.6881 99.4425C10.4976 99.6338 10.3681 99.8773 10.316 100.142C10.2639 100.407 10.2914 100.682 10.3952 100.931C10.499 101.18 10.6744 101.393 10.8992 101.542C11.1239 101.692 11.388 101.772 11.658 101.771Z" fill="#4C241D"/>
<path d="M12.3498 106.548C12.5291 106.548 12.7066 106.512 12.8721 106.443C13.0376 106.374 13.1878 106.274 13.3142 106.146L16.0393 103.41C16.2875 103.152 16.4244 102.807 16.4206 102.449C16.4168 102.091 16.2725 101.749 16.0189 101.496C15.7653 101.244 15.4225 101.101 15.0646 101.099C14.7066 101.096 14.362 101.234 14.105 101.484L11.3799 104.22C11.1894 104.411 11.0599 104.654 11.0078 104.919C10.9556 105.184 10.9832 105.459 11.087 105.708C11.1908 105.957 11.3662 106.17 11.5909 106.32C11.8157 106.469 12.0798 106.549 12.3498 106.548Z" fill="#4C241D"/>
<path d="M20.5307 101.071C20.71 101.071 20.8875 101.035 21.053 100.966C21.2185 100.897 21.3688 100.796 21.4951 100.669L22.8577 99.3008C23.1059 99.0428 23.2428 98.6977 23.239 98.3397C23.2351 97.9818 23.0909 97.6396 22.8372 97.387C22.5836 97.1344 22.2409 96.9915 21.8829 96.9891C21.525 96.9867 21.1804 97.125 20.9234 97.3742L19.5608 98.7421C19.3703 98.9335 19.2408 99.177 19.1887 99.4419C19.1365 99.7068 19.1641 99.9812 19.2679 100.23C19.3717 100.48 19.5471 100.692 19.7719 100.842C19.9966 100.992 20.2607 101.071 20.5307 101.071Z" fill="#4C241D"/>
<path d="M26.679 103.107C26.8583 103.106 27.0358 103.071 27.2013 103.002C27.3668 102.933 27.5171 102.832 27.6434 102.705L29.6873 100.653C29.9354 100.395 30.0724 100.05 30.0686 99.6915C30.0647 99.3336 29.9205 98.9914 29.6668 98.7388C29.4132 98.4862 29.0705 98.3433 28.7125 98.3409C28.3545 98.3385 28.0099 98.4768 27.7529 98.726L25.7091 100.778C25.5186 100.969 25.3891 101.213 25.337 101.478C25.2849 101.743 25.3124 102.017 25.4162 102.266C25.52 102.515 25.6954 102.728 25.9202 102.878C26.1449 103.027 26.409 103.107 26.679 103.107Z" fill="#4C241D"/>
<path d="M19.1762 106.535C19.3555 106.535 19.533 106.499 19.6985 106.43C19.864 106.361 20.0143 106.26 20.1406 106.133L21.5032 104.765C21.7514 104.507 21.8883 104.162 21.8845 103.804C21.8807 103.446 21.7364 103.104 21.4828 102.851C21.2291 102.598 20.8864 102.455 20.5284 102.453C20.1705 102.451 19.8259 102.589 19.5689 102.838L18.2063 104.206C18.0158 104.397 17.8863 104.641 17.8342 104.906C17.782 105.171 17.8096 105.445 17.9134 105.694C18.0172 105.944 18.1926 106.156 18.4174 106.306C18.6421 106.456 18.9062 106.535 19.1762 106.535Z" fill="#4C241D"/>
<path d="M36.9118 99.6729C37.0911 99.6727 37.2686 99.6371 37.4341 99.5681C37.5996 99.4991 37.7499 99.3981 37.8762 99.2709L40.6013 96.535C40.8495 96.277 40.9864 95.9318 40.9826 95.5739C40.9788 95.2159 40.8345 94.8738 40.5809 94.6211C40.3273 94.3685 39.9846 94.2256 39.6266 94.2232C39.2686 94.2208 38.924 94.3591 38.667 94.6083L35.9419 97.3443C35.7514 97.5356 35.6219 97.7791 35.5698 98.044C35.5176 98.3089 35.5452 98.5833 35.649 98.8325C35.7528 99.0817 35.9282 99.2946 36.153 99.4442C36.3777 99.5938 36.6418 99.6733 36.9118 99.6729Z" fill="#4C241D"/>
<path d="M43.0579 100.343C43.2372 100.343 43.4147 100.307 43.5802 100.238C43.7457 100.169 43.896 100.068 44.0223 99.9409L46.0662 97.889C46.3144 97.631 46.4513 97.2858 46.4475 96.9279C46.4436 96.5699 46.2994 96.2278 46.0457 95.9751C45.7921 95.7225 45.4494 95.5796 45.0914 95.5772C44.7334 95.5748 44.3888 95.7131 44.1318 95.9623L42.088 98.0143C41.8975 98.2056 41.768 98.4491 41.7159 98.714C41.6638 98.9789 41.6913 99.2533 41.7951 99.5025C41.8989 99.7518 42.0743 99.9646 42.2991 100.114C42.5238 100.264 42.7879 100.343 43.0579 100.343Z" fill="#4C241D"/>
<path d="M38.2936 107.862C38.4729 107.862 38.6504 107.826 38.8159 107.757C38.9814 107.688 39.1317 107.587 39.2581 107.46L41.9832 104.724C42.2313 104.466 42.3683 104.121 42.3645 103.763C42.3606 103.405 42.2164 103.063 41.9627 102.81C41.7091 102.558 41.3664 102.415 41.0084 102.412C40.6504 102.41 40.3058 102.548 40.0488 102.798L37.3237 105.533C37.1332 105.725 37.0037 105.968 36.9516 106.233C36.8995 106.498 36.9271 106.773 37.0309 107.022C37.1347 107.271 37.31 107.484 37.5348 107.633C37.7596 107.783 38.0236 107.863 38.2936 107.862Z" fill="#4C241D"/>
<path d="M34.1947 106.505C34.374 106.505 34.5515 106.469 34.7171 106.4C34.8826 106.331 35.0328 106.23 35.1592 106.103L36.5217 104.735C36.7699 104.477 36.9068 104.132 36.903 103.774C36.8992 103.416 36.7549 103.074 36.5013 102.821C36.2477 102.569 35.905 102.426 35.547 102.423C35.189 102.421 34.8444 102.559 34.5874 102.808L33.2249 104.176C33.0344 104.368 32.9049 104.611 32.8527 104.876C32.8006 105.141 32.8282 105.415 32.932 105.665C33.0358 105.914 33.2112 106.127 33.4359 106.276C33.6607 106.426 33.9247 106.505 34.1947 106.505Z" fill="#4C241D"/>
<path d="M25.9838 96.9641C26.1631 96.9639 26.3406 96.9283 26.5061 96.8593C26.6716 96.7903 26.8219 96.6893 26.9482 96.5621L28.3108 95.1941C28.559 94.9362 28.6959 94.591 28.6921 94.233C28.6883 93.8751 28.544 93.5329 28.2904 93.2803C28.0367 93.0277 27.694 92.8848 27.3361 92.8824C26.9781 92.88 26.6335 93.0183 26.3765 93.2675L25.0139 94.6355C24.8234 94.8268 24.6939 95.0703 24.6418 95.3352C24.5897 95.6001 24.6172 95.8745 24.7211 96.1237C24.8249 96.373 25.0002 96.5858 25.225 96.7354C25.4497 96.885 25.7138 96.9645 25.9838 96.9641Z" fill="#4C241D"/>
<path d="M26.0138 111.982C26.1931 111.982 26.3706 111.947 26.5361 111.878C26.7017 111.809 26.8519 111.708 26.9783 111.58L29.7034 108.844C29.9516 108.586 30.0885 108.241 30.0847 107.883C30.0808 107.525 29.9366 107.183 29.6829 106.931C29.4293 106.678 29.0866 106.535 28.7286 106.533C28.3707 106.53 28.0261 106.669 27.7691 106.918L25.0439 109.654C24.8534 109.845 24.7239 110.089 24.6718 110.353C24.6197 110.618 24.6473 110.893 24.7511 111.142C24.8549 111.391 25.0302 111.604 25.255 111.754C25.4798 111.903 25.7438 111.983 26.0138 111.982Z" fill="#4C241D"/>
<path d="M31.483 116.067C31.7529 116.067 32.0167 115.986 32.2409 115.836C32.465 115.685 32.6395 115.472 32.7424 115.222C32.8452 114.972 32.8717 114.698 32.8185 114.433C32.7653 114.169 32.6348 113.926 32.4436 113.735L31.0756 112.372C30.8176 112.124 30.4725 111.987 30.1145 111.991C29.7565 111.995 29.4144 112.139 29.1618 112.393C28.9091 112.647 28.7662 112.989 28.7638 113.347C28.7614 113.705 28.8997 114.05 29.1489 114.307L30.5169 115.669C30.6438 115.796 30.7944 115.896 30.9602 115.965C31.126 116.033 31.3037 116.068 31.483 116.067Z" fill="#4C241D"/>
<path d="M34.2056 111.966C34.4756 111.966 34.7393 111.885 34.9635 111.734C35.1877 111.584 35.3622 111.37 35.465 111.121C35.5678 110.871 35.5943 110.597 35.5411 110.332C35.488 110.067 35.3575 109.824 35.1662 109.634L33.7983 108.271C33.5403 108.023 33.1951 107.886 32.8372 107.89C32.4792 107.894 32.1371 108.038 31.8844 108.292C31.6318 108.545 31.4889 108.888 31.4865 109.246C31.4841 109.604 31.6224 109.948 31.8716 110.205L33.2396 111.568C33.3664 111.695 33.5171 111.795 33.6829 111.863C33.8487 111.932 34.0263 111.967 34.2056 111.966Z" fill="#4C241D"/>
<path d="M10.9979 113.377C11.2679 113.377 11.5316 113.296 11.7558 113.146C11.9799 112.995 12.1545 112.782 12.2573 112.532C12.3601 112.282 12.3866 112.008 12.3334 111.743C12.2802 111.479 12.1498 111.236 11.9585 111.045L9.22254 108.32C8.96456 108.072 8.61941 107.935 8.26145 107.939C7.90349 107.942 7.56135 108.087 7.30872 108.34C7.05609 108.594 6.91319 108.937 6.91079 109.295C6.90839 109.653 7.04668 109.997 7.29589 110.254L10.0318 112.979C10.1587 113.106 10.3094 113.206 10.4751 113.275C10.6409 113.343 10.8186 113.378 10.9979 113.377Z" fill="#4C241D"/>
<path d="M17.8245 113.364C18.0945 113.363 18.3583 113.283 18.5824 113.132C18.8066 112.982 18.9811 112.768 19.0839 112.519C19.1868 112.269 19.2132 111.994 19.1601 111.73C19.1069 111.465 18.9764 111.222 18.7852 111.032L16.0492 108.306C15.7912 108.058 15.4461 107.921 15.0881 107.925C14.7301 107.929 14.388 108.073 14.1354 108.327C13.8827 108.581 13.7398 108.923 13.7374 109.281C13.735 109.639 13.8733 109.984 14.1225 110.241L16.8585 112.966C16.9854 113.093 17.136 113.193 17.3018 113.261C17.4676 113.33 17.6452 113.365 17.8245 113.364Z" fill="#4C241D"/>
<path d="M7.15689 93.924L8.22897 93.9219C8.59106 93.9212 8.93803 93.7766 9.19356 93.5201C9.44909 93.2635 9.59224 92.916 9.59152 92.5539C9.5908 92.1918 9.44627 91.8448 9.18973 91.5893C8.93318 91.3338 8.58563 91.1906 8.22354 91.1914L7.15146 91.1935C6.34977 91.1943 5.58052 90.877 5.01251 90.3112C4.4445 89.7454 4.12414 88.9774 4.12173 88.1758L4.11816 86.3777C4.11748 85.5761 4.43482 84.8069 5.00056 84.239C5.56631 83.671 6.33425 83.3507 7.13588 83.3483L8.20796 83.3462L8.20932 84.0288C8.21202 84.9338 8.57363 85.8007 9.2148 86.4393C9.85597 87.0779 10.7243 87.4361 11.6293 87.4352L12.9945 87.4325C13.8998 87.4307 14.7672 87.0694 15.406 86.428C16.0448 85.7866 16.4027 84.9178 16.4009 84.0125C16.3991 83.1073 16.0378 82.2399 15.3964 81.6011C14.7551 80.9622 13.8862 80.6044 12.981 80.6062L10.9331 80.6102L10.9249 76.5144C10.9242 76.1523 10.7797 75.8054 10.5231 75.5498C10.2666 75.2943 9.91905 75.1511 9.55696 75.1519C9.19487 75.1526 8.84789 75.2971 8.59237 75.5537C8.33684 75.8102 8.19369 76.1578 8.19441 76.5198L8.20254 80.6156L7.13046 80.6178C5.6049 80.6224 4.14349 81.2321 3.06686 82.3129C1.99023 83.3938 1.38631 84.8576 1.38763 86.3831L1.3912 88.1812C1.39586 89.7068 2.00553 91.1683 3.08646 92.2449C4.16738 93.3215 5.63126 93.9254 7.15689 93.924ZM12.9864 83.3367C13.1674 83.3363 13.3412 83.4079 13.4695 83.5357C13.5978 83.6634 13.67 83.8369 13.6704 84.018C13.6707 84.199 13.5992 84.3728 13.4714 84.5011C13.3436 84.6293 13.1702 84.7016 12.9891 84.702L11.6238 84.7047C11.4428 84.705 11.269 84.6335 11.1408 84.5057C11.0125 84.3779 10.9402 84.2044 10.9399 84.0234L10.9385 83.3408L12.9864 83.3367Z" fill="#4C241D"/>
<path d="M35.5 0C15.9018 0 0 14.2556 0 31.8214C0 60.1071 35.5 99 35.5 99C35.5 99 71 60.1071 71 31.8214C71 14.2556 55.0982 0 35.5 0ZM35.5 49.5C32.6915 49.5 29.9461 48.6705 27.6109 47.1165C25.2757 45.5625 23.4557 43.3537 22.3809 40.7694C21.3061 38.1851 21.0249 35.3415 21.5728 32.598C22.1208 29.8546 23.4732 27.3345 25.4591 25.3566C27.445 23.3787 29.9752 22.0317 32.7297 21.486C35.4842 20.9403 38.3394 21.2204 40.9341 22.2908C43.5288 23.3613 45.7466 25.174 47.3069 27.4998C48.8672 29.8256 49.7 32.56 49.7 35.3571C49.6959 39.1068 48.1985 42.7017 45.5364 45.3531C42.8743 48.0045 39.2648 49.4959 35.5 49.5Z" fill="#EEB114"/>
</svg>
