<svg width="44" height="35" viewBox="0 0 44 35" fill="none" xmlns="http://www.w3.org/2000/svg">
<path d="M18.508 20.2538C21.9347 20.2538 25.2211 18.8925 27.6442 16.4694C30.0673 14.0463 31.4286 10.7599 31.4286 7.33315C31.4286 0.197299 11.3721 20.2538 18.508 20.2538Z" fill="#E7D1C4"/>
<path d="M28.5193 33.5239C28.718 33.5239 28.9146 33.4848 29.0981 33.4088C29.2816 33.3327 29.4484 33.2213 29.5888 33.0809C29.7293 32.9404 29.8407 32.7737 29.9167 32.5901C29.9927 32.4066 30.0318 32.2099 30.0317 32.0113V25.1429H25.8413L27.0275 32.2601C27.0864 32.6133 27.2686 32.9341 27.5418 33.1655C27.8149 33.3969 28.1613 33.5239 28.5193 33.5239Z" fill="#6B4F5B"/>
<path d="M28.5189 34.2222C29.1052 34.2216 29.6672 33.9885 30.0817 33.574C30.4963 33.1595 30.7295 32.5975 30.7301 32.0112V25.1429C30.7301 24.9576 30.6565 24.78 30.5255 24.649C30.3946 24.518 30.2169 24.4445 30.0317 24.4445H25.8412C25.7398 24.4444 25.6395 24.4665 25.5475 24.5092C25.4554 24.5518 25.3738 24.614 25.3082 24.6914C25.2427 24.7688 25.1947 24.8596 25.1678 24.9574C25.1409 25.0552 25.1355 25.1577 25.1522 25.2578L26.3383 32.3749C26.423 32.8917 26.689 33.3615 27.0886 33.7C27.4882 34.0385 27.9952 34.2236 28.5189 34.2222ZM29.3333 25.8413V32.0114C29.3331 32.2272 29.2473 32.4341 29.0948 32.5867C28.9422 32.7393 28.7354 32.8251 28.5196 32.8254C28.3266 32.826 28.1397 32.7578 27.9925 32.633C27.8453 32.5082 27.7474 32.3349 27.7165 32.1445L26.666 25.8413H29.3333Z" fill="#4C241D"/>
<path d="M9.68255 33.5239H10.1454C10.3609 33.5239 10.5739 33.4778 10.7702 33.3888C10.9664 33.2998 11.1414 33.1699 11.2834 33.0077C11.4253 32.8456 11.531 32.655 11.5933 32.4487C11.6556 32.2424 11.6731 32.0252 11.6446 31.8116L10.7555 25.1429H6.28565L8.22113 32.4012C8.307 32.7232 8.49682 33.0078 8.76109 33.2108C9.02536 33.4139 9.3493 33.5239 9.68255 33.5239Z" fill="#6B4F5B"/>
<path d="M9.68222 34.2222H10.1444C10.4595 34.2223 10.7709 34.155 11.0579 34.0249C11.3448 33.8948 11.6006 33.7048 11.8081 33.4677C12.0156 33.2306 12.1701 32.952 12.2611 32.6503C12.3521 32.3487 12.3776 32.0311 12.3358 31.7188L11.4471 25.0505C11.4247 24.8829 11.3423 24.7291 11.2151 24.6176C11.0879 24.5061 10.9246 24.4446 10.7555 24.4445H6.28567C6.17863 24.4445 6.07304 24.4692 5.97704 24.5165C5.88105 24.5639 5.79722 24.6326 5.73204 24.7175C5.66685 24.8024 5.62205 24.9012 5.60109 25.0061C5.58014 25.1111 5.58358 25.2195 5.61117 25.3229L7.54683 32.581C7.67261 33.0514 7.95002 33.4671 8.33609 33.7639C8.72215 34.0606 9.1953 34.2217 9.68222 34.2222ZM10.1444 25.8413L10.9526 31.904C10.9681 32.019 10.9587 32.136 10.9252 32.2471C10.8917 32.3582 10.8348 32.4608 10.7584 32.5481C10.6819 32.6354 10.5876 32.7053 10.4819 32.7531C10.3762 32.8009 10.2615 32.8256 10.1454 32.8254H9.6824C9.50327 32.8249 9.3293 32.7654 9.18731 32.6562C9.04532 32.547 8.9432 32.3941 8.89668 32.2211L7.195 25.8413H10.1444Z" fill="#4C241D"/>
<path d="M27.2381 24.4444H34.9206C36.4025 24.4444 37.8236 23.8557 38.8715 22.8079C39.9193 21.76 40.5079 20.3389 40.5079 18.8571H27.2381V24.4444Z" fill="#6B4F5B"/>
<path d="M27.2382 25.1428H34.9207C36.5872 25.141 38.1849 24.4781 39.3633 23.2997C40.5417 22.1213 41.2046 20.5236 41.2064 18.8571C41.2064 18.6719 41.1328 18.4942 41.0019 18.3633C40.8709 18.2323 40.6932 18.1587 40.508 18.1587H27.2382C27.0529 18.1587 26.8753 18.2323 26.7443 18.3633C26.6133 18.4942 26.5398 18.6719 26.5398 18.8571V24.4444C26.5398 24.6296 26.6133 24.8073 26.7443 24.9383C26.8753 25.0692 27.0529 25.1428 27.2382 25.1428ZM39.7598 19.5555C39.5904 20.7185 39.0084 21.7817 38.1199 22.5511C37.2315 23.3204 36.096 23.7446 34.9207 23.746H27.9366V19.5555H39.7598Z" fill="#4C241D"/>
<path d="M9.07935 20.9523L6.28569 25.8412L9.07935 20.9523Z" fill="white"/>
<path d="M6.28571 26.5396C6.40896 26.5398 6.53005 26.5073 6.63668 26.4454C6.74331 26.3836 6.83167 26.2947 6.89281 26.1876L9.68646 21.2988C9.77511 21.1382 9.79702 20.9491 9.74746 20.7725C9.69789 20.5959 9.58083 20.4459 9.42156 20.3549C9.2623 20.2638 9.07361 20.2391 8.89628 20.2861C8.71895 20.333 8.56721 20.4479 8.47384 20.6058L5.68019 25.4946C5.61951 25.6008 5.58776 25.721 5.58812 25.8433C5.58848 25.9656 5.62094 26.0856 5.68224 26.1914C5.74354 26.2972 5.83155 26.385 5.93745 26.4461C6.04335 26.5073 6.16344 26.5395 6.28571 26.5396Z" fill="#4C241D"/>
<path d="M32.8254 20.9523V21.7864C32.8254 22.8618 32.3982 23.8932 31.6378 24.6536C30.8774 25.414 29.846 25.8412 28.7706 25.8412H25.1429V31.9445C25.1502 32.2909 25.0418 32.6298 24.8349 32.9077C24.6281 33.1857 24.3345 33.3867 24.0007 33.4792C23.7978 33.5301 23.5867 33.5384 23.3805 33.5036C23.1744 33.4689 22.9776 33.3918 22.8027 33.2773C22.6278 33.1627 22.4785 33.0132 22.3642 32.8381C22.2499 32.6631 22.1731 32.4662 22.1387 32.26L21.0689 25.8412H6.28576L4.88894 27.9365L5.81591 31.6445C5.87167 31.8676 5.87585 32.1004 5.82812 32.3253C5.78039 32.5502 5.68201 32.7613 5.54045 32.9425C5.3989 33.1237 5.2179 33.2702 5.01121 33.3709C4.80452 33.4716 4.57759 33.5239 4.34766 33.5238H3.24767C2.9166 33.5238 2.59468 33.4151 2.33131 33.2145C2.06795 33.0139 1.87769 32.7325 1.78973 32.4133L0.69846 28.4557V15.7017C0.698505 13.5748 1.54342 11.5351 3.04733 10.0312C4.55125 8.52736 6.59098 7.6825 8.71781 7.6825H27.8981C29.4138 7.68248 30.906 8.05667 32.2424 8.77185C33.5787 9.48702 34.7178 10.5211 35.5585 11.7822L37.0159 13.9682H41.8971C42.0816 13.9682 42.2642 14.0045 42.4346 14.0751C42.605 14.1456 42.7598 14.2491 42.8903 14.3795C43.0207 14.5099 43.1241 14.6647 43.1947 14.8351C43.2653 15.0055 43.3016 15.1881 43.3016 15.3725V18.3408C43.3016 19.0334 43.0264 19.6977 42.5366 20.1874C42.0468 20.6772 41.3826 20.9523 40.6899 20.9523H35.6191" fill="#B5A19C"/>
<path d="M23.6266 34.2221C23.9231 34.2232 24.2168 34.1645 24.4901 34.0497C24.7635 33.9348 25.0109 33.766 25.2176 33.5534C25.4243 33.3408 25.586 33.0888 25.6932 32.8123C25.8003 32.5358 25.8507 32.2406 25.8413 31.9442V26.5396H28.7704C30.0307 26.5382 31.2389 26.0369 32.13 25.1458C33.0212 24.2547 33.5224 23.0464 33.5238 21.7862V20.9523C33.5238 20.767 33.4502 20.5894 33.3193 20.4584C33.1883 20.3274 33.0106 20.2539 32.8254 20.2539C32.6402 20.2539 32.4625 20.3274 32.3315 20.4584C32.2006 20.5894 32.127 20.767 32.127 20.9523V21.7863C32.1259 22.6762 31.772 23.5293 31.1427 24.1585C30.5135 24.7877 29.6604 25.1417 28.7706 25.1427H25.1429C24.9576 25.1427 24.78 25.2163 24.649 25.3473C24.518 25.4783 24.4444 25.6559 24.4444 25.8412V31.9444C24.4519 32.1341 24.3963 32.3209 24.2863 32.4757C24.1764 32.6304 24.0184 32.7445 23.8368 32.8C23.726 32.8279 23.6107 32.8326 23.498 32.8137C23.3853 32.7949 23.2777 32.7529 23.1821 32.6905C23.0887 32.6287 23.009 32.5483 22.948 32.4544C22.887 32.3604 22.846 32.255 22.8274 32.1445L21.758 25.7261C21.7308 25.5631 21.6466 25.415 21.5205 25.3082C21.3944 25.2014 21.2345 25.1428 21.0692 25.1427H6.28572C6.17075 25.1427 6.05756 25.1711 5.95619 25.2254C5.85482 25.2796 5.76842 25.3581 5.70464 25.4537L4.30781 27.549C4.25387 27.6299 4.21745 27.7213 4.20088 27.8172C4.18431 27.9131 4.18797 28.0114 4.21161 28.1058L5.13857 31.8126C5.16881 31.9327 5.17123 32.0581 5.14567 32.1793C5.1201 32.3005 5.06721 32.4143 4.99104 32.5119C4.91486 32.6096 4.81741 32.6886 4.70609 32.7429C4.59477 32.7972 4.47253 32.8254 4.34867 32.8253H3.24762C3.0694 32.8251 2.89613 32.7666 2.75427 32.6587C2.61241 32.5508 2.50973 32.3995 2.46191 32.2278L1.39683 28.3617V15.703C1.39872 13.7618 2.17063 11.9006 3.54316 10.5279C4.9157 9.15518 6.77674 8.38301 8.71794 8.38084H27.8983C29.2992 8.37922 30.6788 8.72435 31.914 9.38546C33.1492 10.0466 34.2015 11.0031 34.9772 12.1697L36.4348 14.3558C36.4986 14.4514 36.585 14.5298 36.6864 14.584C36.7877 14.6382 36.9009 14.6666 37.0159 14.6666H41.8973C42.0844 14.6668 42.2639 14.7413 42.3962 14.8736C42.5286 15.006 42.603 15.1855 42.6032 15.3727V18.3409C42.6026 18.8481 42.4008 19.3343 42.0422 19.693C41.6835 20.0516 41.1972 20.2533 40.69 20.2539H35.619C35.4338 20.2539 35.2562 20.3274 35.1252 20.4584C34.9942 20.5894 34.9206 20.767 34.9206 20.9523C34.9206 21.1375 34.9942 21.3151 35.1252 21.4461C35.2562 21.5771 35.4338 21.6507 35.619 21.6507H40.69C41.5676 21.6497 42.409 21.3007 43.0295 20.6801C43.6501 20.0595 43.9991 19.2181 44 18.3406V15.3723C43.9993 14.8149 43.7775 14.2805 43.3833 13.8863C42.9891 13.4922 42.4547 13.2704 41.8973 13.2697H37.3897L36.1395 11.3948C35.2364 10.0368 34.0113 8.92329 32.5734 8.15367C31.1354 7.38406 29.5294 6.98223 27.8984 6.98401H8.71794C6.40664 6.98665 4.19075 7.90596 2.5564 9.54029C0.922043 11.1746 0.00268173 13.3905 3.8147e-06 15.7018V28.4557C-0.000160217 28.5183 0.008358 28.5808 0.0253181 28.6411L1.11589 32.5983C1.24521 33.0646 1.52359 33.4757 1.90851 33.7689C2.29343 34.0621 2.76374 34.2213 3.24762 34.2221H4.34919C4.68519 34.2222 5.01677 34.1456 5.31874 33.9983C5.62071 33.851 5.88512 33.6367 6.09185 33.3719C6.29859 33.107 6.44221 32.7985 6.51181 32.4698C6.58141 32.1411 6.57515 31.8008 6.4935 31.4749L5.64161 28.0667L6.65954 26.5396H20.4771L21.4497 32.3748C21.5002 32.6744 21.6116 32.9604 21.7772 33.2152C21.9427 33.4699 22.1588 33.688 22.4121 33.8558C22.7719 34.0952 23.1944 34.2228 23.6266 34.2225V34.2221Z" fill="#4C241D"/>
<path d="M32.8253 10.4761V9.77769C32.8253 8.48107 32.3102 7.23756 31.3934 6.32072C30.4766 5.40387 29.233 4.88879 27.9364 4.88879V10.4761" fill="#B5A19C"/>
<path d="M27.9365 11.1746C28.1217 11.1746 28.2994 11.101 28.4304 10.97C28.5613 10.839 28.6349 10.6614 28.6349 10.4761V5.6454C29.6108 5.81174 30.4966 6.31769 31.1356 7.07386C31.7746 7.83002 32.1257 8.78773 32.127 9.77773V10.4761C32.127 10.6614 32.2006 10.839 32.3315 10.97C32.4625 11.101 32.6402 11.1746 32.8254 11.1746C33.0106 11.1746 33.1883 11.101 33.3192 10.97C33.4502 10.839 33.5238 10.6614 33.5238 10.4761V9.77773C33.5221 8.2964 32.9329 6.87621 31.8855 5.82875C30.838 4.78129 29.4178 4.19209 27.9365 4.19043C27.7513 4.19043 27.5736 4.26401 27.4426 4.39499C27.3117 4.52597 27.2381 4.70361 27.2381 4.88884V10.4761C27.2381 10.6614 27.3117 10.839 27.4426 10.97C27.5736 11.101 27.7513 11.1746 27.9365 11.1746Z" fill="#4C241D"/>
<path d="M33.5239 14.6665C33.1382 14.6665 32.8255 14.3538 32.8255 13.9681C32.8255 13.5823 33.1382 13.2697 33.5239 13.2697C33.9096 13.2697 34.2223 13.5823 34.2223 13.9681C34.2223 14.3538 33.9096 14.6665 33.5239 14.6665Z" fill="#4C241D"/>
<path d="M5.9365 13.6191C6.02823 13.6192 6.11907 13.6012 6.20381 13.566C6.28854 13.5309 6.36551 13.4794 6.43028 13.4145L7.4779 12.3668C7.60512 12.2351 7.67552 12.0587 7.67392 11.8756C7.67233 11.6924 7.59888 11.5173 7.46939 11.3878C7.3399 11.2583 7.16473 11.1848 6.98161 11.1833C6.79849 11.1817 6.62206 11.2521 6.49034 11.3793L5.44272 12.4269C5.34508 12.5246 5.27859 12.649 5.25165 12.7845C5.22471 12.9199 5.23854 13.0603 5.29139 13.1879C5.34424 13.3155 5.43374 13.4246 5.54856 13.5013C5.66339 13.5781 5.79839 13.6191 5.9365 13.6191Z" fill="#4C241D"/>
<path d="M6.28565 16.0635C6.37738 16.0636 6.46822 16.0456 6.55296 16.0105C6.6377 15.9753 6.71466 15.9238 6.77943 15.8589L8.17626 14.4621C8.30348 14.3303 8.37388 14.1539 8.37229 13.9708C8.3707 13.7877 8.29725 13.6125 8.16775 13.483C8.03826 13.3535 7.86309 13.2801 7.67997 13.2785C7.49685 13.2769 7.32043 13.3473 7.1887 13.4745L5.79187 14.8713C5.69423 14.969 5.62774 15.0934 5.6008 15.2289C5.57386 15.3643 5.58769 15.5048 5.64054 15.6324C5.69339 15.76 5.78289 15.869 5.89771 15.9458C6.01254 16.0225 6.14754 16.0635 6.28565 16.0635Z" fill="#4C241D"/>
<path d="M10.4761 13.2699C10.5679 13.27 10.6587 13.2519 10.7434 13.2168C10.8282 13.1817 10.9051 13.1302 10.9699 13.0652L11.6683 12.3668C11.7955 12.2351 11.8659 12.0587 11.8644 11.8756C11.8628 11.6924 11.7893 11.5173 11.6598 11.3878C11.5303 11.2583 11.3552 11.1848 11.172 11.1833C10.9889 11.1817 10.8125 11.2521 10.6808 11.3793L9.98236 12.0777C9.88471 12.1754 9.81822 12.2998 9.79129 12.4353C9.76435 12.5707 9.77818 12.7111 9.83103 12.8387C9.88388 12.9663 9.97337 13.0754 10.0882 13.1521C10.203 13.2289 10.338 13.2699 10.4761 13.2699Z" fill="#4C241D"/>
<path d="M13.6191 14.3173C13.7108 14.3174 13.8017 14.2994 13.8864 14.2643C13.9712 14.2292 14.0481 14.1777 14.1129 14.1127L15.1605 13.0651C15.2877 12.9334 15.3581 12.7569 15.3565 12.5738C15.3549 12.3907 15.2815 12.2155 15.152 12.086C15.0225 11.9565 14.8473 11.8831 14.6642 11.8815C14.4811 11.8799 14.3047 11.9503 14.173 12.0775L13.1253 13.1251C13.0277 13.2228 12.9612 13.3473 12.9343 13.4827C12.9073 13.6182 12.9212 13.7586 12.974 13.8862C13.0269 14.0138 13.1164 14.1228 13.2312 14.1996C13.346 14.2763 13.481 14.3173 13.6191 14.3173Z" fill="#4C241D"/>
<path d="M9.77778 16.0636C9.8695 16.0637 9.96034 16.0456 10.0451 16.0105C10.1298 15.9754 10.2068 15.9239 10.2716 15.8589L10.97 15.1605C11.0972 15.0288 11.1676 14.8524 11.166 14.6693C11.1644 14.4861 11.0909 14.311 10.9615 14.1815C10.832 14.052 10.6568 13.9785 10.4737 13.977C10.2906 13.9754 10.1141 14.0458 9.98241 14.173L9.284 14.8714C9.18636 14.9691 9.11986 15.0935 9.09293 15.229C9.06599 15.3644 9.07982 15.5048 9.13267 15.6324C9.18552 15.76 9.27501 15.8691 9.38984 15.9458C9.50467 16.0226 9.63967 16.0636 9.77778 16.0636Z" fill="#4C241D"/>
<path d="M18.8572 12.5713C18.9489 12.5714 19.0398 12.5534 19.1245 12.5183C19.2092 12.4832 19.2862 12.4316 19.351 12.3667L20.7478 10.9699C20.875 10.8381 20.9454 10.6617 20.9438 10.4786C20.9422 10.2955 20.8688 10.1203 20.7393 9.99082C20.6098 9.86132 20.4346 9.78787 20.2515 9.78628C20.0684 9.78469 19.892 9.85509 19.7602 9.98231L18.3634 11.3791C18.2658 11.4768 18.1993 11.6012 18.1723 11.7367C18.1454 11.8722 18.1592 12.0126 18.2121 12.1402C18.2649 12.2678 18.3544 12.3768 18.4692 12.4536C18.5841 12.5303 18.7191 12.5713 18.8572 12.5713Z" fill="#4C241D"/>
<path d="M22 12.9206C22.0917 12.9207 22.1825 12.9027 22.2673 12.8676C22.352 12.8324 22.429 12.7809 22.4938 12.716L23.5414 11.6684C23.6686 11.5366 23.739 11.3602 23.7374 11.1771C23.7358 10.994 23.6624 10.8188 23.5329 10.6893C23.4034 10.5598 23.2282 10.4864 23.0451 10.4848C22.862 10.4832 22.6855 10.5536 22.5538 10.6808L21.5062 11.7284C21.4086 11.8261 21.3421 11.9505 21.3151 12.086C21.2882 12.2214 21.302 12.3618 21.3549 12.4894C21.4077 12.617 21.4972 12.7261 21.612 12.8029C21.7269 12.8796 21.8619 12.9206 22 12.9206Z" fill="#4C241D"/>
<path d="M19.5556 16.762C19.6473 16.7621 19.7381 16.7441 19.8229 16.7089C19.9076 16.6738 19.9846 16.6223 20.0493 16.5574L21.4462 15.1605C21.5734 15.0288 21.6438 14.8524 21.6422 14.6693C21.6406 14.4861 21.5671 14.311 21.4377 14.1815C21.3082 14.052 21.133 13.9785 20.9499 13.977C20.7667 13.9754 20.5903 14.0458 20.4586 14.173L19.0618 15.5698C18.9641 15.6675 18.8976 15.7919 18.8707 15.9274C18.8438 16.0628 18.8576 16.2032 18.9105 16.3308C18.9633 16.4584 19.0528 16.5675 19.1676 16.6442C19.2824 16.721 19.4174 16.762 19.5556 16.762Z" fill="#4C241D"/>
<path d="M17.4603 16.0636C17.552 16.0637 17.6428 16.0456 17.7276 16.0105C17.8123 15.9754 17.8893 15.9239 17.954 15.8589L18.6525 15.1605C18.7797 15.0288 18.8501 14.8524 18.8485 14.6693C18.8469 14.4861 18.7734 14.311 18.644 14.1815C18.5145 14.052 18.3393 13.9785 18.1562 13.977C17.973 13.9754 17.7966 14.0458 17.6649 14.173L16.9665 14.8714C16.8688 14.9691 16.8023 15.0935 16.7754 15.229C16.7485 15.3644 16.7623 15.5048 16.8152 15.6324C16.868 15.76 16.9575 15.8691 17.0723 15.9458C17.1872 16.0226 17.3222 16.0636 17.4603 16.0636Z" fill="#4C241D"/>
<path d="M13.2698 11.1745C13.3616 11.1746 13.4524 11.1566 13.5371 11.1215C13.6219 11.0864 13.6988 11.0349 13.7636 10.9699L14.462 10.2715C14.5892 10.1398 14.6596 9.96336 14.6581 9.78023C14.6565 9.59711 14.583 9.42194 14.4535 9.29245C14.324 9.16296 14.1489 9.08951 13.9657 9.08792C13.7826 9.08633 13.6062 9.15672 13.4745 9.28394L12.7761 9.98235C12.6784 10.08 12.6119 10.2045 12.585 10.3399C12.5581 10.4754 12.5719 10.6158 12.6247 10.7434C12.6776 10.871 12.7671 10.98 12.8819 11.0568C12.9967 11.1335 13.1317 11.1745 13.2698 11.1745Z" fill="#4C241D"/>
<path d="M13.2699 18.8572C13.3616 18.8573 13.4525 18.8393 13.5372 18.8042C13.622 18.769 13.6989 18.7175 13.7637 18.6526L15.1605 17.2558C15.2877 17.124 15.3581 16.9476 15.3565 16.7645C15.3549 16.5814 15.2815 16.4062 15.152 16.2767C15.0225 16.1472 14.8473 16.0738 14.6642 16.0722C14.4811 16.0706 14.3047 16.141 14.173 16.2682L12.7761 17.665C12.6785 17.7627 12.612 17.8871 12.5851 18.0226C12.5581 18.158 12.572 18.2984 12.6248 18.426C12.6777 18.5536 12.7671 18.6627 12.882 18.7395C12.9968 18.8162 13.1318 18.8572 13.2699 18.8572Z" fill="#4C241D"/>
<path d="M16.0636 20.9524C16.2017 20.9523 16.3367 20.9114 16.4515 20.8346C16.5663 20.7579 16.6558 20.6488 16.7087 20.5212C16.7615 20.3936 16.7754 20.2532 16.7484 20.1178C16.7215 19.9823 16.655 19.8579 16.5574 19.7602L15.8589 19.0618C15.7272 18.9346 15.5508 18.8642 15.3677 18.8657C15.1846 18.8673 15.0094 18.9408 14.8799 19.0703C14.7504 19.1998 14.677 19.3749 14.6754 19.5581C14.6738 19.7412 14.7442 19.9176 14.8714 20.0493L15.5698 20.7477C15.6346 20.8127 15.7115 20.8642 15.7963 20.8993C15.881 20.9344 15.9719 20.9525 16.0636 20.9524Z" fill="#4C241D"/>
<path d="M17.4603 18.8572C17.5984 18.8571 17.7334 18.8162 17.8482 18.7394C17.9631 18.6627 18.0526 18.5536 18.1054 18.426C18.1583 18.2984 18.1721 18.158 18.1452 18.0225C18.1182 17.8871 18.0517 17.7626 17.9541 17.665L17.2557 16.9666C17.1239 16.8393 16.9475 16.7689 16.7644 16.7705C16.5813 16.7721 16.4061 16.8456 16.2766 16.9751C16.1471 17.1046 16.0737 17.2797 16.0721 17.4629C16.0705 17.646 16.1409 17.8224 16.2681 17.9541L16.9665 18.6525C17.0313 18.7175 17.1083 18.769 17.193 18.8041C17.2777 18.8392 17.3686 18.8573 17.4603 18.8572Z" fill="#4C241D"/>
<path d="M5.58726 19.5556C5.72537 19.5555 5.86037 19.5146 5.9752 19.4378C6.09002 19.3611 6.17952 19.252 6.23237 19.1244C6.28522 18.9968 6.29905 18.8564 6.27211 18.721C6.24517 18.5855 6.17868 18.4611 6.08104 18.3634L4.68422 16.9666C4.55249 16.8393 4.37607 16.7689 4.19295 16.7705C4.00983 16.7721 3.83466 16.8456 3.70517 16.9751C3.57568 17.1046 3.50223 17.2797 3.50064 17.4629C3.49904 17.646 3.56944 17.8224 3.69666 17.9541L5.09348 19.3509C5.15825 19.4159 5.23522 19.4674 5.31996 19.5025C5.40469 19.5376 5.49553 19.5557 5.58726 19.5556Z" fill="#4C241D"/>
<path d="M9.07932 19.5556C9.21743 19.5555 9.35244 19.5146 9.46726 19.4378C9.58209 19.3611 9.67158 19.252 9.72443 19.1244C9.77728 18.9968 9.79111 18.8564 9.76418 18.721C9.73724 18.5855 9.67075 18.4611 9.5731 18.3634L8.17628 16.9666C8.04455 16.8393 7.86813 16.7689 7.68501 16.7705C7.50189 16.7721 7.32672 16.8456 7.19722 16.9751C7.06773 17.1046 6.99428 17.2797 6.99269 17.4629C6.9911 17.646 7.0615 17.8224 7.18872 17.9541L8.58554 19.3509C8.65031 19.4159 8.72728 19.4674 8.81202 19.5025C8.89676 19.5376 8.9876 19.5557 9.07932 19.5556Z" fill="#4C241D"/>
<path d="M3.64208 9.60055H4.19051C4.37574 9.60055 4.55338 9.52697 4.68436 9.39599C4.81534 9.26502 4.88892 9.08737 4.88892 8.90214C4.88892 8.71691 4.81534 8.53927 4.68436 8.40829C4.55338 8.27731 4.37574 8.20373 4.19051 8.20373H3.64208C3.23197 8.20331 2.83878 8.04021 2.54878 7.75022C2.25879 7.46023 2.09569 7.06703 2.09527 6.65692V5.73711C2.09574 5.32703 2.25886 4.93388 2.54884 4.64392C2.83883 4.35397 3.232 4.19089 3.64208 4.19047H4.19051V4.53968C4.19097 5.00262 4.37508 5.44646 4.70242 5.7738C5.02976 6.10115 5.47361 6.28525 5.93654 6.28571H6.63495C7.09803 6.28571 7.54214 6.10176 7.86958 5.77431C8.19703 5.44687 8.38098 5.00276 8.38098 4.53968C8.38098 4.0766 8.19703 3.63249 7.86958 3.30505C7.54214 2.97761 7.09803 2.79365 6.63495 2.79365H5.58733V0.698412C5.58733 0.513182 5.51375 0.335537 5.38277 0.20456C5.2518 0.073582 5.07415 0 4.88892 0C4.70369 0 4.52605 0.073582 4.39507 0.20456C4.26409 0.335537 4.19051 0.513182 4.19051 0.698412V2.79365H3.64208C2.86167 2.79448 2.11345 3.10486 1.5616 3.65668C1.00975 4.2085 0.699328 4.9567 0.69845 5.73711V6.65692C0.699282 7.43736 1.00968 8.1856 1.56154 8.73746C2.1134 9.28932 2.86164 9.59972 3.64208 9.60055ZM6.63495 4.19047C6.72757 4.19047 6.81639 4.22727 6.88188 4.29275C6.94737 4.35824 6.98416 4.44707 6.98416 4.53968C6.98416 4.6323 6.94737 4.72112 6.88188 4.78661C6.81639 4.8521 6.72757 4.88889 6.63495 4.88889H5.93654C5.84392 4.88889 5.7551 4.8521 5.68961 4.78661C5.62412 4.72112 5.58733 4.6323 5.58733 4.53968V4.19047H6.63495Z" fill="#4C241D"/>
</svg>
