<svg width="372" height="338" viewBox="0 0 372 338" fill="none" xmlns="http://www.w3.org/2000/svg">
<rect width="372" height="338" fill="white"/>
<path d="M180.197 161.138C159.065 161.138 138.8 169.533 123.858 184.475C108.916 199.417 100.522 219.682 100.522 240.813C100.522 284.817 224.2 161.138 180.197 161.138Z" fill="#E7D1C4"/>
<path d="M118.461 79.3089C117.237 79.3089 116.024 79.5502 114.892 80.0189C113.761 80.4877 112.732 81.1747 111.866 82.0409C111 82.907 110.313 83.9353 109.845 85.0669C109.376 86.1986 109.135 87.4114 109.135 88.6363L109.135 130.99H134.976L127.661 87.102C127.298 84.9244 126.174 82.9461 124.49 81.5191C122.805 80.0921 120.669 79.3089 118.461 79.3089Z" fill="#6B4F5B"/>
<path d="M118.464 75.0021C114.849 75.0058 111.383 76.4435 108.827 78.9995C106.27 81.5556 104.832 85.0213 104.828 88.6363V130.99C104.828 132.132 105.282 133.228 106.09 134.035C106.897 134.843 107.993 135.297 109.135 135.297H134.976C135.601 135.297 136.219 135.161 136.787 134.898C137.354 134.635 137.858 134.251 138.262 133.774C138.667 133.296 138.962 132.737 139.128 132.134C139.294 131.531 139.327 130.899 139.224 130.282L131.91 86.3935C131.388 83.2067 129.748 80.3101 127.284 78.2227C124.82 76.1354 121.693 74.9936 118.464 75.0021ZM113.442 126.683V88.6352C113.443 87.3046 113.972 86.0289 114.913 85.0879C115.853 84.1468 117.129 83.6174 118.459 83.6157C119.649 83.612 120.802 84.0328 121.71 84.8024C122.617 85.572 123.221 86.6401 123.412 87.8147L129.889 126.683H113.442Z" fill="#4C241D"/>
<path d="M234.618 79.3089H231.764C230.435 79.3089 229.121 79.5929 227.911 80.1418C226.701 80.6908 225.622 81.492 224.747 82.4918C223.871 83.4916 223.22 84.667 222.836 85.9391C222.451 87.2112 222.344 88.5508 222.519 89.868L228.002 130.99H255.565L243.63 86.232C243.1 84.2464 241.93 82.4913 240.3 81.2393C238.671 79.9874 236.673 79.3088 234.618 79.3089Z" fill="#6B4F5B"/>
<path d="M234.62 75.0021H231.77C229.827 75.0017 227.907 75.4166 226.137 76.2191C224.368 77.0216 222.79 78.193 221.511 79.6549C220.231 81.1168 219.279 82.8354 218.717 84.6954C218.156 86.5554 217.999 88.514 218.257 90.4397L223.737 131.56C223.875 132.593 224.383 133.542 225.167 134.229C225.952 134.916 226.959 135.296 228.002 135.297H255.565C256.225 135.296 256.876 135.144 257.468 134.852C258.06 134.561 258.577 134.136 258.979 133.613C259.381 133.089 259.657 132.48 259.786 131.833C259.916 131.186 259.894 130.518 259.724 129.88L247.788 85.123C247.012 82.2223 245.302 79.6585 242.921 77.8287C240.54 75.9989 237.623 75.0054 234.62 75.0021ZM231.77 126.683L226.786 89.2973C226.691 88.5882 226.748 87.8669 226.955 87.1818C227.162 86.4968 227.513 85.8639 227.984 85.3257C228.456 84.7875 229.037 84.3564 229.689 84.0615C230.341 83.7665 231.048 83.6145 231.764 83.6157H234.619C235.724 83.6191 236.796 83.9858 237.672 84.6592C238.548 85.3326 239.177 86.2754 239.464 87.3421L249.958 126.683H231.77Z" fill="#4C241D"/>
<path d="M126.362 135.297H78.9879C69.8501 135.297 61.0866 138.927 54.6252 145.388C48.1638 151.85 44.5338 160.613 44.5338 169.751H126.362V135.297Z" fill="#6B4F5B"/>
<path d="M126.362 130.99H78.9879C68.7114 131.001 58.859 135.089 51.5924 142.355C44.3258 149.622 40.2385 159.474 40.2271 169.751C40.2271 170.893 40.6808 171.989 41.4885 172.796C42.2961 173.604 43.3916 174.058 44.5338 174.058H126.362C127.504 174.058 128.6 173.604 129.408 172.796C130.215 171.989 130.669 170.893 130.669 169.751V135.297C130.669 134.155 130.215 133.059 129.408 132.251C128.6 131.444 127.504 130.99 126.362 130.99ZM49.1474 165.444C50.192 158.273 53.7814 151.716 59.2599 146.972C64.7384 142.228 71.7407 139.612 78.9879 139.604H122.055V165.444H49.1474Z" fill="#4C241D"/>
<path d="M238.338 156.831L255.565 126.683L238.338 156.831Z" fill="white"/>
<path d="M255.565 122.376C254.805 122.376 254.058 122.576 253.401 122.957C252.743 123.339 252.198 123.887 251.821 124.547L234.594 154.694C234.048 155.685 233.912 156.85 234.218 157.939C234.524 159.029 235.246 159.954 236.228 160.515C237.21 161.076 238.373 161.229 239.467 160.939C240.56 160.65 241.496 159.941 242.072 158.968L259.299 128.82C259.673 128.166 259.869 127.425 259.867 126.671C259.864 125.917 259.664 125.176 259.286 124.524C258.908 123.872 258.366 123.33 257.713 122.953C257.059 122.576 256.319 122.377 255.565 122.376Z" fill="#4C241D"/>
<path d="M91.9081 156.831V151.687C91.9081 145.056 94.5425 138.696 99.2316 134.007C103.921 129.318 110.281 126.683 116.912 126.683H139.282V89.0476C139.238 86.9116 139.906 84.8216 141.181 83.1077C142.457 81.3938 144.267 80.1538 146.326 79.5835C147.577 79.2699 148.879 79.2186 150.15 79.433C151.421 79.6473 152.635 80.1226 153.713 80.8289C154.792 81.5352 155.712 82.4572 156.417 83.5368C157.122 84.6165 157.595 85.8303 157.808 87.102L164.405 126.683L255.565 126.683L264.178 113.763L258.462 90.8973C258.118 89.5218 258.093 88.086 258.387 86.6991C258.681 85.3122 259.288 84.0106 260.161 82.8934C261.034 81.7761 262.15 80.8726 263.424 80.2514C264.699 79.6303 266.098 79.308 267.516 79.3089H274.299C276.341 79.3089 278.326 79.9787 279.95 81.2157C281.574 82.4527 282.747 84.1885 283.29 86.1567L290.019 110.561V189.209C290.019 202.324 284.809 214.902 275.535 224.175C266.261 233.449 253.683 238.659 240.568 238.659L122.292 238.659C112.946 238.659 103.744 236.352 95.5037 231.941C87.2633 227.531 80.2391 221.155 75.0547 213.378L66.0676 199.898H35.9677C34.8303 199.898 33.7041 199.674 32.6534 199.239C31.6026 198.804 30.6478 198.166 29.8435 197.362C29.0393 196.558 28.4013 195.603 27.9661 194.553C27.5308 193.502 27.3068 192.376 27.3068 191.238V172.935C27.307 168.663 29.004 164.567 32.0242 161.547C35.0445 158.527 39.1407 156.831 43.4119 156.831H74.6811" fill="#B5A19C"/>
<path d="M148.632 75.0022C146.804 74.9955 144.993 75.3572 143.307 76.0657C141.622 76.7742 140.096 77.8149 138.822 79.1259C137.547 80.4368 136.55 81.9911 135.889 83.6959C135.228 85.4008 134.918 87.2213 134.976 89.0487V122.377H116.913C109.142 122.385 101.691 125.476 96.196 130.971C90.7009 136.466 87.6099 143.917 87.6014 151.688V156.831C87.6014 157.973 88.0551 159.068 88.8628 159.876C89.6705 160.684 90.7659 161.137 91.9081 161.137C93.0503 161.137 94.1458 160.684 94.9535 159.876C95.7611 159.068 96.2149 157.973 96.2149 156.831V151.687C96.2214 146.2 98.4041 140.939 102.284 137.059C106.164 133.179 111.425 130.997 116.912 130.99H139.282C140.425 130.99 141.52 130.536 142.328 129.729C143.135 128.921 143.589 127.826 143.589 126.683V89.0477C143.544 87.878 143.886 86.726 144.564 85.7717C145.242 84.8173 146.217 84.1141 147.336 83.7719C148.019 83.5997 148.731 83.5708 149.426 83.687C150.12 83.8031 150.784 84.0619 151.374 84.447C151.949 84.8283 152.441 85.3239 152.817 85.9031C153.193 86.4823 153.446 87.1327 153.56 87.8138L160.155 127.393C160.323 128.398 160.842 129.311 161.62 129.97C162.397 130.629 163.384 130.99 164.403 130.99L255.565 130.99C256.274 130.99 256.972 130.815 257.597 130.481C258.222 130.146 258.755 129.662 259.148 129.073L267.762 116.152C268.094 115.653 268.319 115.089 268.421 114.498C268.523 113.907 268.501 113.301 268.355 112.719L262.639 89.8606C262.452 89.1199 262.437 88.3465 262.595 87.5992C262.753 86.8518 263.079 86.1503 263.549 85.5481C264.018 84.9459 264.619 84.4588 265.306 84.1239C265.992 83.7891 266.746 83.6153 267.51 83.6158H274.299C275.398 83.6171 276.467 83.9778 277.342 84.6431C278.216 85.3083 278.849 86.2415 279.144 87.3002L285.712 111.14V189.2C285.701 201.171 280.941 212.647 272.477 221.112C264.013 229.577 252.537 234.339 240.567 234.352L122.291 234.352C113.652 234.362 105.145 232.234 97.5282 228.157C89.9115 224.081 83.4222 218.182 78.639 210.988L69.6508 197.508C69.2574 196.918 68.7245 196.435 68.0994 196.101C67.4744 195.766 66.7764 195.591 66.0676 195.591H35.9666C34.8123 195.59 33.7058 195.131 32.8897 194.315C32.0736 193.498 31.6147 192.392 31.6135 191.237V172.934C31.6172 169.806 32.8614 166.808 35.073 164.596C37.2847 162.385 40.2832 161.141 43.4108 161.137H74.6811C75.8233 161.137 76.9188 160.684 77.7264 159.876C78.5341 159.068 78.9878 157.973 78.9878 156.831C78.9878 155.688 78.5341 154.593 77.7264 153.785C76.9188 152.978 75.8233 152.524 74.6811 152.524H43.4108C37.9992 152.53 32.8109 154.682 28.9844 158.509C25.1579 162.336 23.0057 167.524 23 172.936V191.239C23.0046 194.677 24.3722 197.972 26.8029 200.403C29.2337 202.833 32.5291 204.201 35.9666 204.205H63.7624L71.4715 215.766C77.0405 224.141 84.5953 231.007 93.4623 235.753C102.329 240.499 112.233 242.977 122.29 242.966L240.567 242.966C254.819 242.95 268.483 237.281 278.562 227.203C288.64 217.125 294.309 203.46 294.326 189.208V110.561C294.327 110.174 294.274 109.79 294.17 109.418L287.445 85.0155C286.647 82.1402 284.931 79.6049 282.557 77.7968C280.183 75.9887 277.283 75.0073 274.299 75.0022H267.506C265.435 75.0018 263.39 75.4739 261.528 76.3824C259.666 77.2909 258.035 78.612 256.76 80.2453C255.486 81.8786 254.6 83.781 254.171 85.808C253.742 87.8349 253.78 89.9331 254.284 91.9429L259.537 112.96L253.26 122.377L168.054 122.377L162.057 86.3936C161.745 84.5462 161.058 82.7825 160.037 81.2115C159.016 79.6406 157.684 78.2961 156.122 77.2611C153.903 75.785 151.297 74.9982 148.632 75.0001V75.0022Z" fill="#4C241D"/>
<path d="M97.033 225.264L98.0018 229.46C99.8004 237.251 104.62 244.008 111.401 248.245C118.181 252.482 126.367 253.852 134.158 252.053L126.408 218.482" fill="#B5A19C"/>
<path d="M125.439 214.286C124.326 214.543 123.361 215.231 122.755 216.2C122.15 217.169 121.954 218.338 122.211 219.451L128.912 248.476C122.818 248.831 116.794 247.019 111.906 243.362C107.017 239.705 103.579 234.438 102.198 228.491L101.229 224.295C100.972 223.182 100.284 222.217 99.3152 221.611C98.3466 221.006 97.1771 220.81 96.0642 221.067C94.9512 221.324 93.9859 222.013 93.3807 222.982C92.7754 223.95 92.5797 225.12 92.8366 226.233L93.8054 230.429C95.8703 239.327 101.38 247.043 109.127 251.884C116.874 256.724 126.224 258.294 135.127 256.25C136.24 255.993 137.205 255.304 137.81 254.335C138.416 253.367 138.611 252.197 138.354 251.084L130.604 217.513C130.347 216.4 129.659 215.435 128.69 214.83C127.721 214.225 126.552 214.029 125.439 214.286Z" fill="#4C241D"/>
<path d="M87.6014 195.592C89.9799 195.592 91.9081 197.521 91.9081 199.899C91.9081 202.278 89.9799 204.206 87.6014 204.206C85.2228 204.206 83.2946 202.278 83.2946 199.899C83.2946 197.521 85.2228 195.592 87.6014 195.592Z" fill="#4C241D"/>
<path d="M257.718 202.052C257.153 202.051 256.593 202.162 256.07 202.379C255.547 202.595 255.073 202.913 254.673 203.313L248.213 209.774C247.429 210.586 246.995 211.674 247.005 212.803C247.014 213.932 247.467 215.012 248.266 215.811C249.064 216.609 250.144 217.062 251.274 217.072C252.403 217.082 253.491 216.648 254.303 215.863L260.763 209.403C261.365 208.801 261.775 208.034 261.941 207.198C262.108 206.363 262.022 205.497 261.696 204.71C261.371 203.923 260.819 203.251 260.111 202.778C259.402 202.304 258.57 202.052 257.718 202.052Z" fill="#4C241D"/>
<path d="M255.565 186.978C254.999 186.977 254.439 187.088 253.917 187.305C253.394 187.522 252.919 187.839 252.52 188.24L243.907 196.853C243.122 197.666 242.688 198.753 242.698 199.883C242.708 201.012 243.161 202.092 243.959 202.891C244.758 203.689 245.838 204.142 246.967 204.152C248.096 204.162 249.184 203.728 249.996 202.943L258.61 194.33C259.212 193.727 259.622 192.96 259.788 192.125C259.954 191.289 259.869 190.423 259.543 189.637C259.217 188.85 258.665 188.177 257.957 187.704C257.249 187.231 256.417 186.978 255.565 186.978Z" fill="#4C241D"/>
<path d="M229.724 204.205C229.159 204.204 228.599 204.316 228.076 204.532C227.554 204.749 227.079 205.066 226.68 205.467L222.373 209.774C221.588 210.586 221.154 211.674 221.164 212.803C221.174 213.932 221.627 215.012 222.425 215.811C223.224 216.609 224.304 217.062 225.433 217.072C226.562 217.082 227.65 216.648 228.463 215.863L232.769 211.557C233.371 210.954 233.781 210.187 233.948 209.352C234.114 208.516 234.028 207.651 233.702 206.864C233.377 206.077 232.825 205.404 232.117 204.931C231.409 204.458 230.576 204.205 229.724 204.205Z" fill="#4C241D"/>
<path d="M210.344 197.745C209.778 197.744 209.218 197.855 208.696 198.072C208.173 198.288 207.699 198.606 207.299 199.007L200.839 205.467C200.054 206.279 199.62 207.367 199.63 208.496C199.64 209.625 200.093 210.706 200.891 211.504C201.69 212.303 202.77 212.756 203.899 212.765C205.029 212.775 206.116 212.341 206.929 211.557L213.389 205.096C213.991 204.494 214.401 203.727 214.567 202.891C214.733 202.056 214.648 201.19 214.322 200.404C213.996 199.617 213.444 198.944 212.736 198.471C212.028 197.998 211.196 197.745 210.344 197.745Z" fill="#4C241D"/>
<path d="M234.031 186.978C233.466 186.977 232.905 187.088 232.383 187.305C231.86 187.522 231.386 187.839 230.986 188.24L226.68 192.546C225.895 193.359 225.461 194.447 225.471 195.576C225.481 196.705 225.933 197.785 226.732 198.584C227.531 199.382 228.611 199.835 229.74 199.845C230.869 199.855 231.957 199.421 232.769 198.636L237.076 194.329C237.678 193.727 238.088 192.96 238.254 192.125C238.42 191.289 238.335 190.423 238.009 189.637C237.683 188.85 237.131 188.177 236.423 187.704C235.715 187.231 234.883 186.978 234.031 186.978Z" fill="#4C241D"/>
<path d="M178.043 208.512C177.478 208.511 176.918 208.622 176.395 208.839C175.872 209.055 175.398 209.373 174.998 209.774L166.385 218.387C165.6 219.199 165.166 220.287 165.176 221.416C165.186 222.546 165.639 223.626 166.437 224.424C167.236 225.223 168.316 225.676 169.445 225.686C170.575 225.695 171.662 225.261 172.475 224.477L181.088 215.863C181.69 215.261 182.1 214.494 182.266 213.658C182.433 212.823 182.347 211.957 182.021 211.17C181.695 210.384 181.144 209.711 180.436 209.238C179.727 208.765 178.895 208.512 178.043 208.512Z" fill="#4C241D"/>
<path d="M96.3925 204.368C96.2278 203.488 91.5926 199.323 90.9617 198.692L84.5016 192.232C83.8924 191.644 83.0764 191.318 82.2295 191.326C81.3826 191.333 80.5725 191.673 79.9736 192.272C79.3747 192.87 79.035 193.681 79.0276 194.527C79.0203 195.374 79.3459 196.19 79.9342 196.799L90.9617 207.136C92.2225 208.396 94.0626 208.941 95.3244 207.681C95.7949 207.284 96.1445 206.763 96.3334 206.177C96.5222 205.591 96.5427 204.964 96.3925 204.368Z" fill="#4C241D"/>
<path d="M92.2591 191.185C91.3795 191.349 87.2148 195.984 86.5839 196.615L80.1238 203.076C79.5354 203.685 79.2098 204.501 79.2172 205.348C79.2245 206.194 79.5642 207.005 80.1631 207.603C80.762 208.202 81.5721 208.542 82.4191 208.549C83.266 208.557 84.0819 208.231 84.6911 207.643L95.0273 196.615C96.2881 195.355 96.8329 193.515 95.5721 192.253C95.1754 191.782 94.6545 191.433 94.0687 191.244C93.483 191.055 92.856 191.034 92.2591 191.185Z" fill="#4C241D"/>
<path d="M158.663 206.358C158.097 206.358 157.537 206.469 157.015 206.685C156.492 206.902 156.017 207.22 155.618 207.62L149.158 214.08C148.373 214.893 147.939 215.98 147.949 217.11C147.959 218.239 148.412 219.319 149.21 220.118C150.009 220.916 151.089 221.369 152.218 221.379C153.347 221.389 154.435 220.955 155.248 220.17L161.708 213.71C162.31 213.108 162.72 212.34 162.886 211.505C163.052 210.67 162.967 209.804 162.641 209.017C162.315 208.23 161.763 207.558 161.055 207.084C160.347 206.611 159.515 206.358 158.663 206.358Z" fill="#4C241D"/>
<path d="M173.737 182.671C173.171 182.671 172.611 182.782 172.088 182.998C171.566 183.215 171.091 183.532 170.692 183.933L162.078 192.546C161.294 193.359 160.86 194.447 160.869 195.576C160.879 196.705 161.332 197.785 162.131 198.584C162.929 199.382 164.009 199.835 165.139 199.845C166.268 199.855 167.356 199.421 168.168 198.636L176.781 190.023C177.384 189.42 177.794 188.653 177.96 187.818C178.126 186.983 178.041 186.117 177.715 185.33C177.389 184.543 176.837 183.87 176.129 183.397C175.421 182.924 174.588 182.671 173.737 182.671Z" fill="#4C241D"/>
<path d="M186.657 186.978C186.091 186.977 185.531 187.088 185.009 187.305C184.486 187.522 184.011 187.839 183.612 188.24L179.305 192.546C178.521 193.359 178.087 194.447 178.096 195.576C178.106 196.705 178.559 197.785 179.358 198.584C180.156 199.382 181.236 199.835 182.366 199.845C183.495 199.855 184.583 199.421 185.395 198.636L189.702 194.329C190.304 193.727 190.714 192.96 190.88 192.125C191.046 191.289 190.961 190.423 190.635 189.637C190.309 188.85 189.757 188.177 189.049 187.704C188.341 187.231 187.509 186.978 186.657 186.978Z" fill="#4C241D"/>
<path d="M212.497 217.125C211.932 217.125 211.372 217.236 210.849 217.452C210.326 217.669 209.852 217.987 209.452 218.387L205.146 222.694C204.361 223.506 203.927 224.594 203.937 225.723C203.947 226.852 204.4 227.933 205.198 228.731C205.997 229.53 207.077 229.983 208.206 229.992C209.335 230.002 210.423 229.568 211.235 228.784L215.542 224.477C216.144 223.875 216.554 223.107 216.72 222.272C216.887 221.437 216.801 220.571 216.475 219.784C216.15 218.997 215.598 218.325 214.89 217.851C214.182 217.378 213.349 217.125 212.497 217.125Z" fill="#4C241D"/>
<path d="M212.497 169.751C211.932 169.75 211.372 169.861 210.849 170.078C210.327 170.295 209.852 170.612 209.453 171.013L200.839 179.626C200.054 180.438 199.62 181.526 199.63 182.656C199.64 183.785 200.093 184.865 200.891 185.664C201.69 186.462 202.77 186.915 203.899 186.925C205.029 186.935 206.116 186.5 206.929 185.716L215.542 177.102C216.144 176.5 216.554 175.733 216.721 174.898C216.887 174.062 216.801 173.196 216.475 172.41C216.15 171.623 215.598 170.95 214.89 170.477C214.182 170.004 213.349 169.751 212.497 169.751Z" fill="#4C241D"/>
<path d="M195.27 156.831C194.419 156.831 193.586 157.083 192.878 157.557C192.17 158.03 191.618 158.702 191.292 159.489C190.966 160.276 190.881 161.142 191.047 161.977C191.213 162.813 191.623 163.58 192.225 164.182L196.532 168.489C197.344 169.273 198.432 169.708 199.562 169.698C200.691 169.688 201.771 169.235 202.569 168.436C203.368 167.638 203.821 166.558 203.831 165.429C203.841 164.299 203.406 163.211 202.622 162.399L198.315 158.092C197.916 157.692 197.441 157.374 196.919 157.158C196.396 156.941 195.836 156.83 195.27 156.831Z" fill="#4C241D"/>
<path d="M186.657 169.751C185.805 169.751 184.973 170.004 184.265 170.477C183.556 170.95 183.005 171.623 182.679 172.41C182.353 173.196 182.268 174.062 182.434 174.898C182.6 175.733 183.01 176.5 183.612 177.102L187.919 181.409C188.731 182.194 189.819 182.628 190.948 182.618C192.077 182.608 193.157 182.155 193.956 181.357C194.754 180.558 195.207 179.478 195.217 178.349C195.227 177.22 194.793 176.132 194.008 175.319L189.702 171.013C189.302 170.612 188.828 170.295 188.305 170.078C187.783 169.861 187.222 169.75 186.657 169.751Z" fill="#4C241D"/>
<path d="M259.872 165.444C259.02 165.444 258.188 165.697 257.479 166.17C256.771 166.643 256.22 167.316 255.894 168.103C255.568 168.89 255.482 169.755 255.649 170.591C255.815 171.426 256.225 172.193 256.827 172.796L265.44 181.409C266.253 182.194 267.341 182.628 268.47 182.618C269.599 182.608 270.679 182.155 271.478 181.357C272.276 180.558 272.729 179.478 272.739 178.349C272.749 177.22 272.315 176.132 271.53 175.319L262.917 166.706C262.517 166.305 262.043 165.988 261.52 165.771C260.997 165.555 260.437 165.443 259.872 165.444Z" fill="#4C241D"/>
<path d="M238.338 165.444C237.486 165.444 236.654 165.697 235.946 166.17C235.238 166.643 234.686 167.316 234.36 168.103C234.034 168.89 233.949 169.755 234.115 170.591C234.281 171.426 234.691 172.193 235.293 172.796L243.907 181.409C244.719 182.194 245.807 182.628 246.936 182.618C248.065 182.608 249.145 182.155 249.944 181.357C250.742 180.558 251.195 179.478 251.205 178.349C251.215 177.22 250.781 176.132 249.996 175.319L241.383 166.706C240.983 166.305 240.509 165.988 239.986 165.771C239.464 165.555 238.904 165.443 238.338 165.444Z" fill="#4C241D"/>
<path d="M283.996 212.984L283.236 209.689C283.036 208.524 283.289 207.326 283.944 206.342C284.599 205.358 285.605 204.661 286.757 204.396C287.909 204.13 289.119 204.314 290.139 204.912C291.159 205.51 291.912 206.475 292.243 207.61L293.004 210.905C294.188 216.032 299.625 219.165 305.124 217.896L311.056 216.526C316.556 215.257 320.069 210.056 318.885 204.93L318.124 201.634L315.872 202.154C309.663 203.588 303.526 200.05 302.19 194.263L301.221 190.067C299.885 184.28 303.851 178.41 310.059 176.976C316.268 175.543 322.405 179.081 323.741 184.868L325.194 191.162L338.704 188.043C339.271 187.869 339.867 187.814 340.456 187.881C341.045 187.948 341.614 188.135 342.127 188.431C342.641 188.727 343.088 189.126 343.44 189.602C343.793 190.078 344.044 190.622 344.177 191.2C344.31 191.777 344.323 192.376 344.215 192.959C344.107 193.541 343.88 194.095 343.549 194.587C343.217 195.078 342.788 195.496 342.288 195.814C341.788 196.132 341.228 196.344 340.642 196.436L327.131 199.555L327.892 202.85C330.144 212.607 323.46 222.503 312.993 224.919L307.061 226.289C296.593 228.706 286.248 222.738 283.996 212.984ZM314.732 186.947C314.56 186.387 314.182 185.913 313.675 185.621C313.167 185.328 312.567 185.239 311.997 185.371C311.426 185.503 310.926 185.846 310.598 186.331C310.27 186.817 310.138 187.408 310.229 187.987L311.198 192.184C311.352 192.755 311.727 193.242 312.24 193.538C312.753 193.834 313.362 193.914 313.934 193.762L316.187 193.242L314.732 186.947Z" fill="#4C241D"/>
</svg>
