<svg width="372" height="338" viewBox="0 0 372 338" fill="none" xmlns="http://www.w3.org/2000/svg">
<rect width="372" height="338" fill="white"/>
<path d="M207.429 188.285C186.401 188.285 166.234 179.931 151.365 165.062C136.496 150.193 128.143 130.027 128.143 108.999C128.143 65.2106 251.217 188.285 207.429 188.285Z" fill="#E7D1C4"/>
<path d="M145.995 269.714C144.776 269.714 143.569 269.474 142.443 269.008C141.317 268.541 140.294 267.858 139.432 266.996C138.57 266.134 137.887 265.11 137.42 263.984C136.954 262.858 136.714 261.651 136.714 260.432V218.286H162.429L155.149 261.959C154.788 264.126 153.67 266.095 151.994 267.515C150.317 268.935 148.192 269.714 145.995 269.714Z" fill="#6B4F5B"/>
<path d="M145.997 274C142.4 273.996 138.951 272.566 136.407 270.022C133.863 267.479 132.433 264.03 132.429 260.432V218.286C132.429 217.149 132.88 216.059 133.684 215.255C134.488 214.451 135.578 214 136.714 214H162.429C163.051 214 163.666 214.135 164.231 214.397C164.796 214.659 165.297 215.04 165.699 215.515C166.102 215.99 166.396 216.547 166.561 217.148C166.726 217.748 166.759 218.377 166.656 218.991L159.378 262.664C158.858 265.835 157.226 268.718 154.774 270.795C152.322 272.872 149.211 274.008 145.997 274ZM141 222.571V260.434C141.001 261.758 141.527 263.027 142.464 263.964C143.4 264.9 144.669 265.427 145.993 265.429C147.177 265.432 148.324 265.013 149.227 264.248C150.131 263.482 150.731 262.419 150.921 261.25L157.367 222.571H141Z" fill="#4C241D"/>
<path d="M261.584 269.714H258.744C257.421 269.714 256.114 269.432 254.91 268.885C253.706 268.339 252.632 267.542 251.761 266.547C250.89 265.552 250.241 264.382 249.859 263.116C249.477 261.85 249.37 260.517 249.544 259.207L255 218.286H282.429L270.552 262.825C270.025 264.801 268.86 266.547 267.238 267.793C265.617 269.039 263.629 269.714 261.584 269.714Z" fill="#6B4F5B"/>
<path d="M261.586 274H258.75C256.817 274 254.905 273.587 253.145 272.789C251.384 271.99 249.814 270.825 248.541 269.37C247.267 267.915 246.32 266.205 245.761 264.354C245.203 262.503 245.046 260.554 245.302 258.638L250.756 217.719C250.893 216.69 251.399 215.746 252.18 215.062C252.96 214.378 253.962 214.001 255 214H282.429C283.085 214 283.733 214.152 284.322 214.442C284.911 214.733 285.426 215.155 285.826 215.676C286.226 216.197 286.501 216.802 286.629 217.447C286.758 218.091 286.737 218.756 286.567 219.39L274.69 263.929C273.918 266.815 272.215 269.366 269.846 271.187C267.477 273.008 264.574 273.997 261.586 274ZM258.75 222.571L253.79 259.775C253.696 260.48 253.753 261.198 253.958 261.88C254.164 262.561 254.513 263.191 254.982 263.727C255.452 264.262 256.03 264.691 256.679 264.985C257.327 265.278 258.032 265.43 258.744 265.429H261.585C262.684 265.425 263.752 265.06 264.623 264.39C265.494 263.72 266.121 262.782 266.406 261.72L276.849 222.571H258.75Z" fill="#4C241D"/>
<path d="M153.857 214H106.714C97.6212 214 88.9005 210.388 82.4706 203.958C76.0408 197.528 72.4286 188.807 72.4286 179.714H153.857V214Z" fill="#6B4F5B"/>
<path d="M153.857 218.286H106.714C96.488 218.274 86.6838 214.207 79.4527 206.976C72.2216 199.745 68.1542 189.94 68.1429 179.714C68.1429 178.578 68.5944 177.487 69.3981 176.684C70.2019 175.88 71.292 175.428 72.4286 175.428H153.857C154.994 175.428 156.084 175.88 156.888 176.684C157.691 177.487 158.143 178.578 158.143 179.714V214C158.143 215.137 157.691 216.227 156.888 217.03C156.084 217.834 154.994 218.286 153.857 218.286ZM77.0197 184C78.0592 191.136 81.631 197.661 87.0827 202.382C92.5345 207.103 99.5025 209.705 106.714 209.714H149.571V184H77.0197Z" fill="#4C241D"/>
<path d="M265.286 192.571L282.429 222.571L265.286 192.571Z" fill="white"/>
<path d="M282.428 226.857C281.672 226.858 280.929 226.658 280.275 226.279C279.621 225.9 279.078 225.354 278.703 224.697L261.56 194.697C261.016 193.712 260.882 192.552 261.186 191.468C261.49 190.384 262.208 189.463 263.186 188.905C264.163 188.346 265.321 188.195 266.409 188.483C267.497 188.771 268.428 189.476 269.001 190.445L286.144 220.445C286.517 221.096 286.711 221.834 286.709 222.584C286.707 223.334 286.508 224.071 286.132 224.72C285.755 225.369 285.215 225.908 284.566 226.283C283.916 226.658 283.179 226.856 282.428 226.857Z" fill="#4C241D"/>
<path d="M119.571 192.571V197.69C119.571 204.289 122.193 210.617 126.859 215.284C131.525 219.95 137.854 222.571 144.453 222.571H166.714V260.023C166.67 262.149 167.335 264.229 168.604 265.934C169.873 267.639 171.675 268.873 173.724 269.441C174.968 269.753 176.264 269.804 177.529 269.591C178.794 269.378 180.001 268.905 181.074 268.202C182.148 267.499 183.064 266.581 183.765 265.507C184.467 264.433 184.938 263.225 185.149 261.959L191.714 222.571H282.429L291 235.429L285.312 258.182C284.97 259.551 284.944 260.98 285.237 262.36C285.53 263.74 286.133 265.036 287.002 266.147C287.871 267.259 288.981 268.158 290.25 268.776C291.518 269.394 292.91 269.715 294.321 269.714H301.071C303.103 269.714 305.078 269.048 306.694 267.817C308.311 266.586 309.478 264.858 310.018 262.9L316.714 238.615V160.351C316.714 147.3 311.529 134.784 302.301 125.556C293.072 116.327 280.556 111.143 267.505 111.143H149.807C140.506 111.143 131.35 113.439 123.149 117.827C114.949 122.216 107.959 128.561 102.8 136.3L93.8571 149.714H63.9042C62.7725 149.714 61.6518 149.937 60.6061 150.37C59.5605 150.803 58.6104 151.438 57.81 152.238C57.0097 153.038 56.3749 153.988 55.9417 155.034C55.5086 156.079 55.2856 157.2 55.2856 158.332V176.546C55.2859 180.796 56.9745 184.872 59.9801 187.878C62.9856 190.883 67.0618 192.571 71.3121 192.571H102.429" fill="#B5A19C"/>
<path d="M176.019 274C174.199 274.007 172.397 273.647 170.72 272.942C169.042 272.237 167.524 271.201 166.256 269.896C164.987 268.592 163.995 267.045 163.337 265.349C162.68 263.652 162.371 261.841 162.429 260.022V226.857H144.454C136.721 226.849 129.307 223.773 123.838 218.304C118.37 212.836 115.294 205.422 115.286 197.689V192.571C115.286 191.435 115.737 190.345 116.541 189.541C117.345 188.737 118.435 188.286 119.571 188.286C120.708 188.286 121.798 188.737 122.602 189.541C123.406 190.345 123.857 191.435 123.857 192.571V197.69C123.864 203.15 126.036 208.385 129.897 212.246C133.758 216.107 138.993 218.279 144.453 218.286H166.714C167.851 218.286 168.941 218.737 169.745 219.541C170.548 220.345 171 221.435 171 222.571V260.023C170.955 261.187 171.296 262.333 171.97 263.283C172.645 264.233 173.615 264.933 174.729 265.273C175.408 265.445 176.116 265.473 176.808 265.358C177.499 265.242 178.159 264.985 178.746 264.601C179.319 264.222 179.808 263.729 180.183 263.152C180.557 262.576 180.809 261.929 180.923 261.251L187.485 221.865C187.652 220.865 188.169 219.956 188.942 219.301C189.716 218.645 190.698 218.286 191.712 218.286H282.429C283.134 218.286 283.829 218.46 284.451 218.793C285.073 219.126 285.603 219.607 285.994 220.194L294.566 233.051C294.897 233.548 295.12 234.109 295.222 234.697C295.324 235.285 295.301 235.889 295.156 236.468L289.468 259.214C289.282 259.951 289.267 260.721 289.424 261.465C289.581 262.208 289.906 262.906 290.373 263.506C290.841 264.105 291.439 264.59 292.122 264.923C292.805 265.256 293.555 265.429 294.315 265.429H301.071C302.165 265.427 303.228 265.068 304.099 264.406C304.969 263.744 305.599 262.816 305.893 261.762L312.429 238.039V160.36C312.417 148.448 307.68 137.027 299.258 128.604C290.836 120.18 279.415 115.442 267.504 115.429H149.806C141.209 115.419 132.744 117.536 125.164 121.593C117.585 125.65 111.127 131.52 106.367 138.679L97.4229 152.093C97.0314 152.68 96.5011 153.161 95.8791 153.493C95.2571 153.826 94.5625 154 93.8571 154H63.9032C62.7546 154.001 61.6535 154.458 60.8414 155.271C60.0293 156.083 59.5726 157.184 59.5714 158.333V176.547C59.5751 179.659 60.8132 182.643 63.014 184.844C65.2149 187.044 68.1988 188.282 71.3111 188.286H102.429C103.565 188.286 104.655 188.737 105.459 189.541C106.263 190.345 106.714 191.435 106.714 192.571C106.714 193.708 106.263 194.798 105.459 195.602C104.655 196.406 103.565 196.857 102.429 196.857H71.3111C65.9259 196.851 60.763 194.709 56.9552 190.901C53.1474 187.093 51.0057 181.93 51 176.545V158.331C51.0045 154.91 52.3655 151.631 54.7843 149.212C57.2032 146.793 60.4826 145.433 63.9032 145.429H91.5632L99.2346 133.924C104.776 125.59 112.294 118.757 121.118 114.035C129.942 109.312 139.797 106.846 149.805 106.857H267.504C281.687 106.873 295.284 112.515 305.313 122.543C315.342 132.572 320.984 146.169 321 160.352V238.615C321.001 239 320.949 239.383 320.845 239.753L314.152 264.036C313.359 266.897 311.651 269.42 309.289 271.219C306.927 273.018 304.041 273.995 301.071 274H294.312C292.25 274 290.215 273.531 288.362 272.627C286.509 271.722 284.887 270.408 283.618 268.783C282.35 267.157 281.468 265.264 281.041 263.247C280.614 261.23 280.653 259.142 281.154 257.142L286.381 236.228L280.135 226.857H195.345L189.377 262.664C189.067 264.503 188.383 266.258 187.367 267.821C186.351 269.384 185.025 270.722 183.471 271.752C181.264 273.221 178.67 274.004 176.019 274.002V274Z" fill="#4C241D"/>
<path d="M119.571 128.286V124C119.571 116.043 122.732 108.413 128.358 102.787C133.984 97.1606 141.615 93.9999 149.571 93.9999V128.286" fill="#B5A19C"/>
<path d="M149.571 132.571C148.435 132.571 147.345 132.12 146.541 131.316C145.737 130.512 145.286 129.422 145.286 128.286V98.6424C139.297 99.6632 133.862 102.768 129.941 107.408C126.02 112.048 123.865 117.925 123.857 124V128.286C123.857 129.422 123.406 130.512 122.602 131.316C121.798 132.12 120.708 132.571 119.571 132.571C118.435 132.571 117.345 132.12 116.541 131.316C115.737 130.512 115.286 129.422 115.286 128.286V124C115.296 114.91 118.911 106.195 125.339 99.7676C131.767 93.34 140.481 89.7244 149.571 89.7142C150.708 89.7142 151.798 90.1658 152.602 90.9695C153.406 91.7732 153.857 92.8633 153.857 93.9999V128.286C153.857 129.422 153.406 130.512 152.602 131.316C151.798 132.12 150.708 132.571 149.571 132.571Z" fill="#4C241D"/>
<path d="M115.286 153.999C117.653 153.999 119.571 152.08 119.571 149.713C119.571 147.346 117.653 145.427 115.286 145.427C112.919 145.427 111 147.346 111 149.713C111 152.08 112.919 153.999 115.286 153.999Z" fill="#4C241D"/>
<path d="M284.571 147.571C284.009 147.572 283.451 147.461 282.931 147.246C282.411 147.03 281.939 146.714 281.541 146.316L275.113 139.887C274.332 139.079 273.9 137.996 273.91 136.872C273.92 135.749 274.37 134.674 275.165 133.879C275.96 133.085 277.035 132.634 278.158 132.624C279.282 132.614 280.365 133.046 281.173 133.827L287.601 140.256C288.201 140.855 288.609 141.619 288.774 142.45C288.939 143.281 288.854 144.143 288.53 144.926C288.206 145.709 287.657 146.378 286.952 146.849C286.247 147.32 285.419 147.571 284.571 147.571Z" fill="#4C241D"/>
<path d="M282.429 162.571C281.866 162.572 281.308 162.461 280.788 162.246C280.268 162.03 279.796 161.714 279.399 161.316L270.827 152.744C270.046 151.936 269.614 150.853 269.624 149.73C269.634 148.606 270.085 147.531 270.879 146.736C271.674 145.942 272.749 145.491 273.873 145.481C274.996 145.472 276.079 145.904 276.887 146.684L285.459 155.256C286.058 155.855 286.466 156.619 286.631 157.45C286.796 158.281 286.711 159.143 286.387 159.926C286.063 160.709 285.514 161.378 284.809 161.849C284.104 162.32 283.276 162.571 282.429 162.571Z" fill="#4C241D"/>
<path d="M256.714 145.429C256.151 145.429 255.594 145.318 255.074 145.103C254.554 144.887 254.082 144.571 253.684 144.173L249.399 139.887C248.618 139.079 248.186 137.996 248.196 136.872C248.205 135.749 248.656 134.674 249.451 133.879C250.245 133.085 251.32 132.634 252.444 132.624C253.568 132.614 254.65 133.046 255.459 133.827L259.744 138.113C260.343 138.712 260.751 139.476 260.917 140.307C261.082 141.138 260.997 142 260.673 142.783C260.349 143.566 259.799 144.235 259.095 144.706C258.39 145.177 257.562 145.428 256.714 145.429Z" fill="#4C241D"/>
<path d="M237.429 151.857C236.866 151.858 236.308 151.747 235.788 151.532C235.268 151.316 234.796 151 234.398 150.601L227.97 144.173C227.189 143.364 226.757 142.282 226.767 141.158C226.777 140.034 227.228 138.96 228.022 138.165C228.817 137.37 229.892 136.92 231.015 136.91C232.139 136.9 233.222 137.332 234.03 138.113L240.459 144.541C241.058 145.141 241.466 145.904 241.631 146.736C241.796 147.567 241.711 148.428 241.387 149.211C241.063 149.994 240.514 150.664 239.809 151.135C239.104 151.605 238.276 151.857 237.429 151.857Z" fill="#4C241D"/>
<path d="M261 162.571C260.437 162.572 259.88 162.461 259.36 162.246C258.84 162.03 258.367 161.714 257.97 161.316L253.684 157.03C252.904 156.222 252.472 155.139 252.481 154.015C252.491 152.892 252.942 151.817 253.736 151.022C254.531 150.228 255.606 149.777 256.73 149.767C257.853 149.757 258.936 150.189 259.744 150.97L264.03 155.256C264.629 155.855 265.037 156.619 265.202 157.45C265.368 158.281 265.283 159.143 264.959 159.926C264.634 160.709 264.085 161.378 263.38 161.849C262.676 162.32 261.847 162.571 261 162.571Z" fill="#4C241D"/>
<path d="M205.286 141.143C204.723 141.143 204.165 141.033 203.645 140.817C203.125 140.602 202.653 140.286 202.256 139.887L193.684 131.316C192.904 130.507 192.472 129.425 192.481 128.301C192.491 127.177 192.942 126.102 193.736 125.308C194.531 124.513 195.606 124.063 196.73 124.053C197.853 124.043 198.936 124.475 199.744 125.256L208.316 133.827C208.915 134.426 209.323 135.19 209.488 136.021C209.653 136.852 209.569 137.714 209.244 138.497C208.92 139.28 208.371 139.949 207.666 140.42C206.962 140.891 206.133 141.143 205.286 141.143Z" fill="#4C241D"/>
<path d="M186 143.286C185.437 143.286 184.88 143.176 184.36 142.96C183.84 142.745 183.367 142.429 182.97 142.03L176.541 135.601C175.761 134.793 175.329 133.71 175.338 132.587C175.348 131.463 175.799 130.388 176.594 129.594C177.388 128.799 178.463 128.348 179.587 128.338C180.71 128.329 181.793 128.761 182.601 129.541L189.03 135.97C189.629 136.569 190.037 137.333 190.202 138.164C190.368 138.995 190.283 139.857 189.959 140.64C189.634 141.423 189.085 142.092 188.38 142.563C187.676 143.034 186.847 143.285 186 143.286Z" fill="#4C241D"/>
<path d="M201 166.857C200.437 166.858 199.88 166.747 199.36 166.532C198.84 166.316 198.367 166 197.97 165.601L189.399 157.03C188.618 156.222 188.186 155.139 188.196 154.015C188.205 152.892 188.656 151.817 189.451 151.022C190.245 150.228 191.32 149.777 192.444 149.767C193.568 149.757 194.65 150.189 195.459 150.97L204.03 159.541C204.629 160.141 205.037 160.904 205.202 161.736C205.368 162.567 205.283 163.428 204.959 164.211C204.634 164.994 204.085 165.664 203.381 166.135C202.676 166.605 201.847 166.857 201 166.857Z" fill="#4C241D"/>
<path d="M213.857 162.571C213.294 162.572 212.737 162.461 212.217 162.246C211.697 162.03 211.224 161.714 210.827 161.316L206.541 157.03C205.761 156.222 205.329 155.139 205.338 154.015C205.348 152.892 205.799 151.817 206.594 151.022C207.388 150.228 208.463 149.777 209.587 149.767C210.71 149.757 211.793 150.189 212.601 150.97L216.887 155.256C217.486 155.855 217.894 156.619 218.06 157.45C218.225 158.281 218.14 159.143 217.816 159.926C217.491 160.709 216.942 161.378 216.238 161.849C215.533 162.32 214.705 162.571 213.857 162.571Z" fill="#4C241D"/>
<path d="M239.571 132.571C239.008 132.572 238.451 132.461 237.931 132.246C237.411 132.03 236.939 131.714 236.541 131.316L232.256 127.03C231.475 126.222 231.043 125.139 231.053 124.015C231.062 122.892 231.513 121.817 232.308 121.022C233.102 120.228 234.177 119.777 235.301 119.767C236.425 119.757 237.507 120.189 238.316 120.97L242.601 125.256C243.201 125.855 243.609 126.619 243.774 127.45C243.939 128.281 243.854 129.143 243.53 129.926C243.206 130.709 242.656 131.378 241.952 131.849C241.247 132.32 240.419 132.571 239.571 132.571Z" fill="#4C241D"/>
<path d="M239.571 179.714C239.008 179.715 238.451 179.604 237.931 179.389C237.411 179.173 236.939 178.857 236.541 178.459L227.97 169.887C227.189 169.079 226.757 167.996 226.767 166.872C226.777 165.749 227.228 164.674 228.022 163.879C228.817 163.085 229.892 162.634 231.015 162.624C232.139 162.614 233.222 163.046 234.03 163.827L242.601 172.399C243.201 172.998 243.609 173.761 243.774 174.593C243.939 175.424 243.854 176.285 243.53 177.068C243.206 177.851 242.657 178.521 241.952 178.992C241.247 179.463 240.419 179.714 239.571 179.714Z" fill="#4C241D"/>
<path d="M222.428 192.571C221.581 192.571 220.753 192.32 220.048 191.849C219.343 191.378 218.794 190.709 218.47 189.926C218.146 189.143 218.061 188.281 218.226 187.45C218.391 186.619 218.799 185.855 219.398 185.256L223.684 180.97C224.492 180.189 225.575 179.757 226.699 179.767C227.822 179.777 228.897 180.227 229.692 181.022C230.487 181.817 230.937 182.892 230.947 184.015C230.957 185.139 230.525 186.222 229.744 187.03L225.458 191.316C225.061 191.714 224.589 192.03 224.069 192.246C223.549 192.461 222.991 192.572 222.428 192.571Z" fill="#4C241D"/>
<path d="M213.857 179.714C213.01 179.714 212.181 179.463 211.477 178.992C210.772 178.521 210.223 177.851 209.899 177.068C209.574 176.285 209.489 175.424 209.655 174.593C209.82 173.761 210.228 172.998 210.827 172.398L215.113 168.113C215.921 167.332 217.004 166.9 218.127 166.91C219.251 166.92 220.326 167.37 221.121 168.165C221.915 168.96 222.366 170.034 222.376 171.158C222.385 172.282 221.954 173.364 221.173 174.173L216.887 178.459C216.49 178.857 216.017 179.173 215.497 179.389C214.977 179.604 214.42 179.715 213.857 179.714Z" fill="#4C241D"/>
<path d="M286.714 184C285.867 184 285.038 183.748 284.334 183.277C283.629 182.806 283.08 182.137 282.756 181.354C282.431 180.571 282.347 179.71 282.512 178.878C282.677 178.047 283.085 177.284 283.684 176.684L292.256 168.113C293.064 167.332 294.147 166.9 295.27 166.91C296.394 166.92 297.469 167.37 298.264 168.165C299.058 168.96 299.509 170.034 299.519 171.158C299.528 172.282 299.096 173.364 298.316 174.173L289.744 182.744C289.347 183.143 288.875 183.459 288.355 183.674C287.835 183.89 287.277 184.001 286.714 184Z" fill="#4C241D"/>
<path d="M265.286 184C264.438 184 263.61 183.748 262.905 183.277C262.201 182.806 261.651 182.137 261.327 181.354C261.003 180.571 260.918 179.71 261.083 178.878C261.249 178.047 261.657 177.284 262.256 176.684L270.827 168.113C271.635 167.332 272.718 166.9 273.842 166.91C274.965 166.92 276.04 167.37 276.835 168.165C277.63 168.96 278.08 170.034 278.09 171.158C278.1 172.282 277.668 173.364 276.887 174.173L268.316 182.744C267.918 183.143 267.446 183.459 266.926 183.674C266.406 183.89 265.849 184.001 265.286 184Z" fill="#4C241D"/>
<path d="M298.651 122.912H295.286C294.149 122.912 293.059 122.461 292.255 121.657C291.452 120.853 291 119.763 291 118.627C291 117.49 291.452 116.4 292.255 115.596C293.059 114.793 294.149 114.341 295.286 114.341H298.651C301.168 114.338 303.58 113.338 305.36 111.558C307.139 109.779 308.14 107.366 308.143 104.849V99.2049C308.14 96.6885 307.139 94.276 305.36 92.4967C303.58 90.7175 301.167 89.7168 298.651 89.7142H295.286V91.8571C295.283 94.6978 294.153 97.4214 292.144 99.4301C290.136 101.439 287.412 102.569 284.571 102.571H280.286C277.444 102.571 274.719 101.443 272.71 99.4332C270.7 97.4239 269.571 94.6987 269.571 91.8571C269.571 89.0155 270.7 86.2903 272.71 84.2809C274.719 82.2716 277.444 81.1428 280.286 81.1428H286.714V68.2857C286.714 67.149 287.166 66.0589 287.97 65.2552C288.773 64.4515 289.863 63.9999 291 63.9999C292.137 63.9999 293.227 64.4515 294.03 65.2552C294.834 66.0589 295.286 67.149 295.286 68.2857V81.1428H298.651C303.44 81.1479 308.031 83.0525 311.418 86.4386C314.804 89.8248 316.709 94.416 316.714 99.2049V104.849C316.709 109.638 314.804 114.23 311.418 117.616C308.032 121.003 303.44 122.907 298.651 122.912ZM280.286 89.7142C279.717 89.7142 279.172 89.94 278.77 90.3419C278.369 90.7437 278.143 91.2888 278.143 91.8571C278.143 92.4254 278.369 92.9704 278.77 93.3723C279.172 93.7742 279.717 93.9999 280.286 93.9999H284.571C285.14 93.9999 285.685 93.7742 286.087 93.3723C286.489 92.9704 286.714 92.4254 286.714 91.8571V89.7142H280.286Z" fill="#4C241D"/>
</svg>
