<svg width="47" height="36" viewBox="0 0 47 36" fill="none" xmlns="http://www.w3.org/2000/svg">
<path d="M43.2554 9.86837C44.4596 9.44906 45.3315 8.31467 45.3315 6.96917V6.00624C45.3315 4.30686 43.9492 2.92461 42.2499 2.92461H41.6757V0.731153C41.6757 0.327374 41.3487 0 40.9446 0C40.5404 0 40.2134 0.327374 40.2134 0.731153V2.92461H39.1167C38.1084 2.92461 37.2888 3.7446 37.2888 4.75249C37.2888 5.76039 38.1084 6.58038 39.1167 6.58038H39.8478C40.8561 6.58038 41.6757 5.76039 41.6757 4.75249V4.38692H42.2499C43.1431 4.38692 43.8692 5.1135 43.8692 6.00624V6.96917C43.8692 7.86209 43.143 8.58849 42.2499 8.58849H41.6757C41.6472 8.58849 41.6229 8.60165 41.5953 8.60476C40.2293 7.78916 38.6394 7.31153 36.936 7.31153H17.5477V5.11807C17.5477 4.71429 17.2207 4.38692 16.8165 4.38692C13.9738 4.38692 11.6008 6.42629 11.0773 9.11821C11.0134 9.14014 10.9483 9.15952 10.8903 9.20046C9.83858 9.93984 8.94328 10.858 8.22913 11.9291L6.92036 13.8919H2.20132C0.987422 13.8919 0 14.8797 0 16.0936V19.2006C0 21.1113 1.55443 22.6657 3.46512 22.6657H3.6289C4.73732 24.8958 6.98251 26.3215 9.50499 26.3215H12.3404C12.3653 26.3215 12.3863 26.3098 12.4106 26.3074C12.8345 26.7353 13.3368 27.0836 13.8919 27.3362V33.5122C13.8919 34.7884 14.9301 35.8267 16.2067 35.8267C17.3428 35.8267 18.3031 35.0131 18.4894 33.8928L19.01 30.7689V33.4422C19.01 34.5397 19.7483 35.5143 20.7657 35.7596C20.9534 35.8049 21.142 35.827 21.3283 35.827C21.7789 35.827 22.2164 35.6967 22.5999 35.4432C23.1348 35.0897 23.5018 34.5247 23.6075 33.8928L24.6256 27.784H33.8703L33.1474 33.2059C33.0589 33.867 33.2601 34.5344 33.6994 35.0363C34.1392 35.5386 34.774 35.8267 35.4415 35.8267H35.9263C36.9731 35.8267 37.892 35.1202 38.1618 34.1088L39.6318 28.5956L40.1567 29.3828L39.2649 32.9509C39.0907 33.6475 39.2443 34.3711 39.6855 34.9369C40.1275 35.5024 40.7923 35.8269 41.5097 35.8269H42.663C43.7012 35.8269 44.6186 35.1282 44.8943 34.1275L46.0359 29.9844C46.0539 29.9212 46.0625 29.8559 46.0625 29.7903V16.4385C46.0626 13.8583 44.982 11.5299 43.2554 9.86837ZM40.2134 4.75249C40.2134 4.95429 40.0493 5.11807 39.8478 5.11807H39.1167C38.9152 5.11807 38.7511 4.95429 38.7511 4.75249C38.7511 4.5507 38.9152 4.38692 39.1167 4.38692H40.2134V4.75249ZM17.0472 33.6522C16.9787 34.0646 16.6246 34.3642 16.206 34.3642C15.7362 34.3642 15.3542 33.9818 15.3542 33.512V27.7456C15.5478 27.7686 15.7436 27.7838 15.9433 27.7838H18.0251L17.0472 33.6522ZM36.7498 33.7316C36.6498 34.1039 36.3114 34.3642 35.9265 34.3642H35.4417C35.1926 34.3642 34.9641 34.2607 34.7998 34.0732C34.6362 33.8858 34.5642 33.6466 34.5971 33.3994L35.3458 27.7836H38.3356L36.7498 33.7316ZM44.6003 29.691L43.485 33.7389C43.3835 34.107 43.0452 34.3644 42.6631 34.3644H41.5099C41.2458 34.3644 41.0009 34.2452 40.838 34.0366C40.6759 33.8284 40.6196 33.5618 40.683 33.3055L41.6534 29.4238C41.7033 29.2238 41.6669 29.0121 41.5527 28.8409L40.1039 26.6677L37.1921 21.5721C36.9921 21.2215 36.5452 21.0994 36.1946 21.3001C35.844 21.5005 35.7219 21.947 35.9226 22.2976L38.2221 26.3219H24.0058C23.648 26.3219 23.3432 26.5803 23.2847 26.9328L22.1651 33.6521C22.1265 33.8851 21.9909 34.0933 21.7938 34.2236C21.5931 34.3554 21.3489 34.3964 21.1084 34.3382C20.7399 34.2494 20.4723 33.8727 20.4723 33.4426V27.0532C20.4723 26.6494 20.1453 26.3221 19.7411 26.3221H15.9433C14.0061 26.3221 12.4296 24.7459 12.4296 22.8083V21.9351C12.4296 21.5314 12.1026 21.204 11.6984 21.204C11.2943 21.204 10.9673 21.5314 10.9673 21.9351V22.8083C10.9673 23.5402 11.1302 24.2333 11.4151 24.8597H9.50499C7.80085 24.8597 6.26178 24.0208 5.31841 22.6663H8.77384C9.17798 22.6663 9.50499 22.3389 9.50499 21.9351C9.50499 21.5314 9.17798 21.204 8.77384 21.204H4.09135C4.09025 21.204 4.08916 21.204 4.08806 21.204H3.46512C2.36053 21.204 1.46231 20.3054 1.46231 19.2012V16.0941C1.46231 15.6865 1.79352 15.3548 2.20132 15.3548H7.31153C7.55573 15.3548 7.78422 15.2327 7.91985 15.0292L9.44577 12.7407C9.87879 12.0913 10.3933 11.5111 10.9739 11.0004C10.9918 11.3883 11.3058 11.699 11.6984 11.699C12.1026 11.699 12.4296 11.3716 12.4296 10.9678V10.2367C12.4296 8.06681 14.0133 6.25995 16.0854 5.91082V10.9678C16.0854 11.3716 16.4124 11.699 16.8165 11.699C17.2207 11.699 17.5477 11.3716 17.5477 10.9678V8.77438H36.936C41.1623 8.77438 44.6003 12.2125 44.6003 16.4387V29.691Z" fill="#FFF9F0"/>
<path d="M10.9672 15.3539C11.371 15.3539 11.6984 15.0266 11.6984 14.6228C11.6984 14.2189 11.371 13.8916 10.9672 13.8916C10.5634 13.8916 10.2361 14.2189 10.2361 14.6228C10.2361 15.0266 10.5634 15.3539 10.9672 15.3539Z" fill="#FFF9F0"/>
<path d="M39.3309 14.043C39.4736 14.1857 39.6608 14.2572 39.8478 14.2572C40.0348 14.2572 40.222 14.1857 40.3647 14.043C40.6503 13.7574 40.6503 13.2946 40.3647 13.0091L39.268 11.9124C38.9825 11.6269 38.5197 11.6269 38.2342 11.9124C37.9486 12.1979 37.9486 12.6607 38.2342 12.9462L39.3309 14.043Z" fill="#FFF9F0"/>
<path d="M39.9992 16.6021C40.2848 16.3166 40.2848 15.8538 39.9992 15.5683L38.5369 14.106C38.2514 13.8205 37.7886 13.8205 37.5031 14.106C37.2176 14.3915 37.2176 14.8543 37.5031 15.1398L38.9654 16.6021C39.1081 16.7449 39.2953 16.8164 39.4823 16.8164C39.6693 16.8164 39.8565 16.7449 39.9992 16.6021Z" fill="#FFF9F0"/>
<path d="M35.0954 13.8916C35.2824 13.8916 35.4696 13.8201 35.6123 13.6774C35.8978 13.3919 35.8978 12.929 35.6123 12.6435L34.8812 11.9124C34.5957 11.6269 34.1328 11.6269 33.8473 11.9124C33.5618 12.1979 33.5618 12.6607 33.8473 12.9462L34.5785 13.6774C34.7212 13.8201 34.9084 13.8916 35.0954 13.8916Z" fill="#FFF9F0"/>
<path d="M31.2882 14.7742C31.4309 14.9169 31.6181 14.9884 31.8051 14.9884C31.9921 14.9884 32.1793 14.9169 32.322 14.7742C32.6075 14.4886 32.6075 14.0258 32.322 13.7403L31.2253 12.6436C30.9398 12.3581 30.4769 12.3581 30.1914 12.6436C29.9059 12.9291 29.9059 13.3919 30.1914 13.6774L31.2882 14.7742Z" fill="#FFF9F0"/>
<path d="M36.3434 16.6027C36.6289 16.3172 36.6289 15.8543 36.3434 15.5688L35.6122 14.8377C35.3267 14.5522 34.8639 14.5522 34.5784 14.8377C34.2929 15.1232 34.2929 15.586 34.5784 15.8715L35.3095 16.6027C35.4523 16.7454 35.6395 16.8169 35.8265 16.8169C36.0135 16.8169 36.2006 16.7454 36.3434 16.6027Z" fill="#FFF9F0"/>
<path d="M25.8046 12.9466C25.9474 13.0894 26.1346 13.1609 26.3215 13.1609C26.5085 13.1609 26.6957 13.0894 26.8385 12.9466C27.124 12.6611 27.124 12.1983 26.8385 11.9128L25.3762 10.4505C25.0906 10.1649 24.6278 10.1649 24.3423 10.4505C24.0568 10.736 24.0568 11.1988 24.3423 11.4843L25.8046 12.9466Z" fill="#FFF9F0"/>
<path d="M23.5483 12.2784L22.4516 11.1817C22.1661 10.8962 21.7033 10.8962 21.4177 11.1817C21.1322 11.4672 21.1322 11.93 21.4177 12.2155L22.5145 13.3122C22.6572 13.455 22.8444 13.5265 23.0314 13.5265C23.2184 13.5265 23.4056 13.455 23.5483 13.3122C23.834 13.0267 23.834 12.5639 23.5483 12.2784Z" fill="#FFF9F0"/>
<path d="M24.645 14.8377C24.3594 14.5522 23.8966 14.5522 23.6111 14.8377C23.3256 15.1232 23.3256 15.586 23.6111 15.8715L25.0734 17.3338C25.2162 17.4766 25.4034 17.5481 25.5903 17.5481C25.7773 17.5481 25.9645 17.4766 26.1073 17.3338C26.3928 17.0483 26.3928 16.5855 26.1073 16.3L24.645 14.8377Z" fill="#FFF9F0"/>
<path d="M27.7837 16.8169C27.9707 16.8169 28.1579 16.7454 28.3007 16.6027C28.5862 16.3172 28.5862 15.8543 28.3007 15.5688L27.5695 14.8377C27.284 14.5522 26.8212 14.5522 26.5357 14.8377C26.2502 15.1232 26.2502 15.586 26.5357 15.8715L27.2668 16.6027C27.4096 16.7454 27.5968 16.8169 27.7837 16.8169Z" fill="#FFF9F0"/>
<path d="M31.9565 9.71951C31.671 9.43399 31.2081 9.43399 30.9226 9.71951C30.6371 10.005 30.6371 10.4678 30.9226 10.7534L31.6538 11.4845C31.7965 11.6273 31.9837 11.6987 32.1707 11.6987C32.3577 11.6987 32.5449 11.6273 32.6876 11.4845C32.9732 11.199 32.9732 10.7362 32.6876 10.4507L31.9565 9.71951Z" fill="#FFF9F0"/>
<path d="M31.2253 17.031C30.9398 16.7455 30.4769 16.7455 30.1914 17.031C29.9059 17.3165 29.9059 17.7794 30.1914 18.0649L31.6537 19.5272C31.7965 19.6699 31.9837 19.7414 32.1707 19.7414C32.3577 19.7414 32.5448 19.6699 32.6876 19.5272C32.9731 19.2417 32.9731 18.7789 32.6876 18.4933L31.2253 17.031Z" fill="#FFF9F0"/>
<path d="M29.4603 19.9557L28.7292 20.6868C28.4436 20.9723 28.4436 21.4351 28.7292 21.7207C28.8719 21.8634 29.0591 21.9349 29.2461 21.9349C29.4331 21.9349 29.6202 21.8634 29.763 21.7207L30.4942 20.9895C30.7797 20.704 30.7797 20.2412 30.4942 19.9557C30.2086 19.6701 29.7458 19.67 29.4603 19.9557Z" fill="#FFF9F0"/>
<path d="M29.0319 17.762C28.7464 17.4765 28.2835 17.4765 27.998 17.762L27.2669 18.4931C26.9814 18.7787 26.9814 19.2415 27.2669 19.527C27.4096 19.6697 27.5968 19.7412 27.7838 19.7412C27.9708 19.7412 28.158 19.6697 28.3007 19.527L29.0319 18.7958C29.3176 18.5103 29.3176 18.0475 29.0319 17.762Z" fill="#FFF9F0"/>
<path d="M41.1589 17.7618L39.6966 19.2241C39.411 19.5096 39.411 19.9725 39.6966 20.258C39.8393 20.4007 40.0265 20.4722 40.2135 20.4722C40.4005 20.4722 40.5877 20.4007 40.7304 20.258L42.1927 18.7957C42.4782 18.5101 42.4782 18.0473 42.1927 17.7618C41.9072 17.4763 41.4444 17.4761 41.1589 17.7618Z" fill="#FFF9F0"/>
<path d="M37.503 17.7618L36.0407 19.2241C35.7552 19.5096 35.7552 19.9725 36.0407 20.258C36.1834 20.4007 36.3706 20.4722 36.5576 20.4722C36.7446 20.4722 36.9318 20.4007 37.0745 20.258L38.5368 18.7957C38.8224 18.5101 38.8224 18.0473 38.5368 17.7618C38.2513 17.4763 37.7885 17.4761 37.503 17.7618Z" fill="#FFF9F0"/>
</svg>
