<svg id="wild-boar" enable-background="new 0 0 300 300" height="512" viewBox="0 0 300 300" width="512" xmlns="http://www.w3.org/2000/svg"><g><circle cx="170" cy="109.999" fill="#e7d1c4" r="74"/><g><path d="m112.662 259.999c-4.784 0-8.662-3.878-8.662-8.662v-39.338h24l-6.794 40.762c-.696 4.177-4.31 7.238-8.544 7.238z" fill="#6b4f5b"/><path d="m112.664 263.999c-6.984 0-12.664-5.68-12.664-12.662v-39.338c0-2.209 1.789-4 4-4h24c1.176 0 2.293.518 3.051 1.414.762.898 1.09 2.084.895 3.244l-6.793 40.762c-1.02 6.129-6.274 10.58-12.489 10.58zm-4.664-48v35.338c0 2.57 2.09 4.662 4.66 4.662h.004c2.289 0 4.223-1.639 4.598-3.895l6.016-36.105z" fill="#4c241d"/></g><g><path d="m220.545 259.999h-2.651c-5.239 0-9.278-4.614-8.586-9.807l5.092-38.193h25.6l-11.085 41.57c-1.011 3.792-4.446 6.43-8.37 6.43z" fill="#6b4f5b"/><path d="m220.547 263.999h-2.652c-3.652 0-7.125-1.576-9.531-4.324-2.402-2.746-3.504-6.396-3.02-10.014l5.09-38.191c.266-1.986 1.961-3.471 3.965-3.471h25.601c1.242 0 2.414.578 3.172 1.562.758.986 1.012 2.268.691 3.469l-11.086 41.57c-1.476 5.534-6.504 9.399-12.23 9.399zm-2.645-48-4.629 34.723c-.18 1.352.215 2.66 1.109 3.686.898 1.025 2.148 1.592 3.512 1.592h2.652c2.105 0 3.957-1.424 4.504-3.461l9.742-36.539h-16.89z" fill="#4c241d"/></g><path d="m100 55.511c-2.211 0-4-1.791-4-4v-5.66c0-2.209 1.789-4 4-4s4 1.791 4 4v5.66c0 2.209-1.789 4-4 4z" fill="#4c241d"/><path d="m100 78.147c-2.211 0-4-1.791-4-4v-5.66c0-2.209 1.789-4 4-4s4 1.791 4 4v5.66c0 2.209-1.789 4-4 4z" fill="#4c241d"/><path d="m91.512 63.999h-5.66c-2.211 0-4-1.791-4-4s1.789-4 4-4h5.66c2.211 0 4 1.791 4 4s-1.789 4-4 4z" fill="#4c241d"/><path d="m114.148 63.999h-5.66c-2.211 0-4-1.791-4-4s1.789-4 4-4h5.66c2.211 0 4 1.791 4 4s-1.789 4-4 4z" fill="#4c241d"/><path d="m200 91.999c-6.617 0-12-5.383-12-12s5.383-12 12-12 12 5.383 12 12-5.383 12-12 12zm0-16c-2.207 0-4 1.795-4 4s1.793 4 4 4 4-1.795 4-4-1.793-4-4-4z" fill="#4c241d"/><g><path d="m120 207.999h-44c-17.673 0-32-14.327-32-32h76z" fill="#6b4f5b"/><path d="m120 211.999h-44c-19.852 0-36-16.15-36-36 0-2.209 1.789-4 4-4h76c2.211 0 4 1.791 4 4v32c0 2.209-1.789 4-4 4zm-71.715-32c1.945 13.551 13.633 24 27.715 24h40v-24z" fill="#4c241d"/></g><circle cx="152" cy="43.999" fill="#4c241d" r="4"/><g><path d="m224 187.999 16 28" fill="#fff"/><path d="m240.004 219.999c-1.391 0-2.738-.723-3.477-2.016l-16-28c-1.098-1.918-.43-4.361 1.488-5.457 1.918-1.098 4.363-.43 5.457 1.488l16 28c1.098 1.918.43 4.361-1.488 5.457-.625.358-1.308.528-1.98.528z" fill="#4c241d"/></g><g><path d="m88 187.999v4.777c0 12.826 10.397 23.223 23.223 23.223h20.777v34.955c0 4.05 2.605 7.841 6.542 8.79 5.093 1.228 9.855-2.122 10.664-6.983l6.127-36.762h84.667l8 12-5.309 21.237c-1.367 5.467 2.768 10.763 8.404 10.763h6.308c3.897 0 7.315-2.603 8.35-6.36l6.247-22.665v-42.198-.777-30.071c0-25.366-20.563-45.929-45.929-45.929h-109.851c-17.63 0-34.094 8.811-43.873 23.48l-8.347 12.52h-27.956c-4.443 0-8.044 3.601-8.044 8.044v16.998c0 8.261 6.697 14.958 14.958 14.958h29.042" fill="#b5a19c"/><path d="m140.684 264.001c-1.02 0-2.051-.121-3.078-.369-5.566-1.342-9.605-6.674-9.605-12.678v-30.955h-16.777c-15.013 0-27.224-12.213-27.224-27.223v-4.777c0-2.209 1.789-4 4-4s4 1.791 4 4v4.777c0 10.6 8.625 19.223 19.223 19.223h20.777c2.211 0 4 1.791 4 4v34.955c0 2.354 1.465 4.414 3.48 4.9 1.316.318 2.652.094 3.75-.627 1.078-.713 1.82-1.852 2.031-3.127l6.125-36.76c.32-1.928 1.988-3.342 3.945-3.342h84.669c1.336 0 2.586.668 3.328 1.781l8 12c.625.938.824 2.096.551 3.189l-5.309 21.236c-.348 1.402-.039 2.861.848 4 .891 1.141 2.23 1.793 3.676 1.793h6.309c2.09 0 3.941-1.408 4.496-3.422l6.101-22.142v-72.504c0-23.121-18.809-41.93-41.93-41.93h-109.851c-16.332 0-31.488 8.111-40.543 21.699l-8.348 12.52c-.742 1.113-1.992 1.781-3.328 1.781h-27.957c-2.23 0-4.043 1.814-4.043 4.045v16.998c0 6.041 4.914 10.957 10.957 10.957h29.043c2.211 0 4 1.791 4 4s-1.789 4-4 4h-29.043c-10.453 0-18.957-8.504-18.957-18.957v-16.998c0-6.641 5.402-12.045 12.043-12.045h25.816l7.16-10.738c10.543-15.818 28.188-25.262 47.199-25.262h109.852c27.531 0 49.93 22.398 49.93 49.93v73.045c0 .359-.047.717-.145 1.062l-6.246 22.666c-1.508 5.475-6.527 9.297-12.207 9.297h-6.309c-3.926 0-7.562-1.775-9.98-4.869-2.414-3.096-3.254-7.055-2.301-10.865l4.879-19.52-5.832-8.746h-79.137l-5.57 33.42c-.578 3.457-2.586 6.549-5.512 8.482-2.097 1.387-4.492 2.1-6.956 2.1z" fill="#4c241d"/></g><g><path d="m88 127.999v-4c0-15.464 12.536-28 28-28v32" fill="#b5a19c"/><path d="m116 131.999c-2.211 0-4-1.791-4-4v-27.666c-11.336 1.91-20 11.795-20 23.666v4c0 2.209-1.789 4-4 4s-4-1.791-4-4v-4c0-17.645 14.355-32 32-32 2.211 0 4 1.791 4 4v32c0 2.209-1.789 4-4 4z" fill="#4c241d"/></g><g fill="#4c241d"><circle cx="84" cy="147.999" r="4"/><path d="m242 145.999c-1.023 0-2.047-.391-2.828-1.172l-6-6c-1.562-1.562-1.562-4.094 0-5.656s4.094-1.562 5.656 0l6 6c1.562 1.562 1.562 4.094 0 5.656-.781.781-1.805 1.172-2.828 1.172z"/><path d="m240 159.999c-1.023 0-2.047-.391-2.828-1.172l-8-8c-1.562-1.562-1.562-4.094 0-5.656s4.094-1.562 5.656 0l8 8c1.562 1.562 1.562 4.094 0 5.656-.781.781-1.805 1.172-2.828 1.172z"/><path d="m216 143.999c-1.023 0-2.047-.391-2.828-1.172l-4-4c-1.562-1.562-1.562-4.094 0-5.656s4.094-1.562 5.656 0l4 4c1.562 1.562 1.562 4.094 0 5.656-.781.781-1.805 1.172-2.828 1.172z"/><path d="m198 149.999c-1.023 0-2.047-.391-2.828-1.172l-6-6c-1.562-1.562-1.562-4.094 0-5.656s4.094-1.562 5.656 0l6 6c1.562 1.562 1.562 4.094 0 5.656-.781.781-1.805 1.172-2.828 1.172z"/><path d="m220 159.999c-1.023 0-2.047-.391-2.828-1.172l-4-4c-1.562-1.562-1.562-4.094 0-5.656s4.094-1.562 5.656 0l4 4c1.562 1.562 1.562 4.094 0 5.656-.781.781-1.805 1.172-2.828 1.172z"/><path d="m168 139.999c-1.023 0-2.047-.391-2.828-1.172l-8-8c-1.562-1.562-1.562-4.094 0-5.656s4.094-1.562 5.656 0l8 8c1.562 1.562 1.562 4.094 0 5.656-.781.781-1.805 1.172-2.828 1.172z"/><path d="m150 141.999c-1.023 0-2.047-.391-2.828-1.172l-6-6c-1.562-1.562-1.562-4.094 0-5.656s4.094-1.562 5.656 0l6 6c1.562 1.562 1.562 4.094 0 5.656-.781.781-1.805 1.172-2.828 1.172z"/><path d="m164 163.999c-1.023 0-2.047-.391-2.828-1.172l-8-8c-1.562-1.562-1.562-4.094 0-5.656s4.094-1.562 5.656 0l8 8c1.562 1.562 1.562 4.094 0 5.656-.781.781-1.805 1.172-2.828 1.172z"/><path d="m176 159.999c-1.023 0-2.047-.391-2.828-1.172l-4-4c-1.562-1.562-1.562-4.094 0-5.656s4.094-1.562 5.656 0l4 4c1.562 1.562 1.562 4.094 0 5.656-.781.781-1.805 1.172-2.828 1.172z"/><path d="m200 131.999c-1.023 0-2.047-.391-2.828-1.172l-4-4c-1.562-1.562-1.562-4.094 0-5.656s4.094-1.562 5.656 0l4 4c1.562 1.562 1.562 4.094 0 5.656-.781.781-1.805 1.172-2.828 1.172z"/><path d="m200 175.999c-1.023 0-2.047-.391-2.828-1.172l-8-8c-1.562-1.562-1.562-4.094 0-5.656s4.094-1.562 5.656 0l8 8c1.562 1.562 1.562 4.094 0 5.656-.781.781-1.805 1.172-2.828 1.172z"/><path d="m184 187.999c-1.023 0-2.047-.391-2.828-1.172-1.562-1.562-1.562-4.094 0-5.656l4-4c1.562-1.562 4.094-1.562 5.656 0s1.562 4.094 0 5.656l-4 4c-.781.781-1.805 1.172-2.828 1.172z"/><path d="m176 175.999c-1.023 0-2.047-.391-2.828-1.172-1.562-1.562-1.562-4.094 0-5.656l4-4c1.562-1.562 4.094-1.562 5.656 0s1.562 4.094 0 5.656l-4 4c-.781.781-1.805 1.172-2.828 1.172z"/><path d="m244 179.999c-1.023 0-2.047-.391-2.828-1.172-1.562-1.562-1.562-4.094 0-5.656l8-8c1.562-1.562 4.094-1.562 5.656 0s1.562 4.094 0 5.656l-8 8c-.781.781-1.805 1.172-2.828 1.172z"/><path d="m224 179.999c-1.023 0-2.047-.391-2.828-1.172-1.562-1.562-1.562-4.094 0-5.656l8-8c1.562-1.562 4.094-1.562 5.656 0s1.562 4.094 0 5.656l-8 8c-.781.781-1.805 1.172-2.828 1.172z"/><path d="m255.141 122.985h-3.141c-2.211 0-4-1.791-4-4s1.789-4 4-4h3.141c4.887 0 8.859-3.975 8.859-8.859v-5.268c0-4.885-3.973-8.859-8.859-8.859h-3.141v2c0 5.514-4.484 10-10 10h-4c-5.516 0-10-4.486-10-10s4.484-10 10-10h6v-12c0-2.209 1.789-4 4-4s4 1.791 4 4v12h3.141c9.297 0 16.859 7.562 16.859 16.859v5.268c0 9.297-7.562 16.859-16.859 16.859zm-17.141-30.986c-1.102 0-2 .896-2 2s.898 2 2 2h4c1.102 0 2-.896 2-2v-2z"/></g></g></svg>